<svg xmlns="http://www.w3.org/2000/svg" width="800" height="197" fill="none" xmlns:v="https://vecta.io/nano"><g clip-path="url(#A)"><g fill="#002a3a"><path d="M483.947 1.169h-15.39c-5.037 0-9.963 4.091-10.992 9.128l-8.516 42.244-20.566-47.003c-1.113-2.699-3.729-4.341-6.901-4.341h-21.178-2.839c1.837 1.614 1.698 4.87 1.531 6.317l-14.221 70.435-1.224 6.095s-1.058 4.954-4.258 7.041h2.839 15.389c5.037 0 9.963-4.091 10.965-9.128l8.515-42.244 20.566 47.003c1.113 2.699 3.729 4.341 6.902 4.341h.779 23.237c-1.837-1.614-1.698-4.87-1.531-6.317l15.445-76.558s1.058-4.954 4.258-7.041h-2.838l.028.028zm221.908 0h-15.39c-5.037 0-9.962 4.091-10.992 9.128l-8.516 42.244-20.565-47.003c-1.114-2.699-3.73-4.341-6.902-4.341h-21.178-2.838c1.836 1.614 1.697 4.87 1.53 6.317l-14.22 70.435-1.225 6.095s-1.057 4.954-4.258 7.041h2.839 15.389c5.037 0 9.963-4.091 10.965-9.128l8.516-42.244 20.565 47.003c1.113 2.699 3.729 4.341 6.902 4.341h.779 23.237c-1.837-1.614-1.697-4.87-1.53-6.317l15.445-76.558s1.057-4.954 4.257-7.041h-2.838l.028.028zm-135.779 0H507.99h-3.089-3.952c-5.037 0-9.963 4.091-10.964 9.128l-.529 2.56s-.056.028-.084.056l-1.948 9.462h26.772l-11.299 54.879-.111.612-1.364 6.679c-.334 1.28-1.502 4.814-4.118 6.54h2.783 24.739 2.895c-2.394-2.115-1.42-7.041-1.42-7.041l1.114-5.51 11.549-56.131h13.942 3.757c5.037 0 9.963-4.091 10.964-9.128l.975-4.814 1.502-7.236-.028-.056zm32.672 0h-15.389c-5.037 0-9.963 4.091-10.993 9.128l-14.861 74.22c-.334 1.28-1.502 4.814-4.118 6.54h29.999c-1.836-1.614-1.697-4.87-1.53-6.317l15.445-76.558s1.057-4.954 4.258-7.041h-2.839l.028.028zm-501.2 82.847L84.461 6.735c-.751-3.367-3.618-5.566-7.291-5.566H64.146h-5.482-3.033c1.419 2.588-1.392 7.041-1.392 7.041L6.929 84.016s-.028.056-.111.195v.056C6.15 85.268 3.506 89.248 0 91.084h2.532 20.009c3.729 0 7.542-2.282 9.629-5.733l6.206-10.324L64.953 29.61l5.037 27.105h-2.505c-8.293 0-16.781 5.148-21.289 12.913l-3.812 6.595s5.705-2.365 18.478-2.365c11.299 0 14.443 11.41 14.443 11.41.64 3.506 3.562 5.844 7.347 5.844h20.454 2.561c-3.201-2.115-4.091-7.041-4.091-7.041l-.028-.056zm694.361 0L778.85 6.763c-.751-3.367-3.618-5.566-7.291-5.566h-13.024-5.482-3.034c1.42 2.588-1.391 7.041-1.391 7.041l-47.337 75.806s-.028.056-.112.195v.056c-.667 1.002-3.311 4.981-6.818 6.818h2.533 20.009c3.729 0 7.542-2.282 9.629-5.733l6.205-10.325 26.577-45.417 5.037 27.105h-2.504c-8.293 0-16.781 5.148-21.29 12.913l-3.812 6.596s5.705-2.365 18.478-2.365c11.299 0 14.444 11.41 14.444 11.41.64 3.506 3.562 5.844 7.346 5.844h20.455 2.56c-3.2-2.115-4.091-7.041-4.091-7.041l-.028-.083z"/></g><path d="M516.478 106.14h-20.009c-3.729 0-7.541 2.282-9.629 5.733l-6.205 10.324-26.577 45.417-10.325-55.63c-.64-3.506-3.562-5.844-7.347-5.844h-32.142c-3.729 0-7.904 2.282-10.492 5.733l-12.801 16.474-7.903-16.474c-1.559-3.479-5.037-5.733-8.794-5.733h-22.542c3.256 1.837 5.288 5.788 5.761 6.818v.056l.111.194 17.115 36.011-36.428 46.836h29.415c-1.03-2.588 2.449-7.04 2.449-7.04l14.555-18.785 8.933 18.812s2.142 4.453.334 7.041h29.415l-22.458-46.836 26.827-34.703 16.781 75.946c.751 3.395 3.618 5.565 7.291 5.565h21.512c-1.419-2.588 1.391-7.04 1.391-7.04l47.337-75.807s.028-.055.112-.194v-.056c.668-1.002 3.311-4.981 6.818-6.818h-2.533.028z" fill="#6dacde"/><g fill="#002a3a"><path d="M284.579 45.473h-18.673c4.063 2.059 2.532 9.712 2.505 9.851l-2.533 12.495-.083-.056c-4.23 2.477-9.24 3.729-15 3.729-3.562 0-6.679-.612-9.351-1.837s-4.87-2.922-6.595-5.093-2.866-4.759-3.423-7.82-.473-6.373.25-9.935l.056-.251c.696-3.395 1.948-6.595 3.757-9.573 1.781-2.978 3.924-5.566 6.428-7.792 2.477-2.226 5.232-3.952 8.238-5.232a24.12 24.12 0 0 1 9.323-1.948c4.397 0 8.098.696 11.159 2.143 1.224.584 2.421 1.308 3.59 2.087 3.005 2.115 3.423 5.622 3.423 5.622l1.53-1.475 18.061-17.504s-.139-.139-.389-.362c-3.813-3.896-8.238-6.957-13.302-9.156C278.318 1.113 271.778 0 263.902 0c-6.846 0-13.441 1.224-19.814 3.618-6.345 2.393-12.078 5.705-17.143 9.907s-9.378 9.156-12.94 14.805-6.011 11.716-7.347 18.172l-.056.25c-1.391 6.79-1.447 13.024-.167 18.673s3.674 10.492 7.153 14.582c3.478 4.063 7.903 7.236 13.33 9.462 5.398 2.226 11.576 3.34 18.506 3.34 8.126 0 15.668-1.364 22.625-4.007s13.219-5.928 18.757-9.852l5.037-24.322c1.029-5.037-2.255-9.128-7.292-9.128l.028-.028zM387.296 1.169h-74.665c2.365 2.087 1.447 6.902 1.419 7.041l-1.252 6.15-12.662 61.474-.418 2.115-.25 1.28-.557 2.699c-1.03 5.037 2.254 9.128 7.291 9.128h54.156c5.037 0 9.962-4.091 10.964-9.128l1.225-6.067 1.224-5.983h-48.005l2.922-14.248H362.5c5.037 0 9.963-4.091 10.965-9.128l1.113-5.51 1.03-5.009h-42.912l2.81-13.608h38.321c5.037 0 9.963-4.091 10.992-9.128l1.225-6.067 1.224-5.983.028-.028zM176.52 34.146c-2.533 12.829-20.705 14.555-27.273 14.972l13.636 37.124c1.197 3.061 5.01 4.926 8.544 4.926h25.881s-4.342-2.95-8.293-11.41c-2.227-4.814-8.405-21.122-8.405-21.122s18.089-10.185 21.373-26.465l.056-.25c1.781-8.822.528-15.807-3.729-20.955-2.394-3.089-5.789-5.482-10.241-7.208s-10.158-2.56-17.087-2.56h-34.063-11.326c2.365 2.087 1.447 6.929 1.419 7.041l-15.306 75.89s-1.058 4.953-4.258 7.041h30.612c-2.393-2.115-1.419-7.069-1.419-7.069l8.014-39.74 4.37-21.595h15.445c11.187 0 13.441 4.759 12.105 11.382h-.055z"/></g></g><defs><clipPath id="A"><path fill="#fff" d="M0 0h800v196.027H0z"/></clipPath></defs></svg>