<svg xmlns="http://www.w3.org/2000/svg" xmlns:v="https://vecta.io/nano" width="475" height="398" fill="none"><g clip-path="url(#A)"><path d="M105.172 136.693c0-15.915 22.233-40.548 66.104-30.844v-.209c-3.074-1.702-16.235-9.764-52.376-2.06 0 0 13.31-14.183 52.854-12.84a166.29 166.29 0 0 1 .179-5.554c-6.088-.836-15.221-1.523-26.83-.926-20.085 1.015-62.762 14.631-62.762 50.252 0 32.994 53.152 80.29 126.032 70.825 0 0-103.172-3.583-103.172-68.615l-.029-.03z" fill="#7ab0e0"></path><g fill="#002e4b"><path d="M471.717 318.562l-13.459-60.971c-.597-2.657-2.865-4.389-5.76-4.389h-16.982c1.105 2.03-1.104 5.554-1.104 5.554l-37.335 59.806s-.03.06-.089.15c-.508.836-2.567 3.971-5.342 5.404h17.787c2.954 0 5.968-1.791 7.61-4.538l25.845-43.982 3.969 21.379h-1.97c-6.565 0-13.25 4.06-16.802 10.181l-3.014 5.196s4.506-1.851 14.594-1.851c8.923 0 11.4 8.987 11.4 8.987.507 2.777 2.806 4.598 5.79 4.598H475c-2.537-1.672-3.223-5.553-3.223-5.553m-179.931-65.361h-58.883c1.881 1.642 1.164 5.464 1.134 5.554l-11.31 56.044-.418 2.12c-.776 3.971 1.79 7.196 5.789 7.196h42.707c3.97 0 7.849-3.225 8.625-7.196l1.91-9.525h-37.424l2.268-11.256h26.233c3.969 0 7.849-3.225 8.625-7.196l1.671-8.301h-33.395l2.178-10.749h29.785c3.969 0 7.849-3.225 8.625-7.196l1.88-9.525v.03z"></path><path d="M334.016 302.468c-1.253 1.135-6.177 5.106-13.728 5.106s-13.579-5.404-13.579-14.063c0-13.108 10.744-24.245 22.473-24.245 3.521 0 6.476.597 8.923 1.731 4.447 2.061 5.282 6.569 5.282 6.569l15.907-15.496s-8.595-10.331-26.68-10.331c-28.442 0-46.408 24.066-46.408 46.161 0 13.645 9.849 27.619 29.904 27.619 22.204 0 34.619-16.004 34.619-16.004l-13.549-11.406s-.358 1.881-3.104 4.359h-.06zm-286.206 0c-1.253 1.135-6.178 5.106-13.728 5.106s-13.579-5.404-13.579-14.063c0-13.108 10.744-24.245 22.473-24.245 3.522 0 6.476.597 8.923 1.731 4.447 2.061 5.282 6.569 5.282 6.569l15.907-15.496s-8.595-10.331-26.681-10.331C17.966 251.739 0 275.805 0 297.9c0 13.645 9.849 27.619 29.904 27.619 22.204 0 34.619-16.004 34.619-16.004l-13.549-11.406s-.358 1.881-3.104 4.359h-.06zm163.696-49.296c-3.97 0-7.849 3.225-8.655 7.196l-6.715 33.322-16.206-37.114c-.895-2.12-2.954-3.434-5.431-3.434h-18.951c1.432 1.284 1.343 3.822 1.194 4.957l-12.177 60.404s-.835 3.911-3.342 5.553h14.385c3.969 0 7.849-3.224 8.654-7.196l6.715-33.322 16.206 37.114c.895 2.12 2.954 3.434 5.431 3.434h18.951c-1.432-1.284-1.343-3.822-1.193-4.956l12.176-60.404s.836-3.912 3.342-5.554h-14.384zM97.919 325.519c-20.622 0-31.456-13.317-31.456-29.828 0-21.379 20.413-43.952 46.527-43.952 20.235 0 31.426 13.317 31.426 30.336 0 22.454-22.084 43.415-46.527 43.415l.03.029zm3.731-17.736c11.549 0 22.383-10.391 22.383-23.2 0-10.032-6.864-15.108-14.833-15.108-11.967 0-22.264 10.838-22.264 22.901 0 8.361 5.103 15.407 14.743 15.407h-.029zM368.157 257.8l-12.445 12.123h19.31l-10.088 49.028c-.268 1.015-1.164 3.792-3.253 5.135h23.965c-1.88-1.672-1.104-5.553-1.104-5.553l9.968-48.61h13.937c3.969 0 7.849-3.225 8.655-7.196l1.94-9.495h-39.603c-4.209 0-8.267 1.642-11.282 4.598v-.03zM143.939 392.164l-8.625-16.9c8.326-2.18 14.981-7.793 16.862-17.139 2.208-11.018-4.358-17.855-17.28-17.855h-24.174-2.686c1.492 1.314.866 4.389.866 4.389l-.269 1.314-9.043 44.848-.269 1.313s-.627 3.076-2.656 4.39h6.268c2.984 0 5.909-2.419 6.506-5.405l8.446-41.862h14.385c7.311 0 11.012 3.225 9.759 9.406-1.164 5.792-6.417 9.495-13.49 9.495h-8.267l13.102 26.096c.716 1.433 2.208 2.299 3.969 2.299h8.834 1.761c-2.418-1.313-4.029-4.389-4.029-4.389h.03zM252.9 379.653l-.925 4.599c-3.97 2.567-9.133 4.269-14.445 4.269-11.49 0-17.399-8.509-15.041-20.184 2.208-10.928 11.907-19.946 22.263-19.946 7.133 0 10.953 2.329 14.534 6.032l3.104-2.986c2.656-2.568 2.806-6.479.269-8.181-3.91-2.568-8.685-3.942-15.668-3.942-16.952 0-31.695 13.347-34.888 29.172-3.313 16.482 5.7 29.023 23.308 29.023 9.968 0 18.742-4.031 25.248-8.779l3.611-17.915h-13.28s3.253 2.299 1.94 8.808l-.03.03zm56.405-12.361c4.626-2.18 9.192-5.703 10.595-12.63 1.79-8.839-4.238-14.392-15.579-14.392h-24.323-2.686c1.492 1.314.866 4.389.866 4.389l-.269 1.314-9.102 45.146c-.597 2.986 1.343 5.405 4.327 5.405h20.622c12.535 0 21.906-5.375 23.935-15.527 1.552-7.733-2.268-11.496-8.386-13.735v.03zm-22.264-18.244h14.236c6.357 0 9.341 2.658 8.416 7.226-1.044 5.225-5.82 7.704-12.176 7.704h-13.49l3.014-14.96v.03zm8.566 38.757h-16.385l3.104-15.437h15.668c7.79 0 11.013 2.807 10.028 7.644-1.045 5.135-5.671 7.793-12.415 7.793zm-84.699-47.535h-4.476c-2.985 0-5.909 2.418-6.506 5.404l-5.432 26.992c-2.089 10.361-8.535 15.676-17.31 15.676s-13.071-5.613-10.982-16.094l5.372-26.574c.597-2.986-1.343-5.404-4.328-5.404h-6.237c1.492 1.313.865 4.389.865 4.389l-.268 1.314-5.372 26.664c-3.283 16.332 4.327 24.752 18.951 24.752s25.875-8.45 29.277-25.26l5.551-27.53s.627-3.075 2.656-4.389h-1.761v.06zm168.351 0h-10.326c-1.85 0-3.76.955-5.073 2.508l-18.832 22.424-9.639-22.394c-.687-1.583-2.209-2.508-4.059-2.508h-10.684c2.148 1.164 3.64 3.732 3.969 4.299l13.519 29.799-3.313 16.452-.268 1.314s-.627 3.076-2.656 4.389h6.327c2.984 0 5.909-2.418 6.506-5.404l3.432-17.019 25.696-29.799c.835-.836 3.103-2.986 5.461-4.061h-.06z"></path></g><path d="M121.645 88.292c5.432-27.948 44.289-18.841 51.661-16.84.209-1.582.477-3.135.716-4.658-17.22-8.271-34.47-7.226-34.47-7.226 14.594-3.613 32.351-1.941 36.29-1.523.627-2.568 1.343-5.046 2.089-7.435-9.997-2.747-54.376-9.495-70.79 14.661-35.634 52.492 67.687 124.003 85.354 124.003 0 0-82.19-42.757-70.879-100.952l.029-.03z" fill="#ed694b"></path><g fill="#002e4b"><path d="M268.239 174.315s-7.67 12.571-22.443 12.571c-19.637 0-36.648-29.023-36.648-29.023s7.67 18.453 4.536 22.513c-1.343 1.732-7.879-1.075-7.879-1.075s14.266 18.035 32.381 18.035c21.876 0 30.053-23.021 30.053-23.021zM238.186 0c-23.964 0-62.672 25.32-62.672 93.906 0 40.04 6.476 49.177 6.476 49.177s-18.533-83.306 26.472-113.642c0 0-14.415 15.019-14.415 55.358 0 0 6.774-60.942 44.139-60.942 33.396 0 55.779 40.16 55.779 75.065s-6.058 47.117-6.058 47.117 10.893-12.78 10.893-47.117C298.8 54.373 275.044.03 238.186.03V0z"></path></g><path d="M159.726 48.938c7.103-11.705 19.249-10.779 22.801-10.212 3.372-7.345 7.371-13.615 11.729-18.93-4.209-1.791-21.817-8.181-38.589 1.493-35.037 20.244-21.07 112.956 28.71 147.651 0 0-55.958-68.466-24.651-120.002z" fill="#42b38e"></path><path d="M332.344 84.261c-14.235-.717-24.77.448-30.471 1.523l.388 5.106c42.2-2.299 56.286 12.69 56.286 12.69-36.141-7.704-52.615.388-55.689 2.06v.209c43.871-9.704 69.418 14.959 69.418 30.844 0 65.032-103.172 68.615-103.172 68.615 72.88 9.466 126.032-37.831 126.032-70.824 0-35.622-42.677-49.237-62.762-50.253l-.03.03z" fill="#7ab0e0"></path><path d="M366.964 65.241c-15.907-23.439-61.091-17.766-72.879-14.899.865 2.478 1.701 4.986 2.447 7.554 6.028-.537 24.651-1.672 38.051 1.642 0 0-18.682-1.015-35.813 7.017.358 1.553.687 3.105.985 4.688 8.923-2.299 47.452-10.122 52.735 17.019 11.311 58.195-70.88 100.953-70.88 100.953 17.668 0 120.988-71.512 85.354-124.004v.03z" fill="#f07e26"></path><path d="M318.497 21.289c-16.056-9.286-35.186-3.822-40.469-1.762 4.268 5.673 8.058 12.153 11.341 19.139 3.91-.567 18.115-1.224 25.099 10.241 31.307 51.537-24.651 120.003-24.651 120.003 49.75-34.666 63.747-127.407 28.71-147.652l-.03.03z" fill="#f8df7e"></path></g><defs><clipPath id="A"><path fill="#fff" d="M0 0h475v397.509H0z"></path></clipPath></defs></svg>