<svg width="800" height="190" viewBox="0 0 800 190" fill="none" xmlns="http://www.w3.org/2000/svg">
<path d="M102.396 61.9223L102.403 61.9296C102.403 61.9296 102.413 58.2344 104.524 56.6528H102.396H96.065H90.2995C86.5236 56.6528 83.4627 59.7136 83.4627 63.4895V94.5102C83.4627 99.2549 82.3411 102.747 80.102 104.987C77.8572 107.229 74.8469 108.351 71.0709 108.351C67.2863 108.351 64.2745 107.198 62.034 104.892C59.7878 102.525 58.6719 98.9017 58.6719 94.0329V63.4895C58.6719 59.7136 55.6111 56.6528 51.8351 56.6528H46.0797H39.7403H37.6195C39.7028 58.2156 39.7389 61.8243 39.7403 61.9209V94.4179C39.7403 99.673 40.4468 104.252 41.8525 108.161C43.3317 112.001 45.4064 115.205 48.0981 117.77C50.7899 120.268 54.0612 122.122 57.8977 123.344C61.7486 124.556 66.0681 125.166 70.8763 125.166C75.6787 125.166 80.0025 124.556 83.8462 123.344C87.7519 122.122 91.0521 120.268 93.7438 117.77C96.5033 115.205 98.6141 111.968 100.09 108.063C101.627 104.091 102.396 99.3861 102.396 93.9378V61.9223Z" fill="white"/>
<path d="M240.889 115.389C238.489 111.789 231.413 99.5905 231.413 99.5905C231.413 99.5905 243.392 91.981 243.392 79.8097V79.6194C243.392 73.0206 241.403 67.7986 237.433 63.9549C235.187 61.6481 232.272 59.8545 228.688 58.5714C225.102 57.2925 220.716 56.6524 215.523 56.6524H190.056H183.715H181.596C183.679 58.2138 183.715 61.8254 183.715 61.9206V118.655C183.715 118.75 183.679 122.361 181.596 123.924H183.715H190.056H196.035H202.359H204.478C202.367 122.34 202.359 118.646 202.359 118.646V88.9389V72.7957H209.563C217.924 72.7957 224.648 76.0742 224.648 84.4925C224.648 92.9801 214.857 97.9037 210.01 98.2007L223.026 120.246C224.373 122.524 226.821 123.924 229.468 123.924H248.805C248.805 123.924 245.111 121.721 240.889 115.389Z" fill="white"/>
<path d="M176.211 118.646L176.206 118.653L151.768 60.8272C150.698 58.297 148.217 56.6519 145.47 56.6519H135.727H131.628H129.366C130.811 58.5853 129.388 61.9287 129.388 61.9287L129.401 61.9172L105.42 118.647L105.419 118.646C105.419 118.646 105.399 118.699 105.363 118.784L105.344 118.827C105.024 119.583 103.65 122.548 101.291 123.924H103.191H118.165C120.961 123.924 123.475 122.221 124.513 119.626L127.603 111.904L140.626 77.9235L148.482 98.2002H146.605C140.39 98.2002 134.82 102.044 132.617 107.856L130.75 112.782C130.75 112.782 134.666 111.022 144.233 111.022C152.688 111.022 156.755 119.555 156.755 119.555C157.774 122.188 160.309 123.924 163.13 123.924H178.432H180.338C177.626 122.339 176.211 118.646 176.211 118.646Z" fill="white"/>
<path d="M269.272 45.3238C252.388 25.8358 228.055 14.3335 203.593 7.35833C136.163 -11.3974 54.2875 5.21012 10.5075 62.8411C6.64647 67.8641 3.12571 73.2375 0 78.7378C4.01382 73.9108 8.16028 69.0968 12.5994 64.6533C60.699 15.0457 135.712 0.775309 201.715 14.9534C225.903 20.2764 250.008 29.3421 269.272 45.3238ZM31.3796 158.262C100.209 196.008 204.17 183.427 262.979 131.702C265.046 130.065 267.48 127.596 269.411 125.825C272.634 122.854 275.586 119.631 278.583 116.416C280.503 114.208 282.396 111.963 284.364 109.751C282.107 113.51 279.881 117.443 277.239 120.975C275.614 123.213 273.677 126.082 271.889 128.099C270.147 130.159 267.936 133.008 266.058 134.868C214.874 189.48 125.712 203.86 57.8659 174.54C48.4412 170.23 39.3957 164.839 31.3796 158.262Z" fill="white"/>
<path d="M348.669 49.98V49.1623L348.672 49.1661C348.672 49.1661 348.68 47.2644 349.764 46.4505H348.669H348.102C347.937 48.1758 346.429 49.5974 348.669 49.98Z" fill="white"/>
<path d="M386.272 49.98V49.1623L386.276 49.1661C386.276 49.1661 386.283 47.2644 387.367 46.4505H386.272H385.706C385.541 48.1758 384.033 49.5974 386.272 49.98Z" fill="white"/>
<path d="M318.98 49.98V49.1623L318.976 49.1661C318.976 49.1661 318.969 47.2644 317.885 46.4505H318.98H319.547C319.712 48.1758 321.219 49.5974 318.98 49.98Z" fill="white"/>
<path d="M356.031 49.98V49.1623L356.027 49.1661C356.027 49.1661 356.02 47.2644 354.936 46.4505H356.031H356.597C356.762 48.1758 358.27 49.5974 356.031 49.98Z" fill="white"/>
<path d="M383.611 46.4525H386.267V81.1475H382.801C381.766 81.1475 380.791 80.6711 380.164 79.8534L362.033 56.4634V77.8092C362.033 79.6509 360.536 81.1475 358.695 81.1475H356.035V46.4525H360.049C361.08 46.4525 362.055 46.9288 362.689 47.7465L380.273 70.4426V49.7907C380.273 47.9453 381.766 46.4525 383.611 46.4525Z" fill="white"/>
<path d="M386.272 77.6194V78.4371L386.276 78.4333C386.276 78.4333 386.283 80.335 387.367 81.1489H386.272H385.706C385.541 79.4236 384.033 78.002 386.272 77.6194Z" fill="white"/>
<path d="M400.628 49.98V49.1623L400.632 49.1661C400.632 49.1661 400.639 47.2644 401.723 46.4505H400.628H400.062C399.897 48.1758 398.389 49.5974 400.628 49.98Z" fill="white"/>
<path d="M356.031 77.6194V78.4371L356.027 78.4333C356.027 78.4333 356.02 80.335 354.936 81.1489H356.031H356.597C356.762 79.4236 358.27 78.002 356.031 77.6194Z" fill="white"/>
<path d="M478.783 49.98V49.1623L478.787 49.1661C478.787 49.1661 478.794 47.2644 479.878 46.4505H478.783H478.217C478.052 48.1758 476.544 49.5974 478.783 49.98Z" fill="white"/>
<path d="M448.542 49.98V49.1623L448.538 49.1661C448.538 49.1661 448.531 47.2644 447.447 46.4505H448.542H449.108C449.273 48.1758 450.781 49.5974 448.542 49.98Z" fill="white"/>
<path d="M511.844 48.9167L511.678 48.9204C511.678 48.9204 512.65 47.0187 511.997 46.2048H513.089H513.655C512.905 47.9339 511.844 48.9167 511.844 48.9167Z" fill="white"/>
<path d="M476.122 46.4525H478.778V81.1475H475.312C474.277 81.1475 473.302 80.6711 472.675 79.8534L454.544 56.4634V77.8092C454.544 79.6509 453.047 81.1475 451.206 81.1475H448.546V46.4525H452.56C453.591 46.4525 454.566 46.9288 455.2 47.7465L472.784 70.4426V49.7907C472.784 47.9453 474.277 46.4525 476.122 46.4525Z" fill="white"/>
<path d="M478.783 77.6194V78.4371L478.787 78.4333C478.787 78.4333 478.794 80.335 479.878 81.1489H478.783H478.217C478.052 79.4236 476.544 78.002 478.783 77.6194Z" fill="white"/>
<path d="M448.542 77.6194V78.4371L448.538 78.4333C448.538 78.4333 448.531 80.335 447.447 81.1489H448.542H449.108C449.273 79.4236 450.781 78.002 448.542 77.6194Z" fill="white"/>
<path d="M673.834 49.98V49.1623L673.837 49.1661C673.837 49.1661 673.845 47.2644 674.929 46.4505H673.834H673.267C673.102 48.1758 671.594 49.5974 673.834 49.98Z" fill="white"/>
<path d="M643.592 49.98V49.1623L643.588 49.1661C643.588 49.1661 643.581 47.2644 642.497 46.4505H643.592H644.158C644.323 48.1758 645.831 49.5974 643.592 49.98Z" fill="white"/>
<path d="M671.173 46.4525H673.828V81.1475H670.363C669.327 81.1475 668.352 80.6711 667.726 79.8534L649.594 56.4634V77.8092C649.594 79.6509 648.098 81.1475 646.256 81.1475H643.597V46.4525H647.61C648.642 46.4525 649.617 46.9288 650.251 47.7465L667.835 70.4426V49.7907C667.835 47.9453 669.327 46.4525 671.173 46.4525Z" fill="white"/>
<path d="M673.834 77.6194V78.4371L673.837 78.4333C673.837 78.4333 673.845 80.335 674.929 81.1489H673.834H673.267C673.102 79.4236 671.594 78.002 673.834 77.6194Z" fill="white"/>
<path d="M643.592 77.6194V78.4371L643.588 78.4333C643.588 78.4333 643.581 80.335 642.497 81.1489H643.592H644.158C644.323 79.4236 645.831 78.002 643.592 77.6194Z" fill="white"/>
<path d="M757.811 49.98V49.1623L757.815 49.1661C757.815 49.1661 757.822 47.2644 758.906 46.4505H757.811H757.244C757.079 48.1758 755.572 49.5974 757.811 49.98Z" fill="white"/>
<path d="M727.57 49.98V49.1623L727.566 49.1661C727.566 49.1661 727.559 47.2644 726.475 46.4505H727.57H728.136C728.301 48.1758 729.809 49.5974 727.57 49.98Z" fill="white"/>
<path d="M755.15 46.4525H757.806V81.1475H754.34C753.305 81.1475 752.33 80.6711 751.7 79.8534L733.572 56.4634V77.8092C733.572 79.6509 732.075 81.1475 730.234 81.1475H727.574V46.4525H731.588C732.619 46.4525 733.594 46.9288 734.228 47.7465L751.812 70.4426V49.7907C751.812 47.9453 753.305 46.4525 755.15 46.4525Z" fill="white"/>
<path d="M757.811 77.6194V78.4371L757.815 78.4333C757.815 78.4333 757.822 80.335 758.906 81.1489H757.811H757.244C757.079 79.4236 755.572 78.002 757.811 77.6194Z" fill="white"/>
<path d="M727.57 77.6194V78.4371L727.566 78.4333C727.566 78.4333 727.559 80.335 726.475 81.1489H727.57H728.136C728.301 79.4236 729.809 78.002 727.57 77.6194Z" fill="white"/>
<path d="M538.709 49.98V49.1623L538.705 49.1661C538.705 49.1661 538.698 47.2644 537.614 46.4505H538.709H539.276C539.441 48.1758 540.948 49.5974 538.709 49.98Z" fill="white"/>
<path d="M598.575 73.5645C598.575 73.5645 598.563 71.2314 598.563 70.7326C598.563 66.7117 596.275 65.2977 596.275 65.2977H604.471L598.575 73.5645Z" fill="white"/>
<path d="M538.709 77.6194V78.4371L538.705 78.4333C538.705 78.4333 538.698 80.335 537.614 81.1489H538.709H539.276C539.441 79.4236 540.948 78.002 538.709 77.6194Z" fill="white"/>
<path d="M498.954 78.4371L498.778 78.4333C498.778 78.4333 497.96 80.335 496.535 81.1489H497.63H498.193C499.086 79.4198 498.954 78.4371 498.954 78.4371Z" fill="white"/>
<path d="M400.628 46.4525V77.8092C400.628 79.6509 399.136 81.1475 397.29 81.1475H394.533V49.7907C394.533 47.9453 396.026 46.4525 397.871 46.4525H400.628Z" fill="white"/>
<path d="M394.531 77.6194V78.4371L394.527 78.4333C394.527 78.4333 394.52 80.335 393.436 81.1489H394.531H395.097C395.262 79.4236 396.77 78.002 394.531 77.6194Z" fill="white"/>
<path d="M719.302 49.98V49.1623L719.306 49.1661C719.306 49.1661 719.313 47.2644 720.397 46.4505H719.302H718.736C718.571 48.1758 717.063 49.5974 719.302 49.98Z" fill="white"/>
<path d="M719.302 46.4525V77.8092C719.302 79.6509 717.809 81.1475 715.964 81.1475H713.203V49.7907C713.203 47.9453 714.7 46.4525 716.545 46.4525H719.302Z" fill="white"/>
<path d="M713.205 77.6194V78.4371L713.201 78.4333C713.201 78.4333 713.194 80.335 712.11 81.1489H713.205H713.771C713.936 79.4236 715.444 78.002 713.205 77.6194Z" fill="white"/>
<path d="M690.269 77.6194V78.4371L690.265 78.4333C690.265 78.4333 690.258 80.335 689.174 81.1489H690.269H690.835C691 79.4236 692.508 78.002 690.269 77.6194Z" fill="white"/>
<path d="M422.488 43.5769L426.19 37.8494C427.082 36.4691 428.849 35.944 430.353 36.6116L433.196 37.8794L428.114 42.6692C427.491 43.2506 426.673 43.5769 425.818 43.5769H422.488ZM424.569 51.4573C417.683 51.4573 412.871 56.9635 412.871 63.7487C412.871 70.5414 417.78 76.1414 424.671 76.1414C431.557 76.1414 436.366 70.639 436.366 63.85C436.366 57.061 431.46 51.4573 424.569 51.4573ZM424.569 81.7451C413.913 81.7451 406.479 73.6659 406.479 63.85C406.479 54.0379 414.011 45.8574 424.671 45.8574C435.323 45.8574 442.761 53.9366 442.761 63.7487C442.761 73.5646 435.229 81.7451 424.569 81.7451Z" fill="white"/>
<path d="M533.773 81.1482H529.542C528.2 81.1482 526.992 80.3455 526.467 79.1153L515.586 53.4897L504.701 79.1153C504.179 80.3455 502.968 81.1482 501.625 81.1482H497.589L512.855 46.2056H516.321C517.649 46.2056 518.853 46.9896 519.385 48.2086L533.773 81.1482Z" fill="white"/>
<path d="M532.426 78.4371L532.602 78.4333C532.602 78.4333 533.42 80.335 534.845 81.1489H533.75H533.187C532.294 79.4198 532.426 78.4371 532.426 78.4371Z" fill="white"/>
<path d="M566.048 78.4371L566.224 78.4333C566.224 78.4333 567.589 80.335 569.251 81.1489H568.156H567.589C566.205 79.4198 566.048 78.4371 566.048 78.4371Z" fill="white"/>
<path d="M544.812 52.0033H553.682C558.194 52.0033 560.869 53.9875 560.869 57.8021C560.869 61.3691 558.093 63.6533 553.731 63.6533H548.634L559.972 79.7331C560.599 80.622 561.615 81.1509 562.699 81.1509H568.153L558.787 68.0118C563.648 66.6765 567.065 63.2033 567.065 57.457C567.065 50.6643 562.159 46.4521 554.177 46.4521H538.713V81.1509H541.473C543.319 81.1509 544.812 79.6543 544.812 77.8089V52.0033Z" fill="white"/>
<path d="M611.387 49.98V49.1623L611.384 49.1661C611.384 49.1661 611.376 47.2644 610.292 46.4505H611.387H611.954C612.119 48.1758 613.627 49.5974 611.387 49.98Z" fill="white"/>
<path d="M598.575 73.5646C596.444 75.1512 593.47 76.1902 590.195 76.1902C583.11 76.1902 578.403 70.939 578.403 63.7525C578.403 57.0085 583.256 51.4573 589.655 51.4573C594.062 51.4573 596.692 52.8939 599.366 55.1744L600.911 53.329C602.239 51.7499 601.845 49.3269 600.06 48.2916C597.329 46.7126 594.205 45.8574 589.899 45.8574C579.442 45.8574 572.008 54.0866 572.008 63.85C572.008 74.0109 579.145 81.7451 589.997 81.7451C596.144 81.7451 601.054 79.2658 604.471 76.3402V65.2978L598.575 73.5646Z" fill="white"/>
<path d="M633.779 51.9051H617.489V60.922H634.886V63.0375C634.886 64.8829 633.393 66.3757 631.547 66.3757H617.489V75.6965H637.365V77.8119C637.365 79.6498 635.872 81.1501 634.027 81.1501H614.733C612.887 81.1501 611.394 79.6498 611.394 77.8119V46.4514H637.117V48.5669C637.117 50.4123 635.625 51.9051 633.779 51.9051Z" fill="white"/>
<path d="M693.076 81.1482H690.27V52.1019H679.265V49.7914C679.265 47.9498 680.762 46.4532 682.607 46.4532H707.419V48.7637C707.419 50.6091 705.926 52.1019 704.081 52.1019H696.414V77.81C696.414 79.6554 694.921 81.1482 693.076 81.1482Z" fill="white"/>
<path d="M348.669 66.1295C348.669 76.4892 342.825 81.6953 333.748 81.6953C324.727 81.6953 318.981 76.4892 318.981 66.4258V46.4489H321.738C323.583 46.4489 325.076 47.9455 325.076 49.7872V66.1782C325.076 72.6259 328.396 76.0916 333.849 76.0916C339.254 76.0916 342.57 72.8209 342.57 66.4258V49.7872C342.57 47.9455 344.066 46.4489 345.912 46.4489H348.669V66.1295Z" fill="white"/>
<path d="M526.468 79.1147C522.634 71.3168 516.854 71.5981 512.079 74.3587C512.079 74.3587 513.876 67.8548 521.685 67.8548L527.221 70.9005L526.468 79.1147Z" fill="white"/>
<path d="M776.999 48.9167L776.834 48.9204C776.834 48.9204 777.805 47.0187 777.153 46.2048H778.244H778.81C778.06 47.9339 776.999 48.9167 776.999 48.9167Z" fill="white"/>
<path d="M764.109 78.4371L763.933 78.4333C763.933 78.4333 763.115 80.335 761.69 81.1489H762.785H763.348C764.24 79.4198 764.109 78.4371 764.109 78.4371Z" fill="white"/>
<path d="M798.928 81.1482H794.697C793.355 81.1482 792.147 80.3455 791.622 79.1153L780.741 53.4897L769.856 79.1153C769.334 80.3455 768.123 81.1482 766.78 81.1482H762.744L778.01 46.2056H781.476C782.803 46.2056 784.007 46.9896 784.54 48.2086L798.928 81.1482Z" fill="white"/>
<path d="M797.581 78.4371L797.757 78.4333C797.757 78.4333 798.575 80.335 800 81.1489H798.905H798.342C797.449 79.4198 797.581 78.4371 797.581 78.4371Z" fill="white"/>
<path d="M791.622 79.1147C787.789 71.3168 782.009 71.5981 777.234 74.3587C777.234 74.3587 779.031 67.8548 786.84 67.8548L792.376 70.9005L791.622 79.1147Z" fill="white"/>
<path d="M554.404 127.353V128.17L554.4 128.167C554.4 128.167 554.393 130.068 553.309 130.882H554.404H554.97C555.135 129.157 556.643 127.735 554.404 127.353Z" fill="white"/>
<path d="M401.705 127.353V128.17L401.702 128.167C401.702 128.167 401.694 130.068 400.61 130.882H401.705H402.272C402.437 129.157 403.945 127.735 401.705 127.353Z" fill="white"/>
<path d="M429.044 128.17L429.22 128.167C429.22 128.167 430.585 130.068 432.247 130.882H431.152H430.585C429.201 129.153 429.044 128.17 429.044 128.17Z" fill="white"/>
<path d="M407.808 101.736H416.678C421.191 101.736 423.865 103.72 423.865 107.535C423.865 111.102 421.089 113.386 416.727 113.386H411.63L422.968 129.466C423.595 130.355 424.611 130.884 425.695 130.884H431.149L421.783 117.745C426.644 116.409 430.061 112.936 430.061 107.19C430.061 100.397 425.155 96.185 417.173 96.185H401.709V130.884H404.469C406.315 130.884 407.808 129.387 407.808 127.542V101.736Z" fill="white"/>
<path d="M498.081 123.298C498.081 123.298 498.07 120.965 498.07 120.466C498.07 116.445 495.782 115.031 495.782 115.031H503.978L498.081 123.298Z" fill="white"/>
<path d="M498.081 123.298C495.951 124.885 492.977 125.924 489.702 125.924C482.617 125.924 477.91 120.672 477.91 113.486C477.91 106.746 482.763 101.191 489.162 101.191C493.569 101.191 496.198 102.627 498.873 104.912L500.418 103.062C501.746 101.483 501.352 99.0603 499.567 98.025C496.832 96.446 493.712 95.5908 489.406 95.5908C478.949 95.5908 471.514 103.82 471.514 113.583C471.514 123.744 478.652 131.479 489.503 131.479C495.651 131.479 500.557 128.995 503.978 126.074V115.031L498.081 123.298Z" fill="white"/>
<path d="M378.021 101.639H361.732V110.656H379.128V112.771C379.128 114.617 377.635 116.109 375.79 116.109H361.732V125.43H381.607V127.546C381.607 129.383 380.114 130.884 378.269 130.884H358.975C357.129 130.884 355.637 129.383 355.637 127.546V96.185H381.36V98.3005C381.36 100.146 379.867 101.639 378.021 101.639Z" fill="white"/>
<path d="M330.821 101.736H323.98V125.329H330.821C338.106 125.329 342.862 120.427 342.862 113.581C342.862 106.744 338.106 101.736 330.821 101.736ZM330.821 130.884H321.223C319.378 130.884 317.885 129.387 317.885 127.542V96.185H330.821C341.725 96.185 349.26 103.668 349.26 113.488C349.26 123.296 341.725 130.884 330.821 130.884Z" fill="white"/>
<path d="M533.703 120.672C533.703 117.697 531.374 115.961 526.565 115.961H516.896V125.477H527.011C531.175 125.477 533.703 123.845 533.703 120.672ZM531.771 106.051C531.771 103.223 529.588 101.588 525.672 101.588H516.896V110.807H525.226C529.142 110.807 531.771 109.273 531.771 106.051ZM537.863 105.057C537.863 109.322 535.485 111.501 532.911 112.844C536.974 114.224 539.798 116.557 539.798 121.313C539.798 127.558 534.693 130.882 526.963 130.882H514.24C512.395 130.882 510.902 129.389 510.902 127.543V96.1866H526.464C533.452 96.1866 537.863 99.6036 537.863 105.057Z" fill="white"/>
<path d="M557.211 130.882H554.405V117.199L540.625 96.1866H545.973C547.117 96.1866 548.182 96.7717 548.798 97.7394L557.526 111.554L566.359 97.7282C566.974 96.768 568.032 96.1866 569.172 96.1866H574.333L560.549 117.052V127.543C560.549 129.389 559.056 130.882 557.211 130.882Z" fill="white"/>
<path d="M465.68 115.865C465.68 126.225 459.837 131.431 450.76 131.431C441.739 131.431 435.993 126.225 435.993 116.161V96.1845H438.75C440.595 96.1845 442.088 97.6811 442.088 99.5228V115.914C442.088 122.361 445.407 125.827 450.861 125.827C456.266 125.827 459.585 122.556 459.585 116.161V99.5228C459.585 97.6811 461.078 96.1845 462.924 96.1845H465.68V115.865Z" fill="white"/>
</svg>
