<svg xmlns="http://www.w3.org/2000/svg" width="800" height="459" fill="none" xmlns:v="https://vecta.io/nano"><path d="M521.346 458.547c-22.168 0-38.388-10.284-55.558-21.176-17.354-10.996-35.28-22.354-60.607-22.354-29.697 0-42.031 11.116-46.739 17.741-2.251 3.158-5.891 5.038-9.745 5.038-3.099 0-6.04-1.181-8.285-3.322-64.713-61.781-123.386-102.335-161.213-125.483-23.891-14.611-42.526-24.252-53.953-29.769-4.654-2.245-7.334-7.199-6.663-12.328s4.538-9.233 9.62-10.209l213.336-39.49c-9.405-13.924-10.596-26.945-9.711-35.957a11.93 11.93 0 0 1 11.912-10.775 11.95 11.95 0 0 1 6.43 1.873c13.692 8.713 42.888 23.337 84.57 23.337 17.611 0 26.973-.822 36.023-1.616 8.801-.774 17.098-1.502 31.889-1.502 22.297 0 42.409 6.383 59.765 18.96 9.935 7.204 16.063 14.431 18.717 17.917 5.114 1.735 18.638 6.455 32.257 12.23 32.985 13.994 37.777 22.052 38.117 28.088.013 8.181-5.309 15.933-8.017 19.347-1.426 6.735-7.267 27.899-26.979 47.488-3.584 3.561-6.858 4.774-9.031 5.151-2.648 2.614-18.657 18.122-37.563 30.299a11.7 11.7 0 0 1-1.512.831c.375.296.731.617 1.068.961 2.176 2.216 3.347 5.176 3.287 8.325-.176 8.811-1.719 24.873-9.673 38.574 1.965 3.146 2.443 7.151.995 10.782-2.535 6.348-13.099 27.039-42.737 27.039z" fill="#fff"/><path d="M635.283 269.313l-71.341-32.232-34.401-23.812h-41.26l-37.021 1.225-56.891-5.233-46.468-15.7 11.506 21.683 6.887 9.632s-224.723 41.553-223.413 45.391c75.164 38.325 161.578 114.396 161.578 114.396l41.868 37.286 42.752-26.819 60.732 9.33 64.237 36.769 29.773-11.648-37.072-34.451 6.392-44.485 28.309-30.792 66.246 6.278 27.587-56.818z" fill="#ff9800"/><path d="M526.918 319.854c-169.989 0-194.566 84.604-194.566 84.604s10.681 4.409 13.975 17.492c0 0 3.441-21.069 54.016-21.069s78.882 40.35 113.706 40.35 29.772-11.651 29.772-11.651-41.527-2.85-41.527-50.243 39.156-59.483 39.156-59.483h-14.532zm52.706-49.586c-26.36 6.956-45.174 15.644-45.174 34.433s-3.546 13.547 69.212 13.547c14.126 0 25.122-34.6 25.122-34.6l-49.16-13.38zm-44.155 16.251s-47.076-31.779-176.063-12.546c0 0 100.84-3.706 176.063 12.546zm-3.178 6.894s-43.971-21.875-149.109-5.753c0 0 57.102-5.183 149.109 5.753zm-2.752 6.548c.419.012-43.083-14.923-129.63 1.313 0 0 29.83-2.592 129.63-1.313zm11.348-53.391s3.98-18.978-23.874-18.978c-13.087 0-28.177 2.733-37.025 4.616-1.719.365-1.669 2.831.06 3.149l60.839 11.213z" fill="#fff"/><g fill="#102a39"><path d="M586.542 301.435c1.732-.154 6.562-2.323 5.889-4.578-.41-1.376-2.047-1.889-3.448-2.195a10.16 10.16 0 0 0-2.532-.214c-2.012.095-3.983.91-4.05 3.363-.056 2.119 2.17 3.807 4.141 3.624zm6.817-11.398c4.742-1.949.765-6.827-3.06-6.691-2.006.075-4.097 1.65-3.981 3.63.196 3.31 4.44 4.132 7.041 3.061zm-19.472-3.378c-.003.86.62 1.593 1.256 2.176.907.831 1.921 1.549 3.001 2.129.731.39 1.59.727 2.365.428.545-.211.935-.705 1.149-1.238.221-.541.29-1.124.359-1.703l.328-2.913c.34-2.922-4.21-2.724-6.77-1.174-.989.595-1.682 1.395-1.688 2.295zm-2.873 8.128a3.71 3.71 0 0 0-.91 1.067c-.308.516-.516 1.102-.648 1.691-.139.595-.202 1.253.088 1.789.214.387.582.658.96.887.976.605 2.091 1.04 3.24 1.052 1.15.019 2.34-.422 3.067-1.31.595-.73.844-1.735.658-2.661-.5-2.487-4.436-4.118-6.455-2.515zm-11.745-8.387c-.246-1.218-.662-1.338-1.587-1.064-.369.107-.759.828-1.134 1.036-.605.33-1.316.324-1.962.526-.585.182-1.174.626-1.203 1.24-.037 1.046 1.351 1.524 2.803 1.383 1.7-.161 3.47-1.175 3.083-3.121zm38.249 12.204a1.66 1.66 0 0 0 .639.226c2.06.353 5.75-1.725 2.932-3.252-2.311-1.25-6.764 1.073-3.571 3.026zm-45.712 2.53c-1.029-.522-.828-1.993-2.771-1.139-3.454 1.511-.182 6.959 3.282 4.54.387-.271.781-.642 1.168-1.127 1.458-1.852-.847-1.852-1.679-2.274zm-1.463-4.776a2.58 2.58 0 0 0 .566.221c2.176.588 4.078-2.003 2.227-3.559-1.71-1.436-6.229-1.59-4.406 1.72.375.674.929 1.272 1.613 1.618zm46.224 11.984c1.055.218 2.431-.066 3.322-.79.62-.507 1.004-1.228.888-2.154l-.007-.066c-.075-.488-.658-.731-1.417-.8-.636-.053-1.395.013-2.084.164-.916.198-1.71.551-1.911.957-.775 1.571.012 2.444 1.209 2.689zm3.2-18.293c1.43.554 4.116-.104 4.396-1.404.135-.605-.164-1.257-.652-1.641s-1.137-.519-1.754-.488c-1.37.073-3.857 1.534-2.651 3.074.154.201.387.349.661.459zm-41.607 12.636c-.951-.031-1.984.787-1.78 1.716.13.592.681.986 1.184 1.32.829.541 1.865 1.53 2.941 2.075.788.4 1.591.56 2.35.126 1.246-.718 1.489-2.359.365-3.3-.866-.728-3.955-1.899-5.06-1.937zm5.943-17.694c-1.068.929-1.496 3.684-.466 4.732.494.495 1.212.69 1.908.74.919.07 1.877-.094 2.632-.62a2.74 2.74 0 0 0 .926-1.086c.189-.397.277-.841.217-1.272-.1-.756-.607-1.411-1.225-1.858-1.117-.806-2.758-1.707-3.992-.636zm-4.115 9.553c-1.269 1.788-.243 4.295 1.776 4.985 1.527.516 3.504-.627 4.062-2.208.173-.504.211-1.048.034-1.596-.724-2.349-4.443-3.193-5.872-1.181zm30.067 10.534c-1.518-1.282-4.531-1.568-6.323-.599-1.297.703-2.591 3.612-2.339 4.78a1.98 1.98 0 0 0 .255.649c.78 1.272 2.812 1.606 4.666 1.439 1.14-.101 2.211-.387 2.888-.762 1.546-.85 2.324-2.311 1.987-3.722-.161-.674-.551-1.294-1.134-1.785zm-17.807-.982c-1.424.063-2.428.759-2.762 1.915-.28.938-.157 1.845.346 2.623.454.699 1.187 1.247 2.057 1.562a5.02 5.02 0 0 0 .982.242c1.121.154 2.185-.11 2.913-.727 1.53-1.295 1.36-2.513 1.121-3.124-.617-1.587-2.91-2.57-4.657-2.491zm-31.361-57.526c-6.329-1.505-19.293-4.299-38.825-7.161 0 0 5.74 21.205 22.741 21.205 4.676 0 8.351-1.014 11.257-2.523l4.909 4.277a1.61 1.61 0 0 0 2.661-1.21v-11.197l-.025-.003c-.041-1.537-1.049-2.992-2.718-3.388zm-135.658-1.994c6.594 0 15.005-3.165 12.879-6.959-1.432-2.564-9.708-3.376-14.318-3.376-6.382 0-4.178 10.335 1.439 10.335zm-23.707 56.745c4.153.299 2.827 4.972 6.08 7.388s6.289-3.959 4.28-10.08-10.713-5.416-15.298-5.133c-6.864.425.784 7.526 4.938 7.825zm67.87 4.046c-3.341 0-6.934.838-8.319 2.085s5.545 6.619 8.319 6.099 2.862-8.184 0-8.184zm-35.73-52.683c-8.297-.466-11.1 5.284-9.821 6.748 2.717 3.114 17.693 2.05 17.926 0s-4.83-6.566-8.105-6.748zm-65.748 26.935c-.481 1.713 2.702.991 2.69 2.207-.007.79-.057 1.565-.4 2.292l-1.14 2.419c-.186.456-.403.925-.4 1.451l-.006 2.888c.012.639.034 1.288.141 1.914s.126 1.238-.034 1.842c-.158.592.075 1.257-.337 1.802-.227 1.253-1.153 1.974-2.11 2.613-.812.545-1.719.942-2.563 1.442-.992.586-1.993 1.169-2.762 2.066-.617.721-.922 1.568-.96 2.497-.01.302.173.608.233.92.214 1.105.853 1.93 1.691 2.635.746.63 1.587.967 2.588.844.315-.038.608-.044.92-.192 1.064-.504 2.072-1.077 2.972-1.845l2.34-1.899c.693-.567 1.329-1.222 2.078-1.697 1.02-.646 1.694-1.572 2.314-2.541.394-.614.737-1.269.904-2.022.092-.422.529-.882.299-1.282-7.308-12.696 2.57-10.359 6.685-14.245.624-.583.989-1.398 1.402-2.145.437-.793.434-2.204-.299-2.685-1.512-.992-4.289-1.213-5.691-1.229-4.72-.059-9.966-.144-10.555 1.95zm-13.088-12.047c-.264.504-.198 1.011-.088 1.505-.097 1.556 25.884-.33 22.641-4.395-.504-.633-1.269-.989-2.016-1.336-.447-.207-.907-.207-1.36-.305-.372-.079-.746-.164-1.124-.189-.491-.031-.986.01-1.48-.009-.92-.038-1.729-.381-2.274-1.118-.519-.702-.982-1.458-1.35-2.249-.416-.891-.948-1.675-1.663-2.333-.737-.671-1.559-1.178-2.62-1.093-.34.016-.712-.044-1.017.067-.995.362-1.864.944-2.576 1.735-1.691 1.873-2.972 4.018-4.068 6.272-.504 1.039-1.011 2.11-.979 3.322.003.044-.007.088-.026.126zm-13.446 39.372l-.006-3.795c0-.192.006-.393-.041-.576l-.734-2.617c-.286-1.023-.715-1.99-1.171-2.947-.866-1.808-1.912-3.495-3.508-4.758-.491-.387-1.096-.633-1.647-.945-.816.092-1.669-.242-2.45.246-.097.06-.249.031-.375.05l-1.01.148c-.233.029-.479.101-.696.051-1.354-.303-2.733-.136-4.198-.262-1.143.205-2.431-.167-3.652.309-.076.028-.17.009-.255.009-.706.007-1.417-.063-2.088.24-.091.041-.214.037-.318.019-.724-.133-1.408.154-2.069.318-.938.236-1.858.648-2.607 1.319-.655.582-1.112 1.326-1.335 2.151-.18.661-.41 1.347-.3 2.072.019.116-.025.258-.072.371-.286.687-.205 1.379-.072 2.082.069.355.11.714.151 1.073.022.192-.013.391.028.577l.45 1.776.303 1.231c.151.482.308.97.532 1.42.192.381.551.573 1.011.545.343-.022.689-.044 1.029.003.684.091 1.317-.126 1.927-.337 1.575-.551 3.011-1.389 4.384-2.34 1.017-.702 1.974-1.499 3.12-1.996.624-.268 1.25-.554 1.905-.718.633-.158 1.269.022 1.852.327.68.356 1.215.857 1.609 1.521.696 1.178.941 2.497 1.03 3.817.094 1.47.031 2.95-.004 4.424-.006.375-.166.743-.242 1.115-.11.538-.154 1.092-.318 1.609l-1.266 3.725c-.438 1.234-1.196 2.289-2.125 3.171-1.065 1.014-2.258 1.895-3.417 2.812-.734.582-1.275 1.316-1.779 2.087-.576.879-.737 1.924-1.118 2.882-.252.626-.356 1.316-.623 1.933-.3.69-.262 1.411-.142 2.069.151.809 1.329 1.848 2.324 1.817.828-.025 1.65.047 2.469-.255.535-.196 1.171.037 1.735-.281.336-.192.787-.17 1.143-.34l3.781-1.873c1.348-.677 2.466-1.612 3.212-2.944.227-.41.413-.841.595-1.276.583-1.363 1.077-2.752 1.288-4.229.016-.104.076-.201.098-.305l.176-.866c.029-.189-.044-.419.038-.57.287-.526.208-1.083.227-1.634.006-.17.05-.337.078-.504l.432-2.494c.025-.148 0-.312.057-.441l1.753-3.763c.444-.96.964-1.902.904-3.02-.009-.122.038-.251.076-.374.119-.419.097-.835.041-1.266a12.66 12.66 0 0 1-.12-1.593zm-83.798-31.895l-2.679-3.677c-.74-.936-1.559-1.817-2.406-2.661-.526-.526-1.175-.926-1.757-1.395l-1.83-1.509c-1.152-1.007-2.459-1.593-4.015-1.53-.236 0-.475-.025-.708.006-.249.038-.482.167-.731.196-.875.094-1.577.516-2.15 1.146a6.94 6.94 0 0 0-.854 1.19c-.485.847-.951 1.707-1.177 2.673-.089.391-.129.81-.306 1.159-.211.41-.217.816-.23 1.244-.006.233-.05.463-.078.696l-.174 1.59-.107 1.08c-.047.709-.003 1.414.303 2.06.469.998 1.306 1.703 2.163 2.323l4.32 2.882c.882.607 1.524 1.439 1.405 2.569-.07.617-.34 1.228-.599 1.804l-1.407 2.872c-.419.86-.655 1.786-.895 2.705-.062.239-.056.523.007.762.226.86.693 1.587 1.297 2.236 1.241 1.338 2.617 2.525 4.084 3.605.325.243.693.435.989.709.86.79 1.87 1.351 2.869 1.927.346.198.721.406 1.105.472.907.158 1.729-.085 2.412-.73.595-.564 1.14-1.172 1.464-1.931.224-.516.466-1.032.419-1.64-.091-1.209.176-2.444-.261-3.628.135-.906-.353-1.738-.284-2.654.066-.91-.063-1.833-.057-2.749.01-1.228.315-2.393.917-3.473.126-.224.264-.447.343-.687.154-.459.315-.926.397-1.401.088-.523.094-1.061.135-1.593.044-.595.154-1.197.11-1.789-.047-.671-.157-1.357-.371-1.993-.359-1.058-1.017-1.965-1.663-2.866zm181.126 39.4l-1.361-.45c-.778-.249-1.483-.621-1.892-1.361-.299-.541-.536-1.121-.794-1.684-.579-1.263-1.162-2.513-2.472-3.225-1.165-.636-2.371-1.111-3.722-1.114-.459.028-.903.072-1.366.192-.769.204-1.342.614-1.792 1.206-.381.507-.649 1.067-.771 1.728-.142.747-.284 1.484-.268 2.242.013.529-.025 1.04-.23 1.54-.274.677-.586 1.32-1.209 1.745l-3.13 2.131c-.797.564-1.527 1.175-1.893 2.151-.144.391-.085.762-.166 1.134-.193.866.056 1.606.642 2.257.671.747 1.467 1.351 2.056 2.205.646.935.831 1.949.979 2.988.089.642.164 1.266.485 1.836.268.472.504.976.835 1.401.828 1.071 1.861 1.807 3.303 1.713.309-.022.649.009.919-.107a5.28 5.28 0 0 0 2.671-2.475c.378-.715.721-1.467 1.341-2.031.504-.457.957-.983 1.512-1.364.57-.39 1.231-.648 1.861-.951 1.124-.538 2.238-1.092 3.057-2.081l.951-1.174c1.118-1.487 1.902-3.162 2.412-4.856.227-.753.073-1.42-.223-2.069-.341-.752-.91-1.291-1.735-1.527zm-93.874-45.035c.353-.287.661-.674.875-1.074.482-.916.391-1.933.202-2.887-.11-.548-.173-1.093-.227-1.641-.098-.938.076-1.077.942-1.464.67-.302 1.344-.236 2.015-.205.768.035 1.518-.11 2.195-.359 1.508-.545 2.796-1.423 3.593-2.916.532-.995.733-2.031.472-3.086-.233-.935-.507-1.892-1.087-2.704-.626-.876-1.404-1.528-2.478-1.817-.73-.196-1.451-.457-2.15-.75l-3.792-1.675-3.504-1.524c-.885-.359-1.786-.687-2.765-.674h-1.096-1.285c-.585-.019-1.08.205-1.511.561-.611.5-.923 1.161-.935 1.949v2.317c.003.167.012.344.069.501.435 1.222 1.143 2.295 1.927 3.309l2.636 3.146c.778.907 1.609 1.77 2.015 2.932.217.62.22 1.256.006 1.873-.343.983-1.524 1.449-2.393 1.272l-1.999-.384c-.784-.176-2.17.388-2.608 1.014-.733 1.052-1.451 2.11-1.968 3.285-.343.777-.661 1.571-.897 2.383-.189.646-.444 1.187-1.068 1.502-1.287.652-2.641 1.165-3.857 1.975-1.105.736-2.154 1.498-2.554 2.84-.104.349-.145.771-.05 1.115.331 1.24 1.297 1.801 2.466 2.034.554.107 1.136.072 1.706.085.123.003.255-.044.372-.098l1.688-.762 1.571-.718c.431-.173.875-.375 1.326-.409 1.127-.085 2.257.012 3.391-.161.743-.11 1.401-.33 2.012-.721 1.023-.652 1.631-1.65 1.952-2.768.504-1.75 1.732-2.922 3.014-4.055.538-.476 1.222-.785 1.779-1.241zm-61.117 49.134c.479-.582.712-1.272.737-1.99.022-.541-.18-1.102-.513-1.558l-1.94-2.532c-.406-.495-.879-.942-1.36-1.367-.851-.749-1.443-1.675-1.912-2.689-.318-.686-.267-1.433-.056-2.122.242-.794.796-1.411 1.429-1.94l.932-.784c.762-.693 1.483-1.42 2.069-2.277.523-.755.819-1.609.929-2.49.176-1.405-.526-2.482-1.568-3.326-.828-.667-1.701-1.281-2.771-1.549-.63-.161-1.225-.456-1.896-.441-.126.003-.252-.044-.374-.066-.293-.047-.583-.135-.876-.135-.658-.003-1.304-.016-1.965.176-.948.274-1.795.627-2.33 1.508l-.661 1.021c-.539.872-1.162 1.706-1.584 2.632-.649 1.423-1.156 2.913-1.729 4.374l-1.011 2.525c-.472 1.118-1.045 2.204-.932 3.439-.1 1.307.362 2.418 1.15 3.344 1.095 1.291 2.387 2.387 3.775 3.366.945.664 2.06 1.055 2.913 1.858.138.132.296.246.456.349l1.893 1.181c.579.299 1.209.507 1.826.725l1.628.491a.85.85 0 0 0 .384.022c.435-.088.885-.142 1.295-.306.793-.311 1.508-.762 2.062-1.439zm92.375 40.672c-.034-.057-.091-.104-.145-.145-.658-.494-1.244-1.093-2.002-1.451-.243-.114-.476-.259-.696-.41-.347-.233-.658-.529-1.021-.724-.614-.328-.96-.898-1.366-1.411-.258-.324-.432-.715-.643-1.077-.579-.611-1.231-1.102-1.977-1.423-.605-.258-1.25-.491-1.896-.567-1.042-.123-2.024.161-2.966.658-.529.281-.919.595-1.263 1.102a12.25 12.25 0 0 0-.988 1.808c-.517 1.152-.372 2.245.51 3.199l1.212 1.386a6.75 6.75 0 0 1 .721 1.203c.255.525.447 1.086.68 1.624l.945 2.11 1.256 2.639c.341.598.816 1.121 1.257 1.659.132.164.375.24.513.403.227.271.507.425.813.583 1.313.677 2.585.321 3.844-.126.454-.164.869-.435 1.294-.668.148-.078.303-.167.413-.289l.699-.866c.305-.312.472-.69.636-1.08.318-.756.472-1.55.636-2.349.23-1.118.438-2.233.469-3.376.007-.135.01-.274-.009-.406-.113-.759-.52-1.383-.926-2.006zm-38.323-9.877c-.68-.929-1.508-1.7-2.4-2.399-.929-.728-1.565-1.697-2.257-2.614-.407-.535-.699-1.168-.967-1.791a9.48 9.48 0 0 0-.879-1.625c-.941-1.386-2.264-2.006-3.892-2.088l-.642-.016-1.848-.06c-.34 0-.681.073-1.021.07-.648-.003-1.284.041-1.889.305-.094.041-.224.104-.302.073-.397-.158-.693.094-1.03.198-1.045.327-1.445 1.165-1.6 2.119-.185 1.149-.028 2.277.498 3.338.485.979.995 1.949 1.792 2.708.68.645 1.398 1.256 2.16 1.801.648.466 1.159 1.042 1.455 1.751l1.347 3.694c.284.966.614 1.905 1.121 2.764.463.784.948 1.581 1.883 1.927.756.277 1.376.794 1.959 1.313a4.74 4.74 0 0 0 3.212 1.238c.444-.05.91-.035 1.329-.167.891-.28 1.672-.771 2.238-1.537l2.208-3.073a4.43 4.43 0 0 0 .737-2.346c.031-1.379-.643-2.497-1.48-3.523l-1.732-2.06zm46.845-22.622l-.41-1.464-.384-1.792-.705-2.682c-.133-.781-.438-1.499-.662-2.239-.396-1.313-1.111-2.488-1.949-3.574-.167-.221-.352-.451-.582-.589-.835-.504-1.663-1.033-2.617-1.294-.239-.066-.538-.158-.737-.07-.557.252-1.13.199-1.703.205-.322.003-.621.01-.923.192s-.664.28-1.004.4c-.964.334-1.956.614-2.623 1.474-.063.082-.174.126-.249.201-1.039.98-1.833 2.075-1.663 3.615.016.126-.016.258.006.384.035.208.07.419.145.611.419 1.087 1.118 1.975 2.038 2.667.862.652 1.609 1.395 2.248 2.271.765 1.045 1.367 2.138 1.527 3.457.239 1.968-.069 3.851-.73 5.703-.164.453-.237.941-.328 1.417-.019.113.047.245.082.368.044.142.116.28.139.425.148.929.809 1.392 1.565 1.795.623.331 1.287.227 2.156.255.857.139 1.846-.192 2.819-.554 1.083-.403 2.084-.973 2.925-1.773 1.323-1.256 1.959-2.862 2.223-4.629.173-1.158-.201-2.279-.296-3.422-.041-.457-.192-.907-.308-1.358zm27.922 1.386c-.78-.029-1.577-.192-2.349.126-.17.069-.377.05-.642.078.079-.189.095-.28.145-.34.422-.519.677-1.108.888-1.747.412-1.25.271-2.419-.441-3.474-.62-.916-1.363-1.75-2.059-2.616l-1.32-1.568-2.689-2.765c-.567-.583-1.149-1.118-1.952-1.401-.542-.189-1.061-.208-1.565-.076-.901.236-1.597.819-2.116 1.581l-2.22 3.375c-.809 1.26-1.641 2.501-2.777 3.502-.567.501-.734 1.234-.766 1.896-.028.601.192 1.275.482 1.82.724 1.36 1.792 2.273 3.467 2.172.34-.019.687.01 1.027-.006.189-.009.377-.057.56-.098.598-.135 1.184-.33 1.789-.393.45-.051.884-.085 1.306-.271.148-.066.328-.076.498-.091.973-.088 1.842.267 2.683.686.881.441 1.776.816 2.79.728l.951-.114c-.148.186-.196.284-.274.343-.885.681-1.509 1.584-2.041 2.532-.478.847-.863 1.754-1.222 2.661l-.96 2.821c-.138.444-.23.904-.327 1.361l-.309 1.549c-.258.875-.375 1.779-.548 2.67l-.17 1.131-.094 1.341c-.013.387.17.718.466.945.255.195.519.1.73-.151l1.864-2.195 1.137-1.468 2.258-3.504 2.727-4.642c.771-1.392 1.659-2.717 2.141-4.266.214-.687.009-1.162-.353-1.635-.173-.223-.469-.488-.715-.497zm-66.25-23.726c.154.825.466 1.634.803 2.409.415.957 1.083 1.725 2.005 2.264.74.434 1.515.715 2.356.91.989.233 1.924.091 2.843-.161.954-.261 1.767-.818 2.431-1.584.844-.966 1.288-2.128 1.461-3.344.133-.932.151-1.911-.214-2.849-.252-.646-.482-1.292-1.014-1.758l-2.128-1.741c-1.156-.787-2.214-1.672-3.187-2.673-.784-.813-1.313-1.751-1.332-2.888-.01-.554-.01-1.124.246-1.681.384-.847.932-1.562 1.489-2.293.526-.689 1.115-1.357 1.354-2.232.11-.406.318-.784.425-1.191.139-.525.22-1.07.318-1.609.047-.252.038-.519.126-.755.343-.926 0-1.779-.299-2.608-.318-.872-1.008-1.398-1.886-1.706-.343-.12-.671-.334-1.039-.23-.444.126-.901.271-1.295.504-.843.497-1.483 1.243-2.012 2.046-.875 1.332-1.634 2.737-2.267 4.207l-2.103 4.799c-.507 1.216-.995 2.45-.936 3.921-.044.45.101.973.227 1.52.249 1.074.753 2.006 1.423 2.834.649.8 1.08 1.691 1.389 2.649a27.13 27.13 0 0 1 .816 3.24zm-43.891-1.589l-.198-2.68-.186-1.845-.148-1.005c-.054-1.171.135-2.358-.252-3.508-.032-.097-.019-.214-.01-.321.06-.661-.217-1.222-.585-1.719-.586-.781-1.339-1.386-2.245-1.767-1.011-.425-2.047-.768-3.162-.796-.129-.003-.252-.048-.381-.066l-1.256-.18c-.514-.031-1.027-.006-1.54-.006s-1.033.041-1.543-.013c-.642-.063-1.222.192-1.798.353-.812.227-1.445.809-1.861 1.581l-.904 1.621c-.286.485-.318.973-.06 1.461l1.175 2.129 4.267 7.809c.554 1.209 1.036 2.459 1.445 3.725l.538 1.553c.13.296.309.497.602.623 1.077.463 2.154.901 3.36.872.163-.006.33.057.497.089l.939.157c.56.06 1.092-.11 1.64-.211.397-.072.639-.242.794-.548.425-.863 1.114-1.637.944-2.711-.015-.101.041-.211.048-.318l.063-1.083-.12-2.368-.063-.828zm56.528 37.228c-.236-.768-.387-1.549-.498-2.349-.113-.821-.27-1.634-.255-2.468 0-.082-.06-.161-.075-.246l-.158-.872c-.041-.252-.019-.526-.107-.756-.214-.554-.258-1.146-.434-1.713-.331-1.055-.756-2.025-1.414-2.906-.929-1.247-2.119-1.949-3.706-1.886-.281.009-.564-.032-.835.006-.419.06-.859.094-1.234.264-.787.362-1.549.759-2.261 1.288-.898.668-1.562 1.518-2.195 2.4-.91 1.262-1.241 2.749-1.379 4.254-.069.718.148 1.473.293 2.201.078.387.318.74.425 1.121.327 1.174.992 2.176 1.656 3.161l2.104 2.825c.733 1.017 1.779 1.6 2.903 2.006.604.217 1.297.182 1.952.261 1.02-.006 1.99-.189 2.919-.595s1.754-.954 2.381-1.776c.592-.768.689-1.628.466-2.529-.145-.573-.375-1.124-.548-1.691zm39.413 2.853c-.558-.608-1.2-1.099-1.893-1.521-1.083-.655-1.407-1.669-1.36-2.834.022-.523.189-1.042.318-1.555l.45-1.575.485-1.905c.236-1.061-.321-2.157-1.212-2.67-.35-.205-.813-.328-1.213-.299-.444.031-.897.233-1.303.441-1.383.702-2.456 1.757-3.385 2.988-1.194 1.581-2.164 3.246-2.626 5.208-.164.696-.287 1.367-.278 2.154-.129 1.061.293 2.047.895 2.976a8.74 8.74 0 0 1 .995 2.068l.437 1.449c.193.519.448 1.014.375 1.596-.012.123.01.262.047.378.303.945.769 1.773 1.493 2.482.674.658 1.505.884 2.355.973 1.121.116 2.22-.045 3.313-.444 1.039-.381 1.644-1.251 2.491-1.833.047-.032.06-.11.091-.167.176-.293.387-.573.516-.885.224-.551.514-1.111.558-1.684.072-.948.126-1.899-.17-2.856-.293-.945-.715-1.761-1.379-2.485zm-33.024 31.711c-.148-.497-.494-.853-.935-1.092-1.165-.63-2.428-.932-3.738-1.062l-2.755-.22a5.51 5.51 0 0 1-2.019-.586l-2.295-1.114c-1.118-.542-2.267-.586-3.432-.202-.583.189-1.147.406-1.622.847-.428.4-.721.882-1.071 1.335-.374.482-.582.986-.623 1.565-.082 1.25.453 2.308 1.099 3.316.182.287.447.52.715.822.491.497.91 1.137 1.675 1.461.409.176.793.469 1.221.658.328.145.655.318.926.542l2.469 2.002c.809.558 1.707.715 2.626.58.765-.11 1.524-.293 2.239-.668.309-.164.608-.403.942-.488.421-.107.714-.359 1.023-.627.126-.113.283-.188.425-.28.321-.208.683-.371.954-.63.671-.645 1.461-1.143 1.956-1.999.462-.803.859-1.565.664-2.503-.117-.558-.28-1.109-.444-1.657zm-48.601-49.331c-1.092-1.043-2.33-1.868-3.687-2.507-1.042-.485-2.116-.882-3.3-.816-.545.035-1.071.035-1.622.215-.796.251-1.439.689-1.93 1.281-.91 1.099-1.338 2.368-.916 3.813.107.363.129.715-.07 1.058-.053.092-.097.199-.097.303-.01.545-.262 1.017-.473 1.495l-1.363 3.027c-.202.484-.205.998.113 1.47.46.687 1.156.926 1.918.976l3.842.186c.148.006.289.069.437.091.356.057.715.145 1.071.151 1.133.029 2.223-.223 3.319-.478.8-.186 1.48-.586 2.062-1.096.882-.771 1.726-1.59 2.208-2.717.22-.511.33-1.055.544-1.547.375-.875.079-1.662-.195-2.412-.362-.988-1.096-1.763-1.861-2.493zm48.889-8.857c.488-1.25.051-2.645-1.008-3.237-.954-.532-1.968-.885-3.063-.97-.148-.009-.3-.031-.441-.078-.951-.325-1.921-.318-2.91-.255-.563.034-1.086.286-1.625.308-.85.032-1.612.343-2.364.639a9.7 9.7 0 0 0-3.357 2.173c-.813.809-1.417 1.701-1.345 2.998-.097.683.148 1.382.444 2.072.425.992 1.049 1.839 1.751 2.657 1.005 1.169 2.144 2.142 3.498 2.863.315.167.659.318 1.005.375.699.116 1.319-.057 1.732-.696.116-.18.205-.378.334-.548.267-.353.437-.775.862-1.014 1.291-.734 2.409-1.679 3.452-2.743 1.3-1.332 2.355-2.799 3.035-4.544zm-17.42 52.305c.863.076 1.688-.11 2.49-.475.945-.429 1.78-1.018 2.592-1.644.387-.296.737-.63.907-1.121.082-.233.271-.428.412-.639l.577-.847c.085-.12.16-.252.27-.344l1.786-1.451c.469-.394 1.001-.756 1.348-1.247.488-.693.425-1.527.226-2.334-.151-.62-.548-1.102-.888-1.621-.598-.926-1.341-1.704-2.245-2.327-.135-.092-.315-.123-.478-.158s-.35-.009-.511-.06c-1.039-.33-2.094-.182-3.092.073-1.675.428-3.205 1.218-4.49 2.396-.608.558-1.137 1.175-1.552 1.924-.363.658-.637 1.323-.898 2.019-.227.61-.34 1.228-.371 1.854-.063 1.285.198 2.494.843 3.631.501.878 1.062 1.653 2.063 1.999.337.13.664.341 1.011.372zm110.189-52.944c-.322-.009-.643 0-1.065 0-.765.051-1.618-.038-2.49.252l-2.148.721c-.897.359-1.697.891-2.469 1.455-.932.683-1.511 1.593-1.618 2.777-.047.485.132.913.239 1.37.145.598.409 1.146.775 1.587.903 1.093 1.952 2.044 3.287 2.61.387.164.784.369 1.19.404.769.066 1.543.025 2.315.015.148 0 .296-.037.438-.085.497-.16.979-.387 1.486-.491.847-.176 1.533-.608 2.166-1.159 1.263-1.102 2.031-2.582 2.979-3.92.198-.277.296-.665.324-1.008.101-1.237-.538-2.223-1.385-2.969-1.118-.989-2.497-1.521-4.024-1.559zm-92.726 23.464c-.74.516-1.357 1.158-1.917 1.876-.873 1.124-1.361 2.346-1.26 3.776.029.444.035.903.17 1.319.388 1.19 1.146 2.129 2.151 2.875 1.102.816 2.251 1.48 3.703 1.304.583-.038 1.149 0 1.748-.202.834-.28 1.549-.702 2.21-1.237 1.307-1.058 1.899-2.516 2.211-4.116.015-.085.009-.173.009-.258a16.32 16.32 0 0 0-.497-4.295c-.233-.907-.788-1.549-1.591-1.984-.796-.435-1.672-.608-2.569-.639-.951-.032-1.858.208-2.708.623-.57.284-1.137.592-1.66.958zm-70.099-21.419c-.894-.57-1.836-1.08-2.803-1.512-.844-.374-1.725-.718-2.635-.62-.164 0-.274.013-.378-.003-.809-.12-1.272.274-1.515 1.052-.198.639-.305 1.31-.422 1.974-.138.768-.551 1.354-1.221 1.703-.813.422-1.691.671-2.624.677-.277.004-.557.023-.834-.003-.941-.088-1.505.479-1.999 1.153-.092.129-.12.315-.145.478-.123.807.337 1.417.806 1.946.349.397.828.81 1.417.791 1.492-.044 2.997.217 4.471-.221.161-.047.34-.019.513-.025.548-.012 1.112.085 1.622-.242.095-.06.249-.013.375-.029l2.138-.267c.022-.003.044-.01.063-.022.349-.255.752-.265 1.165-.262.142 0 .293-.053.428-.11.52-.211 1.033-.214 1.549.016.328.148.643.123.989-.006.781-.29 1.206-.901 1.594-1.584.529-.948.374-1.811-.167-2.699-.586-.97-1.474-1.603-2.387-2.185zm13.392-1.293c.393.922 1.187 1.366 2.144 1.329 1.08-.044 2.123.097 3.13.418.658.208 1.313.252 1.962.18.668-.076 1.26-.409 1.615-1.023.608-1.049.945-2.176.885-3.499.029-.504-.104-1.077-.208-1.666-.173-.963-.623-1.763-1.143-2.541-.192-.293-.494-.535-.787-.74-.62-.425-1.37-.459-2.075-.532-1.508-.154-2.699.517-3.722 1.587-.787.822-1.275 1.814-1.77 2.809-.374.752-.396 1.565-.315 2.377.045.441.114.898.284 1.301zm51.941-26.476c1.165-.481 1.974-1.398 2.739-2.349.293-.362.447-.803.52-1.284.072-.492.034-.951-.013-1.439a2.62 2.62 0 0 0-1.08-1.931c-.299-.226-.724-.362-1.102-.381-.284-.015-.589.205-.872.35-1.021.523-1.883 1.247-2.652 2.091-.652.718-.948 1.596-1.102 2.487.038.536.359 1.691.721 2.126.403.482.98.648 1.521.699.428.041.894-.195 1.32-.369zm6.501 40.206c-.114-.831-1.002-1.735-1.833-1.82-.731-.078-1.442.003-2.075.425-.246.164-.539.306-.709.533-.519.692-.837 1.476-.913 2.383l.334 1.282c.227.913.652 1.713 1.411 2.286.431.321.925.551 1.492.378 1.014-.315 2.22-1.886 2.293-2.96.022-.293.116-.586.132-.879.016-.378-.003-.755-.025-1.13-.013-.167-.085-.331-.107-.498zm-2.475-80.139c.715.491 1.511.774 2.421.812l1.266-.384c.901-.265 1.685-.721 2.227-1.505.302-.441.513-.945.314-1.505-.355-1.002-1.977-2.138-3.051-2.17-.296-.009-.589-.091-.885-.094-.374 0-.752.034-1.127.072-.167.019-.327.098-.491.126-.825.148-1.691 1.074-1.745 1.908-.047.731.063 1.439.51 2.053.177.24.328.526.561.687zm-42.224 61.56c.104.724.312 1.414.979 1.854.268.177.532.369.768.583.388.359.926.264 1.358.491.047.025.129.007.189-.016.806-.311 1.344-.891 1.618-1.7.161-.482.265-.979.384-1.47.029-.117.048-.246.032-.366l-.151-.995c-.048-.267-.082-.548-.183-.796-.579-1.392-1.82-1.858-3.149-2.098-.469-.085-.992.117-1.256.605-.334.614-.564 1.266-.558 1.981v.771h-.041c0 .384-.044.778.01 1.156zm72.93-68.088c.46.683.828 1.388.712 2.258-.035.251.009.513-.01.768-.041.564.18.916.712 1.149.283.123.542.214.85.208.318-.006.668-.063.954.038.769.264 1.291-.073 1.698-.633.469-.646.768-1.351.173-2.1l-.945-1.115c-.447-.438-.809-.913-1.052-1.499-.308-.743-.85-1.335-1.458-1.845-.393-.331-.84-.602-1.303-.523-.186 0-.271-.003-.356 0-1.061.022-1.512.806-.976 1.735l1.001 1.559zm55.223 67.868c.403-.903.775-1.81.318-2.821-.082-.183.003-.431-.05-.636-.123-.488-.205-1.008-.441-1.439-.413-.756-1.124-1.008-1.984-.951l-1.294.258c-.658.189-1.02.724-1.401 1.25-.523.731-.693 1.452-.107 2.22.283.372.623.709.866 1.102.415.684 1.029 1.147 1.669 1.572.343.226.793.475 1.161.431.542-.066 1.021-.438 1.263-.986zm-167.615-45.379c-.227-1.074-.86-1.943-1.461-2.812-.362-.523-1.049-.529-1.587-.173-.822.541-1.373 1.338-1.981 2.072-.629.759-.548 1.609-.022 2.412.696 1.064 1.609 1.826 2.856 2.22.441.138.756.189 1.197-.003.434-.189.743-.473.885-.86.198-.529.274-1.108.409-1.713l-.296-1.143zm73.497 26.197c-.875.816-.743 1.59.252 2.233.853.554 1.867.664 2.825.891.799.186 1.646.17 2.472.242a4.76 4.76 0 0 0 2.698-.598c.34-.189.573-.444.567-.86-.003-.377-.271-.601-.548-.73l-2.812-1.181c-.693-.249-1.389-.482-2.129-.601-.966-.158-1.902-.192-2.802.239-.189.088-.369.22-.523.365zm5.546 75.203c-.384-.545-.91-.91-1.527-1.102-.667-.208-1.31-.066-1.867.353-.306.226-.567.519-.869.752-.309.233-.41.535-.394.898.032.762.252 1.423 1.001 1.788a1.65 1.65 0 0 1 .319.211 1.53 1.53 0 0 0 2.034-.009l.481-.425.574-.514c.488-.5.598-1.458.248-1.952zm-42.234-48.941a.81.81 0 0 0 .035.67c.217.356.503.677.803.973.242.236.538.419.818.614.362.252 1.102.17 1.408-.163.598-.649.796-1.433.778-2.299-.007-.387-.17-.674-.422-.96-.34-.391-.769-.303-1.191-.315-1.111-.07-1.769.579-2.229 1.48zm79.894 16.657c-.368.022-.762.261-1.073.501-.372.28-.725.658-.583 1.19.195.737 1.074 1.924 2.147 1.754h.265c.561.006 1.093-.425 1.165-.961.117-.85-.157-1.58-.822-2.1-.296-.23-.737-.406-1.099-.384zm-5.276-22.871c4.156-1.832 1.53-5.608 0-5.296s-6.827.526-7.879 2.305c-2.188 3.709 3.722 4.824 7.879 2.991zm-14.861-21.949c-1.767 1.13-.803 4.339 1.662 3.274s2.837-3.274 1.66-4.014-1.691-.303-3.322.74zm36.921 21.339c-2.041.63-4.711 1.461-4.018 3.096s4.449.293 5.942-.995-.731-2.469-1.924-2.101z"/><path d="M603.662 318.247c-74.461 0-69.212-13.543-69.212-13.543s-8.71 3.076-8.71 11.109c0 1.483.466 2.793 1.26 3.967-11.308 10.058-36.253 34.619-36.253 55.673 0 35.456 36.747 51.402 36.747 51.402-39.477 0-71.612-45.278-128.354-45.278-34.984 0-52.146 26.451-52.146 26.451-11.654-12.722-22.924-24.288-33.772-34.877.555-.989.866-2.091.91-3.319.045-1.326-.585-2.324-1.508-3.118-1.19-1.026-2.598-1.684-4.131-2.087-.435-.114-.901-.117-1.294-.268-.507-.198-.995-.201-1.506-.183-.384 0-.78-.056-1.152.016-.167.032-.331.088-.494.136l-2.734-2.582c.23-.004.46-.016.687.003.397.034.689-.133.97-.394.419-.384.689-.809.601-1.404-.022-.167-.003-.344-.003-.514.016-.003.031-.003.047-.006-.053-.507-.044-1.03-.17-1.521-.324-1.253-.989-2.355-1.694-3.426-.255-.393-.554-.759-1.036-.919-.535-.177-1.055-.416-1.603-.548-.57-.142-1.146.022-1.514.466-.375.453-.507 1.011-.139 1.6.236.371.422.78.58 1.193.248.652.491 1.297.579 2.009.053.431.198.853.334 1.275l-5.429-5.016c.003-.057.003-.113.003-.17.013-.598-.05-1.2.211-1.77.06-.129.06-.299.044-.444-.088-.73.268-1.363.454-2.031.233-.834.721-1.536 1.278-2.185.567-.658.62-1.464.4-2.176-.233-.756-.708-1.455-1.178-2.106-.488-.674-1.149-1.194-1.851-1.657-1.068-.708-2.1-1.404-3.473-1.442-.992-.028-1.968-.019-2.875.353-1.379.57-2.604 1.335-3.178 2.865a3.26 3.26 0 0 0-.163 1.559c-27.351-23.95-50.839-40.784-68.992-52.281-.356-.507-.715-1.011-1.093-1.499l-2.453-3.123c-.604-.781-.916-1.717-.998-2.658-.069-.806.11-1.656.293-2.459.157-.674.406-1.326.472-2.022.01-.082.016-.186.066-.242.23-.252.177-.558.189-.854.01-.192.003-.4.076-.567.286-.658-.006-1.275-.202-1.848-.252-.727-.79-1.294-1.423-1.779-.778-.598-1.562-1.216-2.214-1.943-1.24-1.385-2.295-2.925-3.218-4.541-.482-.847-.944-1.716-.881-2.745.003-.085-.007-.177-.035-.255-.082-.224-.095-.451-.126-.677L245.893 258c-.157.327-.327.661-.57.919-.774.834-1.59 1.628-2.406 2.418-1.105 1.074-2.185 2.142-2.623 3.707-.179.648-.239 1.303-.085 1.889.252.963.785 1.845 1.499 2.563 1.225 1.228 2.453 2.456 3.388 3.93.303.475.574 1.011.696 1.555.117.529.026 1.109.026 1.663h-.041l.003 1.672c0 .126.016.265.069.375.312.63.617 1.269 1.178 1.725.497.407 1.001.8 1.508 1.191.627.485 1.304.913 1.877 1.451.686.646 1.354 1.298 2.122 1.852 1.578 1.14 3.294 1.801 5.259 1.618.916-.088 1.804-.337 2.453-1.07.466-.526.913-1.068 1.36-1.616.649-.796 1.263-1.628 1.524-2.635.11-.419.126-.923 0-1.332-.271-.879-.907-1.477-1.776-1.805-.812-.302-1.637-.573-2.44-.9-1.036-.425-1.968-1.03-2.752-1.839-.284-.293-.589-.583-.781-.932-.561-1.014-.913-2.094-.857-3.278.022-.535 0-1.074.007-1.609 0-.192-.019-.403.053-.57.192-.447.211-.913.227-1.382.006-.148.006-.309.063-.441.437-1.058.189-2.069-.274-3.023s-1.036-1.861-1.54-2.796c-.161-.296-.239-.637-.394-.939a2.99 2.99 0 0 1-.333-1.662c.015-.164-.01-.347-.06-.501-.164-.485-.466-.869-.813-1.209l2.384-.432c.117.063.233.123.328.211.796.75 1.813.983 2.827 1.241.51.129 1.074-.025 1.549.315.089.063.249.025.378.025l1.093.003c.343 0 .686.01 1.03-.003.208-.009.456.016.62-.085.797-.485 1.685-.866 2.135-1.776.091-.186.274-.327.419-.485l1.464-1.596 4.528-.822-.028.041-1.43 1.965c-.214.315-.312.711-.535 1.017-.551.743-.576 1.565-.485 2.431.035.352.022.733-.069 1.07-.095.347-.12.665-.048 1.008.155.715.252 1.433.095 2.163-.022.101-.013.211-.01.318.026 1.2.019 2.4.095 3.596.044.734-.136 1.42-.403 2.053-.441 1.055-.961 2.094-1.571 3.061-.844 1.326-1.512 2.705-1.833 4.245-.022.104-.016.211-.025.318-.057.5.097.963.239 1.436.324 1.073 1.134 1.703 2.242 1.713.557.003 1.149-.085 1.659.075 1.077.34 2.032.085 3.02-.299 1.742-.68 2.929-1.987 3.877-3.495.683-1.087 1.146-2.296 1.511-3.555.334-1.146.513-2.305.705-3.47.129-.775.158-1.568.287-2.346.11-.671.047-1.316-.091-1.968-.048-.23-.101-.463-.101-.693-.003-.601-.029-1.193-.277-1.757-.054-.123-.013-.287-.019-.432-.022-.425.053-.884-.085-1.269-.441-1.215-.532-2.459-.479-3.728.013-.293.085-.585.139-.875l.444-2.308c.019-.532-.101-1.03-.274-1.505l8.442-1.531c-.01.101-.028.199-.041.299-.035.255-.082.507-.085.762l-.01 2.51c-.006.479.171.872.463 1.231.152.183.277.388.451.542.563.513 1.086 1.077 1.842 1.344.349.123.67.366.957.608.359.302.655.671 1.127.828.164.054.287.224.466.372-.337.346-.661.63-.919.967-.224.299-.482.639-.535.991-.148.967-.218 1.95-.278 2.929-.037.614-.006 1.234-.009 1.851 0 .108.006.221-.035.318-.258.649-.507 1.304-.799 1.937-.29.617-.618 1.215-.945 1.814a5.71 5.71 0 0 0-.642 2.047c-.117.96.192 1.867.765 2.648 1.521 2.069 1.379 1.392 1.42 3.996.006.554.085 1.136.368 1.662.366.68.935 1.09 1.603 1.42.989.489 1.94 1.074 3.099 1.046.044-.003.088.003.125.022.608.28 1.257.223 1.899.227.923.003 1.849.037 2.768-.013.608-.035 1.238-.12 1.808-.318 1.054-.368 1.879-1.086 2.544-1.981.088-.113.157-.264.173-.403.069-.727-.085-1.401-.557-1.971l-2.73-3.234c-1.128-1.262-2.28-2.503-3.455-3.719-.913-.941-1.754-1.917-2.358-3.095-.381-.746-.192-1.385.563-1.704 1.106-.466 2.296-.516 3.401-.248 1.209.293 2.327-.044 3.483-.11.041-.004.085-.029.116-.054.649-.507 1.285-1.02 1.206-1.978-.018-.214 0-.428-.003-.642-.022-.828-.365-1.489-1.064-1.933a27.24 27.24 0 0 0-1.886-1.093c-.501-.261-.957-.668-1.594-.576-.094.016-.198-.076-.302-.098-.267-.063-.535-.116-.803-.167s-.545-.085-.806-.157c-.403-.113-.79-.164-1.187.028-.488.24-1.008.132-1.512.079-.097-.01-.185-.145-.318-.261.353-.246.709-.177 1.03-.152.495.032.879-.119 1.194-.491.192-.227.406-.441.595-.674.075-.094.17-.223.163-.33-.056-.781-.107-1.568-.22-2.343-.066-.479-.258-.942-.359-1.417-.116-.554-.183-1.121-.296-1.675-.079-.391-.192-.778-.309-1.159-.135-.444-.299-.882-.434-1.326a.44.44 0 0 1 .031-.308 3.21 3.21 0 0 1 .419-.589l8.002-1.452c.21.24.377.501.387.747l.038 1.864c-.004.535.012 1.077-.073 1.599-.091.558-.327 1.09-.428 1.647-.129.705-.299 1.395-.564 2.063-.047.116-.078.248-.082.371-.009.495-.053.995.007 1.48.075.592.368 1.124.932 1.37.538.233 1.102.45 1.729.365.377-.053.771-.016 1.155-.009.702.009 1.225-.325 1.641-.85.579-.737.664-1.641.825-2.516.022-.12.012-.274-.044-.378-.344-.671-.148-1.395-.237-2.088-.078-.62.177-1.118.681-1.493.513-.381.985-.821 1.53-1.149.664-.4 1.045-.998 1.389-1.64a5.06 5.06 0 0 0 .573-1.732c.066-.466.075-.92.05-1.376l47.674-8.653a42.07 42.07 0 0 0-1.697 2.317c-.57.835-.879 1.823-.91 2.818-.066 2.205.003 4.409-.038 6.61-.016.904.381 1.54 1.077 1.977.623.391 1.316.68 2 .961 1.098.453 2.219.847 3.318 1.3.75.306 1.465.693 2.214 1.002.624.258 1.275.45 1.915.673.818.284 1.473.819 1.92 1.531.662 1.042 1.21 2.147 2.05 3.079.696.772 1.477 1.411 2.368 1.934 1.672.979 3.508 1.499 5.379 1.87.664.132.862.545 1.061 1.039.126.312.167.662.321.954.381.728 1.036 1.216 1.811 1.266 1.045.073 2.09.145 3.155-.217 1.146-.394 2.109-1.017 3.004-1.773.743-.626 1.307-1.433 1.722-2.298.347-.718.809-1.405.876-2.249.012-.163.229-.343.39-.463.557-.425 1.219-.293 1.852-.299l2.361-.009c.082 0 .17-.029.243-.066.39-.221.796-.416 1.158-.677.744-.539 1.115-1.313 1.266-2.205.032-.192-.012-.418.082-.566.274-.435.214-.904.217-1.37.004-.472-.04-.951.01-1.417.085-.75-.101-1.461-.356-2.126-.686-1.779-1.839-3.221-3.432-4.282-.677-.45-1.392-.841-2.094-1.25-1.033-.602-1.767-1.905-1.291-3.159.053-.138.066-.289.088-.437.116-.797.142-1.622.378-2.384.204-.658.204-1.297.22-1.955-.016-.655-.009-1.291-.245-1.946-.416-1.15-1.049-2.135-1.852-3.03-.34-.384-.724-.73-1.086-1.095-.643-.646-1.417-1.096-2.208-1.524-.277-.152-.582-.256-.884-.359-.331-.117-.671-.218-1.005-.325-9.122-6.65-15.559-16.317-18.487-21.305-.545-.926.453-1.984 1.411-1.496 8.234 4.201 31.907 14.539 65.521 14.539 31.615 0 45.442-3.115 72.056-3.115 35.595 0 51.869 24.102 51.869 24.102s43.715 15.231 48.193 22.823l-26.277 5.577 37.811 20.618s-4.811 20.311-13.773 27.361zm-408.96-48.439c.689 1.24 1.467 2.396 2.491 3.388l4.301 4.248c.46.469.897.982 1.244 1.54.346.548.686 1.127.611 1.845-.07.627.072 1.256-.236 1.88-.218.437-.23.973-.35 1.461-.088.368-.208.73-.299 1.099-.044.176-.095.356-.145.535l-6.018-3.432c.019-.117.048-.224.048-.35 0-.255.009-.513.056-.765.073-.39.18-.778.271-1.168.114-.964-.302-1.7-.954-2.302-.485-.444-1.039-.815-1.581-1.19-.163-.11-.39-.145-.595-.18-1.058-.189-2.349.961-2.616 1.72a1.27 1.27 0 0 0-.048.623c.051.268.142.529.24.784l-6.714-3.454c-.003-.315.06-.633.224-.957.343-.665.601-1.376.926-2.05.289-.599.327-1.238.097-1.811-.312-.781-.321-1.543-.22-2.299l7.129-1.294c.863.542 1.621 1.197 2.138 2.129zm177.641-34.761c.592.268 1.215.473 1.826.696a.66.66 0 0 0 .381.01c.384-.114.784-.208 1.134-.397.733-.391 1.429-.853 2.16-1.253.072-.038.154-.057.226-.095l1.622-.293c.457.211.916.426 1.335.696.435.277.775.658.986 1.153.4.932.343 1.927.129 2.831-.23.951-.057 1.779.252 2.607.368.976 1.086 1.672 2.053 2.106.387.174.784.35 1.137.58.507.334.588.664.324 1.212-.435.901-.863 1.811-1.351 2.686-.504.898-.482 1.754.104 2.57.438.604.97 1.14 1.423 1.735.284.371.551.771.718 1.199.107.278.136.703-.006.933-.353.576-.749 1.158-1.423 1.432-.523.211-.995.488-1.364.923-.378.447-.856.762-1.36 1.058-.611.356-1.247.186-1.877.17-.085 0-.211-.098-.249-.18-.144-.327-.362-.661-.374-.998-.035-1.228-.665-2.037-1.701-2.566-.718-.365-1.473-.655-2.204-.998-1.023-.479-1.565-1.263-1.527-2.425.009-.268-.091-.538-.142-.809l-.107-.561c-.022-.148-.009-.308-.066-.441-.453-1.042-1.499-1.457-2.535-1.139-.762.233-1.555.349-2.362.39-.84.041-1.445-.309-1.898-.967a1.25 1.25 0 0 1-.205-.579c-.063-.68.381-1.178.734-1.663.727-1.004 1.483-1.971 1.826-3.199.189-.674.469-1.316.438-2.037-.01-.186.069-.378.082-.567.018-.315.028-.63.015-.942-.009-.188-.094-.377-.097-.566-.025-.759-.397-1.339-.939-1.786l2.882-.526zm236.949 16.138c-16.569-7.031-33.299-12.551-33.466-12.605l-1.297-.431-.756-1.134c-.057-.085-5.876-8.697-17.561-17.167-15.578-11.289-33.665-17.017-53.755-17.017-14.318 0-22.426.712-31.01 1.464-9.302.819-18.918 1.663-36.999 1.663-44.988 0-76.622-16.311-90.269-24.996-1.001-.636-2.33-.009-2.447 1.172-.831 8.426.63 22.24 14 36.716l4.875 5.274-7.066 1.288-224.103 41.455c-1.514.293-1.798 2.343-.406 3.013 12.237 5.911 31.073 15.71 54.938 30.305 38.599 23.613 97.842 64.628 163.185 127.004.708.677 1.848.588 2.418-.211 6.087-8.578 21.116-22.146 55.275-22.146 28.381 0 47.637 12.202 66.256 24.004 15.892 10.073 30.906 19.589 50.073 19.589 21.359 0 30.334-13.481 33.142-20.531a1.58 1.58 0 0 0-.825-2.034c-1.42-.643-3.12-1.445-5.006-2.412 1.111-1.543 2.39-3.089 2.39-3.089 9.553-12.35 11.225-29.452 11.399-38.25.025-1.3-1.726-1.728-2.287-.557-8.986 18.711-25.852 28.343-25.852 28.343 7-10.826 4.912-22.955 3.187-28.916-.315-1.083-1.817-1.137-2.245-.095-6.081 14.769-14.828 20.153-14.828 20.153l-4.116-5.01c-3.744-6.105-6.172-13.08-6.172-20.946 0-22.684 22.836-41.386 32.179-48.086 4.669.919 9.897 1.451 15.08 1.738-.416 1.958.242 3.841.242 3.841v2.702c0 4.73-1.672 9.869-2.995 13.188-.466 1.171.841 2.254 1.896 1.568 9.812-6.367 18.049-17.631 18.049-17.631-1.492 11.623-7.891 23-11.987 29.288-.747 1.143.614 2.5 1.76 1.76 19.372-12.479 36.007-29.058 36.007-29.058a36.49 36.49 0 0 0 2.321-2.724l2.982-.107.139.041c.368-.056 1.605-.393 3.514-2.292 20.855-20.726 24.391-43.366 24.422-43.584l.17-1.168.781-.885c1.842-2.094 6.622-8.574 6.622-13.345 0-.059-.686-5.916-31.854-19.142zm61.847-221.117l22.376.759c8.288.315 14.988-5.432 15.999-13.82l1.896-15.7-83.53-.113c-.013-.05 15.407 8.439 12.674 27.31a5.37 5.37 0 0 1 .085-.173l-18.478 117.91c-1.644 9.745 7.425 20.291 18.786 22.111l33.555 5.64c8.543 1.552 15.486-2.859 16.588-10.71l2.066-14.689-38.297-5.81 6.332-42.229 18.393 1.961c8.411.945 15.234-4.087 16.299-12.154l1.987-15.105-32.645-2.639 5.914-42.548zM782.218 147.72c2.384-21.602-1.729-35.066-22.618-67.698-12.605-19.485-14.731-22.615-13.739-31.511l.063-.538c1.149-10.149 9.069-15.82 17.58-15.483 15.833.576 22.159 19.265 22.162 19.296l2.755-34.638c.684-6.94-3.577-13.921-9.705-15.505-4.269-1.118-9.21-1.641-15.539-1.641-24.165.211-44.525 19.066-48.093 47.743l-.063.516c-2.686 21.963 4.402 33.662 22.511 60.807 12.656 19.199 14.479 26.174 13.484 34.477l-.06.523c-1.335 11.254-9.525 14.107-18.481 12.419-17.889-3.41-25.918-19.605-25.912-19.592l-3.99 27.238c-.774 5.595 3.033 11.994 8.877 15.058 6.162 3.215 13.071 5.907 20.843 7.626 24.718 5.653 46.628-8.432 49.865-38.554l.06-.545zM126.667 1.266l-32.15.047-16.623.025c-.01.072 14.173 9.201 8.751 29.858-.019.148-12.828 49.629-28.179 106.778C38.398 212.404-.062 228.731 0 228.589c-.208.529 65.487-1.624 89.992-94.834C110.866 53.654 126.629 1.533 126.667 1.266zm62.67-.081l-4.72.006-13.128.016-22.023.025c-.013.063 18.446 5.961 10.366 24.945l-1.071 2.308c-.053.107-.097.208-.154.315L89.99 182.787l22.029-4.474c5.035-.992 9.743-4.909 11.755-9.787l48.997-114.641-5.435 52.57c-5.75.211-12.338 2.372-18.837 8.921-.013.016 17.546 5.256 15.011 27.928l-1.534 14.705c-.661 6.342 4.44 10.684 11.245 9.629l19.202-2.824 10.542-150.035c.52-7.472-5.611-13.584-13.628-13.594zm73.859 67.367c-.013.016 14.289 6.89 10.35 23.705l-10.876 40.215c-1.612.349-1.877.371-2.91.456-12.995 1.162-24.243-7.39-12.857-49.28l2.101-7.734c9.323-34.357 24.533-50.055 42.106-50.262 8.043-.104 14.133 2.444 20.66 6.26l3.637-13.918C317.737 9.042 310.419.54 299.934.067c-.989-.041-2.003-.066-3.042-.066-34.336-.145-65.333 25.928-79.78 78.873l-1.527 5.602c-15.688 57.59 3.933 77.948 35.865 74.33 12.256-1.241 22.338-4.591 34.953-9.702l21.951-82.176-19.527.627-25.631.998zM423.855 21.58c4.392-14.12 19.504-20.509 19.504-20.509-4.931 0-9.865-.003-14.8-.003h-10.914-5.101c-8.234 0-15.338 4.944-16.991 11.821l-23.796 96.506c-3.411 13.484-10.508 18.969-18.566 19.209s-12.353-4.96-8.811-18.585l23.186-91.283c2.257-9.138-5.839-17.659-16.74-17.662l-9.075.003-16.639.006c-.015.016 14.706 7.523 10.398 24.388l.019-.028-21.69 83.112c-8.593 32.339 6.78 45.551 33.013 44.443 26.208-1.049 49.192-15.162 56.79-46.421l20.213-84.997zm64.554-20.496c-1.575 0-3.146 0-4.72-.003-4.377 0-8.754-.003-13.128-.003l-22.027-.006c-.015-.013 18.938 5.318 12.391 22.017l-.888 2.003c-.044.095-.078.183-.126.274-18.493 41.76-37.783 82.973-57.867 124.607l22.373.126c5.105.063 9.642-2.453 11.32-6.326l40.486-95.338-1.093 46.991c-5.816-.519-12.315.655-18.393 5.618-.009-.032 18.264 6.931 17.593 27.168l-.331 13.046c-.144 5.608 5.439 10.521 12.297 10.892l19.334 1.159-2.415-139.527c-.133-6.994-6.789-12.703-14.806-12.696zM602.283 136.78l-7.844-39.893c13.141-6.981 24.486-19.617 27.811-40.91l.328-2.103c5.668-37.009-14.74-52.933-45.857-52.731-.196 0-.391 0-.586-.003l-30.843-.022-16.718-.013c-.012-.028 15.197 7.778 11.991 25.178.035-.022.069-.047.104-.069l-25.377 127.762 17.026 1.332c8.625.731 15.83-3.722 17.206-10.775l21.758-117.557.756.016c13.298.227 20.685 9.352 19.262 29.555-1.42 20.225-12.574 33.236-29.559 32.153l9.904 59.501c1.18 6.349 7.566 11.739 14.862 12.627l8.446 1.036 12.604 1.635 6.449.878s-7.758-7.283-11.723-27.597zm187.561 51.479h-2.715v-3.464h2.715c1.357 0 2.163.608 2.163 1.732 0 1.068-.806 1.732-2.163 1.732zm4.301-1.848c0-2.192-1.675-3.492-4.216-3.492h-4.878v10.942h2.078v-3.785h2.283l2.655 3.785h2.481l-2.944-4.131c1.502-.432 2.541-1.527 2.541-3.319zm-4.908 11.406c-5.069 0-9.04-3.996-9.04-9.097 0-5.133 3.999-9.154 9.097-9.154 5.07 0 9.041 3.996 9.041 9.097 0 5.133-3.996 9.154-9.098 9.154zm.057-19.86a10.78 10.78 0 0 0-10.763 10.763 10.72 10.72 0 0 0 10.706 10.706A10.78 10.78 0 0 0 800 188.663a10.72 10.72 0 0 0-10.706-10.706z"/></g></svg>