<svg xmlns="http://www.w3.org/2000/svg" width="800" height="446" fill="none" xmlns:v="https://vecta.io/nano"><path d="M792.054 437.08h-2.123v-2.708h2.123c1.058 0 1.696.471 1.696 1.354 0 .834-.638 1.354-1.696 1.354zm3.366-1.443c0-1.717-1.311-2.732-3.298-2.732h-3.819v8.556h1.628v-2.96h1.785l2.076 2.96h1.942l-2.305-3.227c1.179-.342 1.991-1.201 1.991-2.597zm-3.841 8.92c-3.965 0-7.074-3.127-7.074-7.117 0-4.014 3.127-7.156 7.12-7.156 3.961 0 7.071 3.121 7.071 7.11 0 4.018-3.128 7.163-7.117 7.163zm.046-15.534c-4.645 0-8.417 3.772-8.417 8.417 0 4.62 3.754 8.378 8.371 8.378 4.641 0 8.421-3.779 8.421-8.424 0-4.613-3.755-8.371-8.375-8.371zM559.534 400.48c0-11.719-8.862-16.093-21.358-16.093h-30.42c1.585 1.403.962 4.641.948 4.727l-10.266 50.873c-.018.085-.705 3.323-2.857 4.723h20.521c-1.606-1.421-.947-4.73-.947-4.73l8.296-41.117h10.358c7.498 0 9.016 3.195 8.118 7.637-1.695 8.595-13.885 9.76-18.284 10.027l9.137 24.885c.79 2.044 3.355 3.298 5.727 3.298h17.341s-2.914-1.973-5.554-7.651c-1.499-3.231-5.638-14.166-5.638-14.166s14.878-8.321 14.878-22.413zM63.755 428.14s-1.664 2.113-6.276 2.113H41.545l8.314-41.374c.018-.085.702-3.323 2.843-4.723H32.273c1.599 1.418.94 4.73.94 4.73l-10.219 50.856c-.018.086-.702 3.323-2.843 4.723h28.283c3.587 0 7.27-2.767 9.429-6.055l5.892-10.27zm170.197-13.439l19.759-25.54h.004l.092-.125.029-.035c.527-.677 2.689-3.334 5.236-4.567h-1.703-13.422c-2.504 0-5.293 1.525-7.042 3.851l-8.581 11.039-5.293-11.039c-1.054-2.326-3.387-3.851-5.895-3.851h-13.418-1.703c2.176 1.233 3.548 3.89 3.872 4.567l.018.035.057.125 11.747 24.71-5.293 26.473c-.231.862-1.001 3.227-2.768 4.382h20.115c-1.229-1.087-1.129-3.263-1.018-4.229l5.207-25.796zm-108.591 25.27l-.008.007-11.448-51.845c-.499-2.269-2.426-3.744-4.891-3.744H94.577c.944 1.735-.937 4.73-.937 4.73l.014-.007-31.763 50.859-.078.125-.021.039c-.428.677-2.194 3.334-4.556 4.567h15.128c2.508 0 5.069-1.525 6.469-3.851l21.992-37.391 3.373 18.181h-1.681c-5.575 0-11.263 3.445-14.287 8.656l-2.568 4.417s3.833-1.578 12.407-1.578c7.58 0 9.685 7.651 9.685 7.651.438 2.362 2.394 3.915 4.927 3.915h15.427c-2.148-1.418-2.746-4.731-2.746-4.731zm178.377 0l-.007.007-11.448-51.845c-.499-2.269-2.426-3.744-4.891-3.744h-14.437c.944 1.735-.937 4.73-.937 4.73l.015-.007-31.763 50.859-.079.125-.021.039c-.428.677-2.194 3.334-4.556 4.567h15.128c2.508 0 5.069-1.525 6.469-3.851l21.992-37.391 3.373 18.181h-1.681c-5.575 0-11.263 3.445-14.287 8.656l-2.569 4.417s3.833-1.578 12.407-1.578c7.58 0 9.685 7.651 9.685 7.651.438 2.362 2.394 3.915 4.927 3.915h15.427c-2.148-1.418-2.747-4.731-2.747-4.731zm187.266 0l-.007.007-11.449-51.845c-.498-2.269-2.426-3.744-4.89-3.744H460.22c.944 1.735-.936 4.73-.936 4.73l.014-.007-31.763 50.859-.078.125-.022.039c-.427.677-2.194 3.334-4.556 4.567h15.128c2.508 0 5.069-1.525 6.469-3.851l21.992-37.391 3.374 18.181h-1.682c-5.574 0-11.263 3.445-14.287 8.656l-2.568 4.417s3.832-1.578 12.406-1.578c7.58 0 9.686 7.651 9.686 7.651.438 2.362 2.393 3.915 4.926 3.915h15.427c-2.148-1.418-2.746-4.731-2.746-4.731zm81.579-50.86l-9.621 47.65-.357 1.813c-.673 3.384 1.529 6.13 4.913 6.13l36.325-.003c3.384 0 6.672-2.743 7.345-6.127l1.618-8.09h-31.835l1.935-9.564h22.316c3.384 0 6.675-2.742 7.345-6.126l1.414-7.053-28.407-.004 1.848-9.133h25.327c3.384 0 6.671-2.743 7.345-6.127l1.613-8.089h-50.086c1.589 1.4.98 4.638.962 4.723zM715.71 420.92c3.384 0 6.672-2.742 7.345-6.126l1.414-7.057h-28.407l1.849-9.133h25.326c3.384 0 6.672-2.743 7.345-6.127l1.61-8.089h-50.083c1.589 1.4.98 4.638.962 4.723l-9.621 47.65-.356 1.813c-.673 3.384 1.528 6.13 4.912 6.13l36.326-.003c3.384 0 6.672-2.743 7.341-6.127l1.621-8.09H691.46l1.934-9.564h22.316zm-371.159-22.769c11.583 0 12.075 7.056 12.075 7.056l13.532-13.172s-7.024-8.788-22.701-8.788c-23.709 0-39.428 20.122-39.428 38.132 0 14.472 10.219 24.582 27.26 24.582 16.496 0 28.059-9.301 28.059-9.301l3.284-16.339a5.1 5.1 0 0 0-4.998-6.098h-12.738c2.715 1.375 1.696 6.511 1.678 6.597h.004l-1.561 8.256c-2.871 1.667-6.262 2.501-10.18 2.501-6.818 0-13.465-3.893-13.465-13.226 0-11.074 9.611-20.2 19.179-20.2zm91.431-9.042l.007.007s.673-3.309 2.85-4.727h-12.738c-3.384 0-6.675 2.743-7.359 6.123l-5.607 27.784c-1.585 7.616-5.724 12.4-13.604 12.4-8.157 0-9.998-5.567-8.516-12.827l5.521-27.357c.684-3.384-1.507-6.123-4.887-6.123h-12.735c1.585 1.4.966 4.634.948 4.72l-5.874 29.106c-3.163 15.68 1.777 27.541 22.331 27.541 19.591 0 30.455-10.753 33.875-27.969l5.788-28.678zm241.225 3.361l1.649-8.083h-46.339c-3.38 0-6.675 2.743-7.359 6.123l-1.703 8.083h17.949l-8.574 41.672c-.228.862-.997 3.228-2.764 4.378h20.382c-1.606-1.418-.947-4.727-.947-4.727l8.485-41.323h11.861c3.381 0 6.676-2.743 7.36-6.123zm-517.77 5.054c5.703 0 12.948 2.162 14.433 7.06l10.761-13.368s-7.918-7.58-21.963-7.58c-17.38 0-27.553 11.409-27.553 22.964 0 16.945 28.361 12.845 28.361 20.493 0 2.194-2.611 4.716-7.872 4.716-8.3 0-16.995-4.193-16.995-8.478l-7.341 7.381c-2.946 2.842-3.181 7.17-.417 9.112 4.025 2.831 11.88 5.87 21.351 5.87 18.569 0 28.629-11.541 28.629-23.581 0-16.225-28.29-13.108-28.29-19.819 0-2.704 2.767-4.77 6.896-4.77zm592.332 4.771c0-2.703 2.764-4.769 6.896-4.769 5.703 0 12.945 2.162 14.43 7.06l10.765-13.369s-7.922-7.58-21.968-7.58c-17.379 0-27.549 11.406-27.549 22.961 0 16.949 28.362 12.845 28.362 20.497 0 2.194-2.611 4.716-7.876 4.716-8.296 0-16.995-4.193-16.995-8.478l-7.341 7.381c-2.946 2.839-3.181 7.17-.417 9.111 4.029 2.829 11.88 5.871 21.351 5.871 18.569 0 28.632-11.545 28.632-23.581 0-16.229-28.29-13.112-28.29-19.82z" fill="#102a39"/><path d="M679.859 341.114c-2.747 0-5.432-1.005-7.776-2.9-8.207-6.654-27.147-27.976-47.198-50.553l-.256-.288c-17.077-19.235-40.465-45.58-48.964-52.754-.278-.235-.627-.356-.976-.356a1.56 1.56 0 0 0-.556.103c-2.632 1.036-6.522 2.476-10.088 3.441a1.52 1.52 0 0 0-1.065 1.065c-5.414 20.012-18.419 32.878-25.689 38.773a1.5 1.5 0 0 0-.559 1.047c-.033.41.103.816.374 1.126 2.472 2.825 5.692 6.027 9.567 9.525a1.53 1.53 0 0 0 .716.36c15.798 3.216 34.253 14.91 34.253 37.277 0 7.925-6.454 14.134-14.69 14.134h-9.115c-1.443 0-2.886-.317-4.171-.919a1.52 1.52 0 0 0-.638-.139 1.56 1.56 0 0 0-.538.096c-1.685.638-3.526.962-5.464.962h-20.372c-9.642 0-15.812-4.285-18.868-13.098-2.458-7.099-8.791-14.661-14.918-21.974-8.709-10.405-16.941-20.229-16.756-31.051.161-9.496 5.408-27.264 8.521-37.013a1.5 1.5 0 0 0-.143-1.233 1.51 1.51 0 0 0-1.011-.716c-13.116-2.532-25.886-6.789-39.404-11.295-22.576-7.523-45.918-15.31-74.607-16.425h-.057a1.51 1.51 0 0 0-1.037.41c-.295.278-.47.666-.477 1.069-.802 36.436-22.42 53.299-35.236 60.106-.63.338-.94 1.069-.748 1.756 2.476 8.642 5.653 15.933 8.506 19.499.239.299.581.495.962.552 18.434 2.739 31.877 16.243 33.444 33.604.378 4.172-.972 8.282-3.704 11.271-2.672 2.924-6.473 4.538-10.701 4.538h-6.173c-1.799 0-3.466-.403-4.944-1.201a1.54 1.54 0 0 0-.716-.178 1.52 1.52 0 0 0-.598.121 15.58 15.58 0 0 1-6.198 1.258h-25.683c-8.877 0-17.564-6.864-19.776-15.623-2.996-11.848-13.437-23.702-21.829-33.231-8.602-9.756-14.8-16.788-14.8-24.097 0-5.497 2.732-8.941 5.147-11.979 1.731-2.173 3.498-4.393 4.784-8.012.214-.591.035-1.253-.445-1.663a1.53 1.53 0 0 0-.98-.356c-.253 0-.502.057-.734.189-5.899 3.252-12.763 6.176-20.026 9.279-15.416 6.572-34.562 14.736-34.562 23.94 0 6.462 5.421 10.879 14.355 17.387 9.03 6.575 20.271 14.765 20.271 29.006 0 9.257-7.968 14.789-15.673 14.789-2.514 0-4.912-.313-7.124-.94-.135-.039-.274-.057-.413-.057a1.41 1.41 0 0 0-.442.068c-2.871.872-6.682 1.3-11.644 1.3-19.627 0-34.969-9.547-35.61-9.953-5.404-3.027-11.131-10.212-11.488-17.069-1.207-23.235-2.664-33.309-3.626-39.974-.673-4.595-1.2-8.192-1.2-13.343 0-10.017 10.145-20.304 25.501-35.87 13.496-13.675 31.98-32.404 43.239-53.36.35-.652.179-1.464-.409-1.916a1.52 1.52 0 0 0-.926-.31c-.371 0-.741.135-1.033.406-8.539 7.986-18.519 19.364-28.166 30.367-32.86 37.48-73.759 84.118-120.094 84.118C20.881 284.21 0 247.204 0 222.33c0-19.659 11.107-33.395 27.008-33.395 13.646 0 19.474 10.922 24.618 20.553 5.927 11.093 11.523 21.569 28.518 21.569 17.946 0 37.59-23.934 60.341-51.647 39.959-48.668 94.662-115.296 189.01-115.296 12.118 0 43.593.866 76.909 1.778l1.268.036 95.495 2.144c10.134 0 27.403-7.662 47.397-16.531 27.691-12.296 62.115-27.585 100.041-33.166a1.51 1.51 0 0 0 .929-.513C658.23 10.084 667.484 4.082 677.59.947 679.609.321 681.554 0 683.367 0c7.274 0 12.354 5.332 12.354 12.969 0 .965-.082 1.927-.196 2.835a1.52 1.52 0 0 0 1.246 1.678c14.494 2.497 25.238 9.536 35.924 23.542 3.836 5.019 8.755 8.399 13.098 11.381 5.706 3.925 11.088 7.623 11.088 14.152 0 5.824-3.786 10.718-6.045 13.115-.199.21-.331.474-.388.755-1.175 6.223-5.806 13.956-13.204 16.232a1.55 1.55 0 0 0-.631.381c-2.005 2.03-4.246 3.673-6.661 4.88-.449.221-.801.649-.826 1.144-.296 5.76-3.773 12.934-3.773 12.934-.309.651-7.868 16.089-24.325 16.973a27.24 27.24 0 0 1-1.3.035c-9.757 0-16.492-6.052-21.412-10.469-3.651-3.287-6.796-6.119-9.966-6.119-8.603 0-39.147 23.363-46.339 37.209a1.51 1.51 0 0 0 .046 1.489c11.791 19.314 21.319 38.777 36.985 72.534 15.602 33.619 32.86 58.322 38.823 62.543a1.49 1.49 0 0 0 .876.278c.039 0 .082 0 .125-.004a142.64 142.64 0 0 1 11.79-.505c16.368 0 26.538 8.727 26.538 22.772 0 7.17-1.927 12.656-3.338 16.66-2.358 6.693-9.226 11.505-16.695 11.712l-3.983.007c-1.87 0-3.665-.421-5.19-1.215-.217-.114-.456-.171-.698-.171-.174 0-.345.029-.513.089-2.379.859-5.054 1.297-7.957 1.297h-18.961z" fill="#fff"/><path d="M541.429 302.924c-13.283-9.999-24.101-21.65-25.055-26.893 2.728-4.147 14.757-23.186 16.841-40.074.093-.776.025-1.449-.028-1.987l-.239-2.782-2.963.025c-2.366 0-14.616-.082-23.4-1.667l-2.151-.389-.791 2.038c-1.336 3.448-13.048 33.9-13.048 41.868 0 9.012 8.417 19.139 16.557 28.935 5.158 6.205 10.03 12.068 12.039 16.802 2.423 5.7 5.215 7.719 10.687 7.719h15.797c2.358 0 4.353-1.941 4.353-4.246 0-.63-.067-1.282-.174-1.92 1.328.916 2.557 2.323 3.22 4.342l.598 1.824h8.3c1.364 0 2.621-.616 3.455-1.699a4.32 4.32 0 0 0 .759-3.754c-1.949-7.406-12.225-17.668-24.757-18.142zm-320.184-55.382c19.926-19.467 44.725-43.699 30.395-77.279l-2.276-5.332-2.547 5.207c-13.938 28.515-36.397 50.617-52.793 66.753-12.774 12.567-18.911 18.837-18.911 23.973 0 6.219.951 12.599 1.959 19.356 1.268 8.539 2.707 18.217 2.707 30.182 0 5.834 4.923 8.474 6.54 9.343l.271.142c3.312 1.781 13.4 7.207 26.601 7.207 1.56 0 6.312 0 7.901-3.409.064-.139.121-.275.171-.417.78.816 1.368 1.685 1.649 2.198l.752 1.378h1.574c3.719 0 5.386-2.557 5.386-5.09 0-4.873-5.14-8.734-11.648-13.621-9.112-6.847-20.457-15.367-20.457-28.614 0-9.771 11.039-20.557 22.726-31.977z" fill="#f46a44"/><g fill="#c56347"><path d="M709.189 78.309c8.154 1.336 16.656 6.312 20.158 8.367 1.695.997 2.205 1.3 2.878 1.421 0 0-12.207-8.812-22.926-9.785-.039-.004-.071 0-.11-.004z"/><path d="M732.224 88.097l.303.053.306-.014c1.796-.096 3.427-1.353 4.595-3.548l.022-.046-5.226 3.555z"/></g><path d="M736.023 59.689c-4.149-2.429-9.834-5.753-14.743-12.542-8.87-12.264-20.24-17.974-35.777-17.974-.089 0-.178.007-.267.007l-1.778-17.654-19.606 7.876-6.771 9.318-1.151 2.956c-39.421 6.373-76.438 23.763-104.991 37.195-18.915 8.902-33.858 15.933-41.716 15.933-15.541 0-45.526-1.069-77.272-2.201l-103.47-2.796c-84.681 0-134.215 59.697-174.018 107.66-26.163 31.528-48.761 58.76-73.745 58.76-28.055 0-36.126-16.264-42.025-28.14-3.509-7.071-6.544-13.18-12.895-13.18-6.761 0-11.669 6.312-11.669 15.003 0 12.361 5.692 24.522 15.612 33.366 11.612 10.352 28.311 15.823 48.298 15.823 40.219 0 76.82-41.48 109.11-78.08 23.164-26.256 45.088-51.105 62.528-52.73 4.592 11.78 10.79 24.532 16.795 36.882 10.979 22.576 21.344 43.902 21.344 57.335 0 11.976-3.911 18.768-7.056 24.225-1.942 3.367-3.616 6.27-3.616 9.454 0 3.787 4.061 9.205 11.848 19.253 8.075 10.423 18.123 23.392 21.315 34.207 1.211 4.11 4.873 6.874 9.108 6.874h20.186c2.155 0 4.325-1.446 4.325-4.68a13.71 13.71 0 0 0-.417-3.327c2.205 1.065 4.018 2.981 4.584 5.87l.424 2.137h5.19c1.272 0 2.476-.552 3.306-1.513s1.197-2.237 1.008-3.495c-.973-6.536-5.55-17.429-25.166-17.789-4.456-4.573-14.711-26.929-21.241-42.52 15.435-2.348 39.429-15.933 39.429-55.198 0-16.186 10.223-23.403 33.145-23.403 13.286 0 31.67 5.098 52.953 11.004 27.934 7.747 59.594 16.528 89.839 16.528l1.229-4.998c-.132-.068-12.253-6.579-14.312-20.671 8.214 7.135 26.313 20.71 47.279 23.018l.26.025.242-.017a7.52 7.52 0 0 1 .634-.022c.791 0 1.557.089 2.308.171.909.1 1.799.193 2.683.193 9.122 0 63.771 59.913 110.563 116.287l.096.117.114.111c1.474 1.403 3.387 2.172 5.393 2.172h13.243c1.212 0 2.547-.238 3.57-.637 4.972-1.956 7.523-4.431 8.83-6.49.705.926 1.286 2.269.912 3.882l-.748 3.245h6.889c2.864 0 5.357-2.026 5.934-4.812.096-.463.196-.858.289-1.24.342-1.374.662-2.675.662-5.464 0-4.196-1.585-11.234-12.207-11.234-6.294 0-13.895.63-13.992.648-4.99 0-20.161-6.889-53.153-70.714-27.046-52.313-54.075-101.216-86.173-125.734 11.527 3.512 24.168 11.402 33.896 20.197 34.072-45.698 66.996-57.688 66.996-57.688l-5.162 10.472.303 1.168c.335-1.325.791-2.672 1.567-4.022.446 6.732 3.602 15.93 16.126 21.39 6.743 2.942 10.779 7.648 14.337 11.804 3.769 4.396 7.37 8.567 13.18 9.639l-1.076-2.999c-18.786-9.945-28.913-37.28-14.832-49.032 16.538-13.807 51.632 2.899 51.632 2.899l4.406 7.117a14.82 14.82 0 0 0-.834-5.739c5.504-2.49 5.504-3.94 5.504-5.03 0-4.05-3.495-6.095-7.545-8.46z" fill="#f46a44"/><path d="M713.952 114.051l1.383-2.354-8.621 8.541c4.61-1.887 7.11-5.97 7.238-6.187z" fill="#c56347"/><g fill="#102a39"><path d="M531.439 118.963c1.7.48 2.163 2.639-.007 5.343s-.153 6.903 2.526 5.585 2.329-4.2 3.042-7.676-2.073-3.185-2.711-4.431c-.638-1.251 1.582-2.982.517-4.571s-7.402-2.885-10.462-2.265c-2.041.413 5.396 7.534 7.095 8.015zm-16.232 9.847c.484 2.853 5.272 4.712 8.075 2.497s-.648-2.815-2.899-3.342-2.362-2.073-2.494-4.912-.552-2.408-1.674-4.242 3.038-4.98 2.664-6.601c-.509-2.208-5.553-2.151-8.506.834s2.405 6.732 2.045 8.21 2.304 4.702 2.789 7.556zm12.611-6.57c.356-1.479-2.088-3.313-3.641-2.177-2.686 1.967 3.284 3.655 3.641 2.177zm18.202 5.887c-4.466 1.656-4.078 5.963-9.614 8.271-7.612 3.177-8.855 6.159-7.366 8.488s6.266 6.43 8.567 4.969c2.988-1.895-2.504-6.657 2.714-10.504 2.447-1.806 5.543-6.44 8.734-5.867 6.052 1.087 6.943 7.912 10.377 7.121 3.829-.884 1.353-8.25-1.34-9.205s-7.391-5.011-12.072-3.273zm-4.707 22.122c-1.667 2.667 2.515 5.129 4.698 3.864s1.222-2.945 3.612-3.305 4.492.484 7.716-1.208 3.825-6.75 1.699-6.664c-2.529.103-9.109 5.325-11.52 5.881s-4.538-1.236-6.205 1.432zm8.038-8.133c1.325-.688-.004-3.167-1.564-2.875-1.941.363-4.079 1.289-4.118 2.835s4.357.727 5.682.04zm-97.941-34.107c1.966-1.14 1.104-2.657 3.259-2.981s4.047.438 6.957-1.09 3.448-6.084 1.531-6.006c-2.279.093-8.214 4.802-10.387 5.301s-4.092-1.115-5.596 1.293 2.27 4.623 4.236 3.483zm2.922-10.798c1.14-.605-.029-2.85-1.379-2.6-1.674.31-3.516 1.126-3.537 2.518s3.776.688 4.916.082zm40.525 10.143c4.923-1.136 3.088 2.398 3.754 2.822s.677 1.916-.794 3.522-4.267 5.475-1.809 6.637 5.503-4.61 7.092-6.704-1.211-2.255-1.714-2.942 3.263-2.829 1.489-5.529-8.346-1.934-11.138-.84c-2.219.869-1.803 4.171 3.12 3.034zm-12.058 11.649c-2.497 1.151 1.108 6.309 4.392 5.554s4.307-3.299 3.626-4.752-5.987-1.738-8.018-.802zm-7.1-3.315c.446.933 2.38 2.329 5.354.954s3.634-7.103 3.641-8.901c.007-1.714-1.354-1.878-4.795-.813s-3.484 3.872-2.964 5.133-1.681 2.693-1.236 3.627zm17.049-18.631c.463-1.489-1.903-4.278-3.766-3.84-2.514.595-4.748 7.876-2.703 9.247s6.005-3.918 6.469-5.407zm-31.003 24.554c-.367-1.585-3.733-2.422-4.424-2.262-2.213.51-3.06 2.273-2.765 3.552s1.917 3.209 4.2 2.682 3.356-2.387 2.989-3.972zm-1.625 9.878c.53 2.297 4.092 1.82 6.497 1.264s3.711 1.105 6.226.524 3.224-5.005 2.796-6.864-2.668-4.567-5.293-3.961c-1.382.317-1.086 4.282-1.674 5.222s-9.083 1.517-8.552 3.815zm-6.73-19.642c-2.33.883-4.738 4.431-3.89 5.596s2.928 2.226 5.461 1.211 1.617-2.476 4.214-3.42 4.466 1.147 7.758.403c2.429-.552-.168-7.22-2.455-7.153s-4.096 3.708-5.934 4.018-2.825-1.539-5.154-.655zm-66.286-22.75c-1.899 1.478.025 4.677.969 4.2s2.336-1.842 2.646-3.128-1.474-2.739-3.615-1.072zm37.262.881c1.043.859.235 2.483-.275 4.039s-4.751 6.087-3.95 7.366 3.84-1.332 6.715-3.181 2.454-5.133 2.133-7.26-.951-3.758-3.822-4.467-8.189-.203-7.958 2.191c.186 1.902 6.113.452 7.157 1.311zm-14.968 8.368c.627 1.254-1.225 2.02-.894 3.466s4.339 3.398 6.928 2.885 2.344-4.516 2.323-5.696-6.102.442-6.166-1.557.021-4.556 1.824-5.906 1.713-3.22.744-3.74c-1.678-.905-3.615.089-6.112 1.004s-3.908 4.624-2.569 6.43 3.295 1.859 3.922 3.113zm78.072 88.591c-2.287.456-4.884 2.932-6.273 3.53s-3.911 1.738-3.505 2.892.481 3.922 6.195 2.465 6.005-9.368 3.583-8.887zm12.912.413c.164 1.91 2.048 2.861 4.314 3.039s4.171-1.799 4.171-3.605-1.834-1.941-3.501-2.529-4.182.545-5.358.26-.103-1.642-.762-3.298-3.477-1.311-5.076-.916c-1.482.371-3.544 1.514-2.892 3.726s5.065 1.475 6.914 1.656 2.026-.242 2.19 1.667zm3.63 10.895c-1.144 1.425-4.952 2.69-6.925 2.526s-3.904-.492-4.453-1.528-1.346-1.817-3.038-1.098-4.285 1.55-3.829 2.526 4.559 1.357 6.853 1.913 5.646 1.328 9.262.57 4.595-3.224 5.72-3.715 4.271-2.006 4.923-3.199-2.472-1.87-3.135-2.098c-2.817-.976-4.235 2.678-5.378 4.103zm-35.107-6.417c-1.895-.1-.175-2.501-.153-3.979s-1.518-1.913-5.578.317c-1.81.994.837 1.578.755 3.274s-4.25 1.578-3.801 2.946 1.671.285 3.384.156 2.55.617 4.884.884 5.307-1.361 5.806-2.679-3.402-.819-5.297-.919zm71.36-2.684c2.81-.549-4.859-3.327-3.801-5.297s4.965-2.999 6.597-4.047-2.394-5.735-6.554-4.641-4.478 7.288-4.2 9.646 4.246 5.062 7.958 4.339zm15.498-3.573c1.279.912-1.887 1.104-1.624 2.244s2.942 3.469 5.286 3.199c2.348-.275 3.833-1.956 3.43-4.271s-9.051-5.447-11.284-5.425c-1.55.014 2.914 3.341 4.192 4.253zm5.548 9.556c-.52-1.695-4.613-2.012-6.294-1.759s-3.976 4.798-3.459 5.881 3.501 1.332 5.514.737 4.777-3.11 4.239-4.859zm-13.494-28.464c-1.343-.491-1.589-1.774-.674-2.921s1.244-2.429 1.244-2.429 4.221 1.838 5.46 1.418 3.544-2.02 1.521-3.83-3.238-3.134-4.777-2.778-2.685 4.096-2.685 4.096-3.032-1.574-4.674.007.741 4.378-.199 5.532-2.251 2.661-1.714 4.008c.542 1.346 3.384 3.23 4.841 3.163s3.081.196 3.683-.848c1.112-1.931-.684-4.926-2.026-5.418zm5.969 6.848c-1.005.929-.015 3.419.972 4.224s5.65 1.279 6.711.349-.281-2.062-2.144-4.174-3.951-1.871-5.539-.399zm14.351-5.648c3.958-1.307-5.475-7.374-7.306-6.743-2.358.812 1.365 6.508 2.986 7.74s1.075 1.76.274 4.086 2.5 6.782 4.57 6.169 1.4-2.329 2.116-5.076-1.749-2.899-3.27-3.693-.738-2.031.63-2.483zm-44.581-2.112c-2.96.684.927 10.772 2.373 10.284s4.05-5.066 3.694-6.95-3.819-3.85-6.067-3.334zm-12.43 7.93c-3.056 1.952 2.956 6.409 4.488 6.291s3.58-2.386 3.274-3.715-5.839-3.804-7.762-2.576zm-1.256-9.839c1.478-.342 2.988 1.806 4.762 1.863s3.904-.435 3.605-3.092-5.026-4.217-6.358-3.754-.998 2.803-2.437 3.134c-1.403.324-1.916-.883-3.672-1.731s-2.348.624-3.794 3.142-1.036 4.289.153 5.261 2.928 4.389 4.984 3.836 2.262-3.715 2.198-5.336-.92-2.981.559-3.323zm-29.969 17.041c-.324-.77-7.487 1.417-8.146-.171s-1.111-3.484.342-4.884 2.704-3.284 4.688-4.125 6.629-.331 8.777-1.026c2.037-.659-3.228-4.816-5.187-4.363s-3.174 3.512-4.851 3.897-2.159-2.284-5.094-1.607-4.948 4.357-4.951 4.841 4.577-.1 3.825 1.752-3.833 2.565-4.039 4.236 2.347 1.229 3.017 2.842 2.597 5.557 6.369 4.631 5.575-5.254 5.25-6.023zm5.652-7.657c-1.2.017-3.54 2.55-3.195 4.053s2.821 4.549 5.105 4.228 2.4-4.295 2.176-5.905-2.216-2.401-4.086-2.376zm-24.282-25.448c.548-1.753 1.029-3.733-1.25-3.292-1.272.25-1.856 1.913-3.356 2.818s-3.042 1.343-3.313 2.949 4.492 2.868 5.607 2.775 1.763-3.498 2.312-5.25zm8.53-6.169c-.317-1.799-6.151-5.333-7.743-5.532-5.946-.759-5.657 1.104-9.974 4.214s-8.246 2.351-10.02 8.281c-.303 1.012 1.118 6.612 3.758 7.488s6.386.887 7.366-.506-1.165-2.59-2.244-3.733-5.724-2.269-5.222-3.605 5.735-2.297 7.641-3.548 4.548-4.954 7.348-5.517 3.106 2.372 2.675 3.936.043 2.917 3.106 2.091c1.464-.396 3.626-1.774 3.309-3.569zm98.713 3.704c2.65-1.168 3.337-1.585 4.363-.944s5.831-2.23 5.529-3.808c-.396-2.073-1.283-3.765-3.224-2.718s-1.735 3.733-2.86 4.118-4.157-5.582-5.789-5.236-3.808 3.907-3.024 5.336 2.355 4.42 5.005 3.252zm3.002-10.66c.994-.228 2.29-1.724 2.198-3.177s-1.724-2.544-2.676-2.729c-1.164-.228-.516 6.134.478 5.906zm2.202 19.497c.951-.32-.267-4.933-.267-4.933-2.013-1.963-3.915 1.945-3.27 2.711s2.586 2.543 3.537 2.222zm-9.942-5.056c-1.393.232-5.436 2.03-4.574 3.234s3.936 3.741 2.582 4.61 2.95 2.789 4.474 2.928.645-3.42.378-4.047-1.201.079-2.579-1.172 1.247-5.806-.281-5.553zm51.239 63.037c.944-.011 4.667-8.774 1.475-8.136-2.069.417-3.302 1.624-2.568 3.391s.149 4.755 1.093 4.745zm-47.991-29.155c-1.927 1.628 2.415 4.203 2.843 2.889s-.916-4.517-2.843-2.889zm3.985 7.846c-2.283-1.385-3.672-1.938-4.759-1.35s-1.745 3.502-.698 3.861 3.01-.452 3.359 1.03-1.261 2.882-2.468 2.825-4.56.523-5.329 1.877 2.775 2.237 4.541 2.301 2.401-2.244 4.004-3.455 4.1-5.418 1.35-7.089zm-23.862-2.724c-1.457.257-.467 5.45.474 5.6s2.219-2.173 2.297-2.985-.182-3.071-2.771-2.615zm-8.52-28.276c2.821-2.081-2.59-3.63-4.99-3.787-2.337-.149-2.198 5.553-1.792 6.326s3.961-.459 6.782-2.539zm-13.569-1.865c1.795-1.92 4.253-4.716 4.399-5.949s-5.318-2.832-5.022-5.436-.659-10.262-3.331-10.301c-3.904-.054-6.921.99-8.474 1.955s-3.665 6.063-.474 6.327 6.843-1.201 8.357.409 3.085 2.572 1.154 5.001-5.033 2.569-3.206 4.417 4.802 5.497 6.597 3.577zm-28.107 7.575c.449-1.239-1.321-2.543-2.408-3.608s-.677-2.515-.285-3.865 2.657-1.696 4.225-2.525 5.795-1.806 7.904-3.438.502-2.543.502-2.543-4.235-.844-5.827-2.444-2.351-1.407-4.788-1.125c-2.849.327-3.758 8.581-5.108 11.11s-2.536.944-5.318 2.675-1.4 2.515-.734 4.331 1.664 1.165 4.079 1.311 7.309 1.361 7.758.121zm6.22-39.246c2.02-.146 1.831 1.603 2.066 2.721s1.46 3.181.11 4.424-3.565 3.876-2.222 4.528 4.103 1.61 4.823.156 5.111-3.761 5.624-4.933-2.568-1.635-3.409-1.678-3.455-2.835-2.027-4.37-.196-3.79-.769-6.28-4.698.221-6.408 1.286c-2.362 1.467.192 4.292 2.212 4.146zm-1.296 7.483c.758-.645 1.264-3.808.701-4.616s-.555-.093-1.838-.314c-1.838-.313.378 5.575 1.137 4.93zm-5.567-7.28c.844-1.126.164-2.953-1.225-2.996-1.942-.057-3.876.997-4.891 2.177s-3.972 4.135-2.248 5.004 4.88 2.91 5.001 4.428-.616 2.882 1.614 3.412 4.054 2.252 4.987 2.02 2.825-2.935 1.852-3.747-2.49-2.497-4.47-2.604-5.625-3.441-3.833-4.695 2.369-1.874 3.213-2.999zm-77.878-19.773c-.627 1.236.021 4.05.591 5.104s2.899.759 4.253 0 .609-3.918 1.653-4.616 3.53-.791 4.766-1.101 3.295-.128 4.249 1.069 1.493 3.035 3.53 2.892 4.172.128 4.346-1.001-3.298-2.661-4.502-3.779-4.261-3.904-6.494-3.605c-2.867.385-4.121 1.852-6.351 2.568s-5.415 1.233-6.041 2.469zm12.064 4.384c.972-.339 2.457-.321 1.574-1.307s-1.752-.542-2.49-.406c-.57.103-.057 2.051.916 1.713zm-3.078 4.87c-.951-.232-1.567-2.9-3.02-2.622s-1.949 2.29-2.23 3.263 3.573.363 4.841 2.094 5.446 3.751 8.495 1.361 2.415-4.883 3.666-5.792 1.667-2.39.541-2.543c-1.703-.235-2.778-.823-3.288.139s-.324 2.493-2.322 2.839-2.54-.763-3.562-.809-2.169 2.301-3.121 2.07zm50.927 23.249c2.354-.492 2.429-4.838 2.429-4.838-2.778-1.35-5.254 3.288-6.198 3.862s1.414 1.464 3.769.976zm-16.902 21.626c1.454-1.058 2.925-6.034 4.941-6.647s3.744-6.643.524-5.429c-2.052.77-3.88.905-3.641 3.27s-.37 5.076-3.124 4.503-3.975.88-4.844 2.422 4.691 2.939 6.144 1.881zm-10.374-29.622c1.532-.043 5.557-2.437 4.634-3.356-1.069-1.068-2.689-4.242-4.898-4.474s-5.229 4.168-4.47 5.069 3.202 2.804 4.734 2.761zm-15.638 5.267c1.308-.798 1.137-1.304.998-2.13s-1.197-.876-3.142-.702c-1.988.178.837 3.63 2.144 2.832zm.538-12.49c-1.389.097-7.031 1.81-8.567 2.854-4.527 3.084.713 10.433 2.166 9.899s.146-3.224-1.065-5.13 1.831-2.76 1.831-2.76 2.24 1.695 3.491.559 2.023-.698 2.764-.738 2.422 2.391 1.898 5.482 2.686 4.271 4.531 2.914.656-1.838-.167-3.391-.641-4.121-1.411-6.123-4.082-3.662-5.471-3.566zm-.186 19.814c1.493-.217 2.269-.185 3.833-1.998s1.129-1.891.666-2.561-1.553-.716-2.144-.613-1.154 1.689-2.401 1.037-2.255-.745-3.897-.022c-1.539.677 2.451 4.375 3.943 4.157zm-39-19.731c2.999 1.618 5.738 4.011 6.711 5.703s8.128-3.327 9.461-4.506-.706-4.321-.385-6.084-2.301-2.771-3.477-1.987-1.717 2.853-1.093 4.288 1.026 3.698-1.853 4.57-5.029-3.416-6.867-3.807-7.042-3.655-7.84-3.794-1.372-2.629 1.271-3.822 5.137.142 5.885-2.298 1.596-8.385-.973-8.021c-4.958.698-7.612 1.464-7.879 2.985s1.094 2.062.043 3.989-4.438 4.973-3.234 6.697 7.231 4.47 10.23 6.087zm7.281-5.519c1.232-.973.395-3.341-.769-3.345s-3.726-1.001-4.018.926c-.346 2.287 3.551 3.391 4.787 2.419zm2.045-6.795c1.443.637 1.842 2.728 3.338 2.194s.538-2.924.876-5.108-3.508-1.051-5.293-1.069-2.614-.673-3.38.781c-.958 1.813 3.017 2.564 4.459 3.202zm-39.796-6.69c1.379.403 1.386 5.906 3.776 6.116s7.22-.723 9.76-3.38c1.297-1.361-.805-3.099-1.617-3.883s-3.06 1.176-4.029 1.671-2.479-1.771-2.198-3.277-.787-4.592-2.425-4.667-2.163.769-3.666 2.469-.979 4.549.399 4.951zm-4.336-4.843c1.301.164 1.881-1.617 2.529-2.989s-.131-2.294-1.325-2.095c-3.173.531-2.504 4.919-1.204 5.083zm218.166 3.152c-3.092-.677-4.11 5.379-1.214 5.724s3.191-.345 6.821-1.727-2.753-3.373-5.607-3.997zm-390.402 58.026c-3.555.467-5.076 5.016-5.428 7.826s-2.818 7.235 1.581 6.458 8.905-14.946 3.847-14.284zM51.265 248.946c-2.504.053-6.96 1.931-8.132 2.896s-.011 3.274 2.429 4.121 8.136-7.07 5.703-7.017zm112.778-49.472c-1.678.584-4.417 1.642-2.7 3.145s2.881 2.095 4.527 2.64 5.966-5.005 4.221-5.646c-1.496-.552-4.371-.723-6.048-.139zM699.4 46.607l7.384 5.315s-.773 7.306 4.189 7.039c2.052-.107 3.587-1.339 4.624-2.568l3.601 2.13-1.984-4.684c-5.603-5.781-17.814-7.231-17.814-7.231z"/><path d="M734.492 71.8c3.836 6.415.666 13.557-1.796 13.689-1.375-.249-24.503-16.962-37.458-7.042-13.098 10.02 6.597 28.882 16.428 34.263 0 0-3.238 5.518-9.101 5.831-12.913.688-14.43-14.579-30.256-21.483-19.488-8.499-13.892-26.58-13.892-26.58-13.575 10.594-5.92 25.305-5.92 25.305s-30.613 19.324-45.99 45.919c-4.171-6.993-11.534-14.612-20.179-21.216.42-2.105.488-4.378.488-4.378-1.058-1.888-3.84-.947-5.878.499-11.441-7.691-24.336-13.222-35.004-13.222 7.124 4.11 14.006 9.532 20.681 15.968a3.68 3.68 0 0 0-1.018.218c-2.896 1.057-7.378 5.293-5.219 7.647s5.279 4.859 6.031 2.597-.335-6.376 1.674-6.248c.894.057 1.97.128 3.031.321a182.23 182.23 0 0 1 6.291 6.949c.662 1.315 1.385 2.39 2.255 2.654 2.365 2.839 4.701 5.799 7.017 8.859-1.603-.203-3.249-.189-4.652.584-2.387 1.314.003 2.629 0 4.413s.826 3.057 2.255 1.347c1.417-1.692 4.231-3.822 5.556-2.084l.966 1.322.627.879 1.902 2.697c.773 1.19-1.707 3.452-4.773 3.334-3.089-.117 3.341 3.747 2.863 5.026s1.667 3.423 2.619 1.756.181-5.072 2.048-6.105l4.513 6.814c-1.453 2.002-2.216 4.663-3.199 5.653-1.115 1.129 4.093 2.323 8.157 2.184 4.549 7.352 9.002 14.992 13.379 22.79-.708 2.254-.958 4.908-1.164 5.763-.257 1.062 2.668 2.807 6.133 3.217l13.045 24.524c-1.211 1.796-2.932 4.841-2.077 6.694.702 1.521 4.602 3.284 7.926 4.552l5.923 11.085c-1.699.139-3.544.598-4.922 1.664-2.269 1.748 1.656 9.471 1.243 12.039s2.899.951 6.761 0c1.389-.342 2.023-2.151 2.18-4.338 16.371 28.457 32.097 48.907 42.865 48.907 0 0 7.737-.649 13.992-.649s9.557 2.679 9.557 8.585c0 3.256-.474 4.114-.897 6.166-.325 1.578-1.728 2.7-3.338 2.7h-3.559c1.115-4.83-3.159-8.471-4.776-8.471 0 0-.047 4.692-8.517 8.015-.698.274-1.699.456-2.601.456h-13.243c-1.322 0-2.59-.513-3.566-1.443l-7.829-9.332c.58-3.951 1.154-10.227-.581-12.521-1.564-2.073-6.889-1.653-10.893-.987l-13.08-15.16.011.011s.413-12.699-3.316-14.996c-2.604-1.603-7.684-1.361-10.811-1.072l-20.364-22.452c.851-3.719 1.966-9.664.669-10.647-1.211-.919-6.55-.207-10.301.438l-4.392-4.531c1.806-.093 4.399-.338 6.387-.42 3.861-.157 6.401-1.585 8.306-1.112s5.237 2.54 6.665.478-.794-3.808 0-6.348-1.906-5.396-6.665-4.919c-1.927.192.474 3.174 1.268 4.759s3.11 4.285-.826 4.128-8.061-1.905-10.28-2.222-1.785-4.125-3.908-4.125c-1.841 0-1.072 6.308-2.101 8.609-14.273-14.49-26.028-24.824-30.559-24.824-1.86 0-3.762-.488-5.821-.335-23.395-2.572-43.129-19.68-48.896-25.141-.648-.612-1.685-.092-1.632.798 0 18.587 16.023 26.979 16.023 26.979-29.736 0-61.257-8.702-88.731-16.325.894-3.266 1.157-6.903-1.724-7.769-1.333-.399-3.805 3.427-6.177 5.589l-13.5-3.576c1.097-2.768 1.795-5.728.356-6.807-1.582-1.186-3.031-3.106-7.284-2.543-3.117.416-7.467 3.718-10.298 5.539-5.019-.894-9.657-1.45-13.85-1.561 1.785-2.091 4.1-4.88 2.786-5.731-1.884-1.222-2.469-.869-4.613-.866s-4.527.357-4.257 2.444c.243 1.849.862 2.64 1.329 4.121-5.806.164-11.969.869-17.365 2.893-.691-1.685-2.323-3.377-3.726-3.317-1.991.086-4.549 4.763-2.985 6.64.057.064.142.103.207.16-3.071 2.277-5.539 5.34-7.057 9.436-.374-.206-.812-.374-1.325-.477-2.679-.549-4.217 3.092-1.428 4.071a10.21 10.21 0 0 0 1.66.446c-.36 1.888-.602 3.897-.602 6.155 0 21.369-7.053 34.096-15.275 41.697-1.114-.655-2.023-.897-3.786-1.549-2.23-.826-3.206-.915-3.302.435s.866 1.816.88 3.587c.007.812-.225 1.724-.239 2.422-9.653 5.938-18.875 6.319-18.875 6.319s6.654 16.221 13.301 29.786c-2.277 1.186-7.207 4.185-5.426 7.11 1.771 2.91 7.994 3.081 10.722 3.01 2.13 3.711 4.043 6.493 5.454 7.541 16.973 0 22.448 8.128 23.552 15.541a1.71 1.71 0 0 1-1.688 1.966h-3.017c-1.129-5.742-6.27-9.026-11.719-9.026 0 0 2.301 3.056 2.301 6.992 0 1.347-.602 2.034-1.675 2.034h-10.397-9.789c-3.056 0-5.699-2.041-6.565-4.973-4.132-14.002-18.829-30.904-27.164-42.164 3.719 1.283 5.945 2.796 6.761 3.943 1.015 1.429 12.923-1.478 10.786-4.798-2.433-3.783-9.992-8.103-10.694-6.885s-1.043 7.694-3.665 6.511-2.479-5.528-3.95-6.055c-.602-.214-2.002.577-3.085 1.678-1.254-2.066-2.045-3.776-2.045-4.941 0-1.265.378-2.533.984-3.89 1.766-.085 4.36-.452 5.97-1.268 2.65-1.336 5.364-5.165 5.574-7.469.153-1.692-2.201-5.686-3.804-7.385 1.061-3.476 1.802-7.573 1.913-12.47.124 1.852-.186 3.419 1.289 6.686 2.515 5.56 1.393 5.674 5.995 7.53s6.522 2.108 8.481.032-.06-7.131-2.65-6.366-3.776 1.283-5.614.171-4.231-.623-2.678-4.709 2.358-1.685.381-6.166 14.387-12.075 10.366-12.107c-4.008-.032-7.741.926-10.904 2.483-1.646.812-4.153 1.303-5.738 2.361-3.256-14.789-13.226-34.58-22.908-54.56 2.134-3.238 3.826-6.045 4.509-8.289.902-2.963 4.517-3.401 6.067-.021s4.88-.691 4.88-.691c-.698-3.437-.951-5.546-5.087-6.483s-6.226-3.459-9.151.627c-1.642 2.294-4.139 3.551-5.902 5.065-3.829-8.114-7.431-16.132-10.302-23.713-1.225 0-2.472.136-3.726.342-1.663-2.892-3.622-8.83-9.282-7.783-2.928.542-3.602 5.301-2.483 7.894s.171 2.059-2.166 3.943-4.855 1.272-6.027-.545-2.65-3.858-4.766-3.658-4.652 1.382-5.343 3.37c-1.507 4.331 2.027 9.888 3.811 11.9a181.12 181.12 0 0 0-6.361 5.881c-5.201-2.212-11.769-1.699-15.944 2.391-2.43 2.379-2.298 5.795-1.945 8.427.242 1.817 1.549 3.669 2.96 4.706l-11.73 13.108c-2.337-.595-5.03-.815-7.035-.83-4.374-.032-9.411 1.015-10.9 3.188-1.521 2.219-.634 9.992 5.439 11.752l-15.402 16.795c-1.026-2.145-6.661-1.322-11.57-1.233-5.905.107-7.434 5.71-8.224 7.003s-2.75 4.702.559 6.038c1.945.784 8.104-2.319 12.952-5.329-5.579 5.635-11.257 11.003-17.031 15.947-2.614-3.437-10.194-4.912-13.144-4.377-4.028.73-7.797 1.777-8.98 3.747s-4.295 10.141-.342 11.064c1.796.42 6.48-.324 11.15-1.457-15.388 11.213-31.386 18.612-47.896 18.612-3.291 0-6.39-.2-9.397-.485 4.955-2.76 11.395-5.439 10.594-9.332-.406-1.985-20.45-2.245-25.373-1.326-4.157.777-.976 5.358 1.631 8.368-16.866-4.471-27.884-13.896-33.697-24.628 3.06.181 6.312-2.216 7.851-6.024 1.788-4.431-8.923-10.059-12.681-9.678-.103-1.15-.185-2.297-.185-3.434a17.21 17.21 0 0 1 .837-5.339c2.835 3.248 6.789 7.06 9.561 7.088 4.26.039 3.904-3.149 3.833-4.559-.171-3.384-1.065-6.779-1.87-8.528 5.454 3.559 7.972 15.83 16.475 25.907-4.784-1.001-9.778-1.656-10.797-1.079-2.02 1.15 1.126 7.558 1.756 11.32s4.203 3.256 8.656 2.337c2.785-.574 6.362-2.928 8.403-5.361 6.362 4.267 14.953 7.181 27.082 7.181a38.35 38.35 0 0 0 6.611-.595c-3.712 3.167-3.751 9.329-.025 10.508 3.986 1.258 15.716-4.716 18.06-8.88 1.492-2.647-4.41-4.032-9.938-3.876 9.25-3.537 18.216-10.208 27.296-18.889 3.911 1.043 9.959 1.963 11.737-1.108 2.051-3.551 1.328-8.424.491-11.587 3.167-3.509 6.366-7.192 9.614-11.014 1.771 3.505 3.958 7.359 4.937 7.113 1.778-.445 4.325-2.44 6.18-4.509s6.202-15.634 1.789-15.129c-.88.1-1.942.396-3.085.798l11.284-13.55c3.534 1.6 7.94 2.529 9.711.385 2.864-3.469 4.149-11.751 1.492-13.408-.014-.01-.039-.007-.053-.017 6.525-7.456 13.357-14.908 20.578-22.114 4.11 1.443 10.622 3.203 12.022 2.362 1.788-1.072.68-9.087.527-14.227 3.092-2.757 6.258-5.443 9.496-8.061.043.054.061.118.139.146 2.084.809 8.282 4.008 9.379 2.283.855-1.35.73-6.639.527-10.105 2.148-1.546 4.328-3.056 6.544-4.524a23.53 23.53 0 0 0-1.514 2.518c-3.89 7.491 15.011 5.472 19.438 1.653s7.979-9.304 6.732-12.171c-1.015-2.337-6.799-1.414-9.884-.852 22.227-11.954 47.724-19.57 77.678-19.57l20.788.239c1.482 2.137 7.103 4.378 6.387 5.286-.837 1.054-3.805 2.615-2.797 3.993s4.453 4.538 5.739 3.252 2.159-2.433 1.574-4.221-.107-3.665 1.279-4.969 7.794-.72 6.636-2.205c-.189-.242-.577-.481-1.065-.72l15.541.456c-5.93 2.33-8.046 5.194-8.883 7.149-1.069 2.501-1.29 7.192 3.191 8.952s6.006 2.358 9.857 1.386 4.876-3.288 4.381-4.3-5.5.417-7.712-.078-6.159-2.183-5.856-4.249 3.366-6.152 11.961-8.132c2.996-.691 7.727-.566 8.556 2.882s-3.277 7.085-4.972 7.997-2.045 2.03 1.229 2.315 6.604-1.436 7.68-3.156 1.503-5.895.908-8.1c-.153-.566-.499-1.3-1.087-2.037l48.694 1.717c-2.376 1.639-5.4 4.887-7.758 6.123-2.757 1.446-7.986 5.553-6.644 7.655s5.611 5.731 7.723 4.481.492-7.559 2.451-9.475 5.439-6.91 7.872-5.29 7.509 5.77 10.604 5.058c3.452-.798-.028-6.077-2.458-6.935-.862-.306-2.155-.834-3.565-1.332l23.285.741c-1.112.716-1.966 1.457-2.191 1.621-.456.331-3.872-.598-6.248 1.09s-2.201 4.438-2.066 6.02-3.255 4.435-2.775 6.512 3.951 3.583 6.904 2.903 4.695-3.619 4.392-4.93-4.314-.734-4.77-2.704.513-2.768 2.326-4.203.342-3.156 1.446-3.412c2.188-.502 4.98 1.108 7.345 1.386s3.573-.495 4.403-2.889c.157-.456.128-.826.018-1.158l15.669.271c-2.336 2.376-3.213 6.18-2.785 8.036.499 2.162 4.428 4.264 6.518 4.848s3.577-2.361 3.584-4.085-3.708-2.016-3.787-4.129c-.074-1.92 1.967-3.786 2.693-5.001 2.326-.388 4.991-1.118 7.962-2.137.285 1.524.11 3.167-1.201 2.892-1.813-.381-3.078 2.269-2.337 3.833s3.997.007 6.145-1.414c1.728-1.15.687-4.118-.289-6.134a147.91 147.91 0 0 0 5.493-2.159c2.714 2.184 6.732 4.816 8.962 3.409 2.002-1.268 2.113-5.062 1.824-8.154l10.031-4.67c-.171.502-.228 1.029-.1 1.503.456 1.671 3.936.705 6.298-.321 1.499-.652 1.499-2.725 1.136-4.631l22.234-10.148c.916.755 2.312 1.66 3.445 1.286 1.503-.499 2.989-2.754 3.587-4.317 9.699-4.1 19.951-8.082 30.573-11.595 2.241.93 5.91 2.251 6.886 1.339 1.068-.994.915-2.882.773-3.765 8.37-2.533 16.941-4.734 25.647-6.419l-1.311 3.64c-.032.239-.089.502-.1.716 0 .057-.004.114-.007.167-.182 5.201 5.671 8.424 10.141 5.76l2.764-1.646c-.003 0-2.636-2.038-2.515-4.257.805-14.886 22.883-25.825 22.887-25.825-1.717 8.029-3.819 17.846-.168 22.43 2.312 2.903 7.719-.032 7.491-2.59-1.197-.239-1.877-.987-2.255-2.027a49.1 49.1 0 0 1 7.214.684c.427 1.396 1.563 4.289 3.636 4.381 1.853.082 4.118-1.012 5.401-1.735 6.589 2.874 11.829 7.459 16.189 13.486 9.668 13.372 21.786 13.928 21.786 19.449 0 1.136-6.426 3.651-6.426 3.651zM530.581 235.637c-.541 4.406-1.82 9.001-3.433 13.436-1.945-.463-3.612.812-5.454 1.66-2.244 1.029-5.129.388-6.946 1.243s-2.244 4.385 0 5.026c1.5.427 4.962 2.404 6.864 4.652-4.075 7.986-7.957 13.675-7.957 13.675 0 1.204.448 2.636 1.243 4.221-1.226-.278-1.999-.207-2.116.823-.196 1.695.709 3.387 1.613 4.972s2.982 2.344 2.02 4.04-4.713.591-5.685-2.234-1.029-5.083-2.468-3.729-2.964 4.52-1.635 5.763 3.522 2.711 6.155 3.84 3.872.114 5.792-1.015 3.266-2.917 1.713-4.787c1.208 1.407 2.551 2.846 3.99 4.306-.784 2.219-1.557 5.258-.923 6.487.602 1.168 4.478-.143 6.693-1.008a152.99 152.99 0 0 0 10.476 8.548c11.947 0 21.44 9.871 23.1 16.183.285 1.079-.538 2.13-1.653 2.13h-6.376c-1.71-5.208-6.465-7.569-9.788-7.569 0 0 1.574 3.369 1.574 5.973 0 .837-.805 1.596-1.703 1.596H529.88c-4.118 0-6.141-1.143-8.246-6.105-1.814-4.268-5.661-9.226-9.939-14.43.83-1.963 1.789-4.759 1.087-5.867-1.133-1.781-5.03-1.785-8.186-2.768-6.077-7.569-11.349-15.181-11.349-21.636 0-2.974 1.924-9.76 4.282-16.962 1.977 2.012 4.011 4.367 4.723 6.458 1.379 4.061 4.905 1.923 6.508 1.816s1.71-3.74 1.283-5.556-2.245-2.458-5.557-2.351-5.13-1.927-4.168-3.423 3.527-3.847 3.206-5.45 1.71-6.523 4.488-6.523 3.847 5.24 6.629 4.813 5.14-7.723-3.256-9.365c-1.517-.299-4.669.246-7.056.342l1.788-4.709c10.095 1.82 24.393 1.706 24.393 1.706.047.567.15 1.158.071 1.778zm-279.198-33.142c-2.774.492-8.028.549-8.969 3.356-.434 1.286-2.81 3.58 2.102 4.509 1.702.325 2.682.577 3.384.784a63.57 63.57 0 0 1-2.148 3.925l-.901-.181c-4.278-.866-7.36-.239-7.784-2.729s-4.815-.905-1.389-4.492.207-3.985 4.952-5.663 8.185-6.373 4.79-5.778c-5.293.93-11.558 2.401-11.886 4.339s-7.609 6.443-3.544 10.045 6.732 7.145 8.873 10.315c.53.784 1.043 1.464 1.56 2.027a117.82 117.82 0 0 1-5.236 6.408c-2.209-.349-5.365-.627-6.348.442-.851.926.31 3.067 1.539 4.834l-4.303 4.413c-3.192-2.792-7.651-5.047-8.182-4.125-.705 1.215-1.044 7.691-3.669 6.512s-2.479-5.529-3.95-6.056-7.823 4.976-2.241 6.384 8.749 3.412 9.764 4.84c.071.1.21.175.377.235l-3.17 3.117c-1.321-.313-5.161-.609-7.438.132-2.824.915-6.091 4.289-6.65 6.533-.338 1.353.762 4.492 1.899 6.643-3.858 5.019-6.398 9.917-6.829 14.811-.719-.723-1.553-1.218-2.319-1.182-1.991.085-4.548 4.762-2.985 6.639 1.097 1.315 3.822 1.211 5.546.264.563 3.277 1.803 6.223 3.406 8.944-1.03-.555-2.041-.776-3.338-.769-1.831.01-4.374.555-3.156 2.29s2.875 3.306 4.588 3.306c.83 0 2.654-1.397 3.281-2.604 9.065 12.937 26.965 19.894 26.965 26.787 0 1.125-.513 2.443-2.733 2.443 0 0-3.038-5.56-7.633-5.56 0 0 4.876 5.81-4.417 5.81-12.905 0-22.68-5.465-25.618-7.039-3.071-1.642-5.14-3.708-5.14-7.003 0-11.206-1.233-20.368-2.433-28.497 2.571-.769 6.878-4.246 5.546-5.207-1.653-1.197-2.497-1.333-4.727-2.159-.841-.313-1.453-.47-1.956-.534-.627-4.563-1.1-8.891-1.1-13.141 0-3.159 4.185-8.086 10.664-14.668 2.487 3.198 6.95 4.47 7.805 3.882.983-.676-.677-3.441-.463-5.101.196-1.513-2.034-1.959-3.359-2.771l4.353-4.292c.502.509.929 1.122 1.293 1.72.78 1.29 4.135 1.229 4.627-1.72.317-1.909-.627-3.199-1.632-4.239 5.661-5.624 11.887-11.961 18.135-19.014.534 2.896 2.504 6.016 2.572 7.038.124 1.853-7.68.916-7.156 3.274s8.078 6.618 12.018 3.975-2.996-8.146-2.387-10.454 2.985-.567 4.307-2.173c1.133-1.375-2.358-5.953-4.848-6.882 4.189-4.973 8.321-10.255 12.236-15.848 1.777.773 10.632-2.654 6.454-4.395-1.247-.52-2.08-.919-2.782-1.037 3.48-5.361 6.725-10.978 9.6-16.856 4.898 11.477 4.987 21.786 2.183 31.193zM727.336 45.116c-13.248-17.354-25.337-21.127-39.956-21.9.694-4.029 1.589-7.498 1.589-10.248 0-6.298-4.656-7.042-9.383-5.578-11.11 3.445-19.602 10.155-24.909 17.251-66.65 8.699-124.601 50.175-151.513 50.175-32.945 0-147.95-3.954-173.668-3.954-147.174 0-193.816 166.947-249.355 166.947-37.238 0-31.065-42.122-53.135-42.122-12.239 0-20.257 11.014-20.257 26.641 0 22.943 20.005 55.13 71.658 55.13 71.758 0 134.493-125.392 165.565-125.392-13.305 52.84-76.93 90.726-76.93 108.707 0 11.513 2.768 13.458 4.816 52.968.224 4.31 4.406 9.493 8.353 11.712 0 0 14.116 8.909 32.009 8.909 10.394 0 11.783-2.073 11.783-2.073s2.707 1.706 7.836 1.706c4.435 0 8.923-2.985 8.923-8.043 0-21.458-34.626-25.529-34.626-46.392 0-23.563 58.848-31.578 70.133-48.776.256-.384.616-.641.905-.965.644 1.916 1.011 3.786 1.011 5.614 0 23.68-11.733 24.297-11.733 32.724 0 10.779 30.324 31.567 36.422 55.686 1.453 5.756 7.292 10.519 13.233 10.519h25.679c5.71 0 8.118-4.862 8.118-4.862s.573 4.862 4.346 4.862h6.173c5.489 0 8.046-4.421 7.683-8.449-1.279-14.149-12.218-26.292-30.274-27.834-9.023-7.139-14.148-31.528-14.148-31.528s37.49-11.666 37.49-58.543c0-7.223 1.243-6.586 1.243-6.586 55.462 0 92.212 24.778 131.697 29.451 0 0-11.042 31.485-11.256 44.23-.253 15.2 24.998 32.497 31.31 50.706 2.102 6.067 5.821 8.553 12.489 8.553h20.371c5.771 0 7.388-4.862 7.388-4.862s-.089 4.862 3.42 4.862h9.115c4.385 0 7.94-3.128 7.94-7.384 0-26.641-30.944-31.029-30.944-31.029-11.245-9.889-16.859-17.084-16.859-19.296 0 0 24.838-14.359 30.516-44.501 4.702 0 17.732-5.571 17.732-5.571 7.805 0 83.363 92.101 101.006 106.395 1.065.862 2.301 1.425 3.64 1.386h18.84c8.489 0 10.694-4.862 10.694-4.862s-1.026 4.862 3.661 4.862h3.79c4.471-.125 9.037-2.978 10.519-7.192 1.357-3.858 2.957-8.513 2.957-14.437 0-12.627-10.63-16.022-19.784-16.022-7.01 0-12.841.634-12.841.634-7.737 0-28.974-32.547-44.893-66.853-16.799-36.19-26.17-55.169-38.755-75.309 4.175-16.004 42.135-45.516 54.179-45.516 12.214 0 17.771 17.34 32.315 16.564 12.67-.677 18.597-13.134 18.597-13.134l-1.396-.808c1.56-1.707 3.929-5.073 4.602-10.366 0 0-3.498 5.151-8.713 6.754 0 0-22.736-15.809-11.904-24.653 8.535-6.974 25.686 4.367 25.686 4.367-1.09 3.851-3.683 8.67-3.683 8.67 4.862-1.318 8.029-4.641 9.518-6.519 6.547-.349 10.896-8.841 10.636-13.696 0 0 6.123-4.958 6.123-10.291 0-5.906-13.739-9.575-22.793-21.44zm-55.623-6.093c2.066-.723 3.673-3.32 2.326-5.047-1.35-1.738-2.005-3.152-2.287-4.257-.256-.997-1.492-1.35-2.176-.577-2.009 2.273-4.57 5.806-4.755 9.194-.189 3.541 3.408 1.906 6.892.688zm33.728 28.912c-2.195 1.133-1.732 3.405.032 3.498 1.702.093 3.907-.798 3.679-2.116s-2.668-1.92-3.711-1.382zm16.177 3.521c-1.777-.784-2.586.73-1.617 1.998.68.891 2.697.98 3.181.128s-.776-1.778-1.564-2.127zm-6.364-2.912c-2.757-1.532-4.845.57-3.698 2.511 1.108 1.874 4.036 2.9 5.272 1.721s-.263-3.505-1.574-4.232zm-48.847-6.415c3.776-1.731-1.895-5.179-4.149-4.314-1.607.62-.293 6.348 4.149 4.314zm25.324-7.531c-2.158-.096-4.046 6.526.834 6.743 4.663.21.915-6.665-.834-6.743zm-13.74 6.665c-.442 1.371 1.585 3.234 3.925 2.956 1.425-.164 2.048-3.576 1.339-4.745s-4.823.417-5.264 1.788zm-5.824-11.446c-1.581-.071-3.747 9.09-.42 9.393 1.956.178 6.255-3.284 6.333-4.994.079-1.781-3.626-4.296-5.913-4.399zm-80.519 56.763c-3.224 1.15-3.466 8.021-.421 9.393 4.093 1.848 6.255-3.284 6.334-4.994.078-1.781-1.81-5.867-5.913-4.399zm76.912-41.027c-.656.862-.396 4.264 1.083 5.667s5.642-2.112 5.297-3.566c-.375-1.564-5.725-2.964-6.38-2.102zm2.533-19.806c1.439 1.236 4.93.363 2.59-1.61-3.014-2.536-3.427.89-2.59 1.61zm14.837 2.032c2.604-.353.808-7.067-1.332-7.16-1.76-.078-3.064 2.846-3.135 4.492s1.863 3.021 4.467 2.668zm5.325-11.248c-1.892.167-3.701 3.277-.656 2.978 3.922-.388 1.753-3.074.656-2.978zm-113.019 57.79c-1.892.167-3.701 3.277-.656 2.978 3.922-.388 1.753-3.074.656-2.978zm113.325-48.192c-1.895.107-1.56 3.487 1.5 3.413 3.939-.093.459-3.523-1.5-3.413zM665.807 75.89c-3.014-2.54-3.915 1.884-3.078 2.604 1.443 1.236 5.418-.634 3.078-2.604zm18.098-21.865c1.439 1.236 4.93.363 2.589-1.61-3.013-2.536-3.426.891-2.589 1.61zm-16.78 29.85c-1.638 1.094-1.453 5.101-.452 6.048s5.443.748 5.418-2.454-3.655-4.467-4.966-3.594zm-2.667-34.09c-.256-1.314-2.436-2.347-3.804-1.097-1.264 1.158-1.895 4.086.071 4.527s3.99-2.116 3.733-3.43zm-10.782 15.61c.884 2.764 7.769-1.667 4.998-4.121-1.55-1.371-5.881 1.357-4.998 4.121zm-53.769.549c1.03.036 2.262-.933 2.405-1.688s-.731-1.421-1.504-1.553c-1.517-.264-1.93 3.206-.901 3.242zm45.702-21.713c1.756-1.45 2.055-4.627-.1-4.702-5.436-.189-1.656 6.152.1 4.702zm-2.169 9.059c4.866.331 1.589-6.326-.36-6.283-2.35.05-3.53 6.02.36 6.283zm3.893 2.644c-2.176-.37-3.697-.228-4.663 1.101-.979 1.354.588 4.634 4.431 4.638s6.052-4.135 4.991-4.495-2.219-.812-4.759-1.243zm-8.51-11.484c2.394-.32 2.088-1.314.674-3.387s-2.935-1.721-4.574-1.008c-2.935 1.275 1.507 4.716 3.9 4.395zm7.354 21.462c-.716 1.126-.467 3.17.73 3.395s4.196-1.777 4.043-3.167c-.089-.826-4.057-1.354-4.773-.228zm-13.499-14.448c2.098-.834 3.049-6.095 1.14-6.622-1.799-.495-6.416 1.56-5.856 3.879s2.625 3.573 4.716 2.743zm.498 5.238c-2.654.723.777 4.884 2.127 5.639s3.886-1.418 3.384-4.061-4.136-1.952-5.511-1.578zm7.618 8.557c-1.706-.834-5.599 1.785-4.819 3.95.837 2.33 4.897 4.31 5.799 1.778.538-1.507.299-5.105-.98-5.728zm-37.325 30.565c-2.942.331-5.617 3.409-4.264 5.671.809 1.347 5.112 1.471 6.116-.128 1.072-1.703-.128-5.735-1.852-5.543zm31.415-21.495c-1.147 1.272-1.496 4.246.506 4.499s3.765-2.486 3.387-3.772-2.65-2.102-3.893-.727zm-12.057 6.502c-.73 1.642.011 4.014 1.813 4.071s6.376-4.061 4.375-4.752c-1.539-.534-5.457-.962-6.188.68zm4.819-23.285c.409-1.403-2.572-3.405-4.243-3.313s-1.799 4.609-1.004 5.261 4.769-.321 5.247-1.949zm-2.817 6.238c-1.471 1.104.556 5.557 2.362 5.453s4.132-2.03 4.192-3.637c.068-1.97-5.083-2.921-6.554-1.817zm2.531 9.039c-1.111 1.24.15 4.549 1.575 5.183s3.911-2.173 3.815-4.239c-.068-1.471-4.278-2.183-5.39-.944zm-43.299 4.022c2.234.627 5.486-4.641 4.966-6.974-.62-2.782-6.494-1.87-8.275-.217s1.076 6.565 3.309 7.192zm23.691 11.265c-1.781 1.653 1.079 6.568 3.309 7.192s5.485-4.641 4.965-6.975c-.62-2.778-6.493-1.87-8.274-.217zm8.711-15.288c-1.699 1.143 2.671 11.534 6.102 3.42 1.513-3.58-4.403-4.563-6.102-3.42zm-.526-5.936c.014.598.409 2.141 1.998 2.233s2.59-.851 2.857-1.614c.566-1.606.388-3.989-2.066-3.886-2.102.086-2.8 2.668-2.789 3.266zm-1.23-10.103c1.578.16 2.917-.905 3.726-2.675 1.058-2.319-.823-5.179-3.163-5.325s-4.745 3.021-4.652 4.253 2.511 3.587 4.089 3.747zm-7.262 10.004c2.664 1.403 4.648-1.998 5.186-3.16 1.037-2.244-3.63-3.872-5.325-3.523s-2.526 5.279.139 6.682zm4.271 5.976c-2.422-1.222-10.127 1.435-10.637 3.455-.968 3.84 5.856 8.374 8.065 8.264 3.53-.182 4.994-10.497 2.572-11.719zm4.886 10.374c.117 2.005 2.97 2.611 3.608 1.984s.933-2.401-.207-3.22c-1.04-.745-3.519-.769-3.401 1.236zM575.131 68.67c-.734-1.183-3.103-2.062-3.783-.976-1.251 1.988 1.229 4.356 3.131 4.307 1.592-.043 1.385-2.148.652-3.331zm26.309-11.311c1.557.075 2.971-.232 4.114-1.261 1.311-1.179 1.436-4.734-2.689-4.994s-4.595 3.405-4.577 4.413 1.595 1.767 3.152 1.842zm-10.441 5.638c3.003.093 3.473-1.354 3.437-3.067s-2.561-2.86-4.791-1.813c0 0-2.856.933-2.96 1.895s1.311 2.892 4.314 2.985zm.038 9.009c.078 1.532 2.693 2.119 3.79 2.059s3.872-1.225 4.082-2.148-.958-2.956-2.447-3.387c-2.465-.712-5.504 1.945-5.425 3.477zm-12.542 11.539c.414.898-2.653 5.347-.331 6.052s5.422-3.113 6.237-5.076-1.848-2.191-3.743-3.469-3.637-4.025-6.12-3.348c-2.889.791 3.544 4.944 3.957 5.842zm-13.619-5.073c2.821-.328 6.076-1.044 6.372-2.429s-5.005-5.001-6.732-4.599c-2.757.645-3.822 2.209-3.737 3.851s1.275 3.505 4.097 3.177zm-.575 17.956c-2.835.053-3.245-.841-1.792-4.666s-.751-9.155-2.985-8.268c-4.495 1.785-2.219 8.531-1.35 9.404s-.655 3.327-.858 4.709 3.017 1.77 6.166 4.261 7.006 1.015 7.797-1.404-4.143-4.089-6.978-4.036zm3.345-11.287c-.859 2.882 2.974 4.517 3.64 2.743s-3.045-4.741-3.64-2.743zm-16.918 1.728c-.409-1.339 2.077-2.657 1.308-4.406s-6.786-4.136-9.907-4.061c-2.08.053 4.001 8.36 5.586 9.13s1.667 2.978-.937 5.261-1.357 6.768 1.51 5.942 3.024-3.726 4.335-7.028-1.485-3.498-1.895-4.837zm48.596-1.632c-2.946-.923-8.528-1.044-7.772-.114s1.966 4.805.26 6.162-7.363.873-7.26 2.942 4.873 6.739 7.912 5.816-.859-5.588 2.176-6.832 8.723-6.711 4.684-7.975zm-225.501 55.72c1.054-1.379-3.491-4.406-6.202-4.36-2.557.043-3.765 3.362-2.718 4.296s2.529 1.695 5.721 2.005 2.144-.563 3.199-1.941zm-13.61-6.96c-3.116-.41-6.864-.773-7.751.687s4.236 5.084 5.653 5.294c1.789.267 5.215-5.571 2.098-5.981zm-8.584 14.722c1.956.745 4.656-1.421 4.809-2.572.153-1.146-.645-3.145-1.617-4.716s-5.037-2.889-6.811-2.963c-1.4-.061-.887 3.241-.331 4.605s1.994 4.902 3.95 5.646zm11.843 5.867c.075-1.813-4.574-3.883-6.28-3.915s-6.597.966-6.323 2.016 4.339 4.795 6.697 4.841 5.838-1.325 5.906-2.942zm9.024-9.734c-1.307.798-1.67 4.802-2.201 6.159s-.841 5.407 1.161 5.859 4.837-1.425 6.195-2.45.153-5.069-.1-6.832-3.181-3.883-5.055-2.736zm-7.328 5.062c.263-1.333-2.914-5.849-3.783-4.179-1.55 2.978 3.519 5.511 3.783 4.179zm4.399 14.594c-2.469-.395-8.902-1.097-7.47.859 1.322 1.806 3.665 2.55 5.756 2.169s3.598.424 4.496 1.578-.909 2.59-2.426 3.195-5.963-1.115-6.707.253.071 4.264 2.885 4.923 8.118-3.017 9.614-4.495.075-2.533-.94-4.029-2.74-4.057-5.208-4.453zm-15.741 4.922c-.463-1.467 2.369-4.442.612-4.837-3.501-.784-9.026-.071-9.635 1.019s1.407 2.611-.064 3.398-3.751.641-2.807 2.436 4.966 3.701 7.794 4.04 7.73-1.033 8.139-2.683-3.576-1.905-4.039-3.373zm-41.22 139.105c1.308 1.881 8.097-1.464 8.097-1.464 1.831-2.785-4.182-6.134-6.341-5.87s-3.063 5.453-1.756 7.334zm-10.054-19.546c-.904 3.338.442 7.733 2.408 8.357s7.035-1.048 6.722-3.47c-.428-3.345-8.225-8.225-9.13-4.887zm4.479-13.396c-2.547 1.816-2.297 7.594-.534 8.645s7.854 3.345 7.993 1.663c.146-1.813-2.347-6.393-2.935-8.146s-1.977-3.979-4.524-2.162zm-117.476-24.586c-7.31 1.813-.912 10.558-.788 12.414s-5.521 5.56-5.521 5.56 6.444 4.331 10.384 1.688-2.996-8.146-2.387-10.458 2.985-.563 4.306-2.169-3.661-7.612-5.994-7.035zm110.016 35.86c1.713.791 1.696-3.241.773-3.815-2.408-1.503-2.486 3.024-.773 3.815zm-111.146 8.947c-1.571.68-5.19 1.474-4.239 2.849 1.129 1.635 2.215 2.397 3.971 2.921s4.346.752 3.687-1.264-1.849-5.187-3.419-4.506zm-3.304-34.809c.278-1.443-.677-2.782-2.7-3.195-2.682-.549-4.221 3.091-1.428 4.071s3.85.566 4.128-.876zm126.011-10.795c-2.683-.548-4.221 3.092-1.429 4.072s3.851.566 4.129-.876-.677-2.782-2.7-3.196zm-51.516-125.4c.456-1.938-2.03-5.375-4.022-5.29s-4.545 4.763-2.985 6.64 6.476.905 7.007-1.35zm-74.722 160.058c-1.707 1.026-2.433 5.208-.98 6.572s6.583-.068 6.836-2.497-3.869-5.272-5.856-4.075zm110.193-78.123c-1.991.085-4.545 4.766-2.985 6.64s6.476.908 7.007-1.347c.456-1.941-2.03-5.379-4.022-5.293zm50.038-98.656c-1.069 1.632.709 5.839 2.059 7.249s3.754.218 5.094-.773 2.205-3.583 4.324-2.133-.41 5.328 1.243 6.871 4.638-1.076 6.401.509-4.748 3.156-4.969 4.496 2.479 6.073 4.588 7.277 2.664-2.312 3.587-3.224c2.639-2.6 6.846-7.274 2.077-9.942s-5.265-4.587-7.11-6.846-4.211-4.011-7.641-4.132-8.584-.983-9.653.648zm8.52 18.171c1.631-.445 1.25-4.314.092-5.674-1.018-1.204-1.667-1.899-3.53-1.536s-5.193.667-3.195 2.74 5.001 4.915 6.633 4.47zm-4.761 7.111c.441-1.211 2.379-2.301 1.439-4.096-1.083-2.066-1.4-1.617-4.513-2.639s-8.09-1.696-7.146-4.382 3.729-3.145 3.455-5.745.018-4.823-2.166-6.042c-2.183-1.214-3.807-1.531-5.831-.01s-5.617 3.996-3.729 6.387 4.004 4.598 3.783 6.764-3.145 3.466-.841 5.717 5.094 3.576 7.377 4.449 7.73.809 8.172-.403zm-.598 49.807c-1.015 1.521-4.517 1.627-8.186 4.983s.239 5.368-.894 8.62-2.529 4.852-3.238 7.156 4.435 9.778 8.165 8.14c3.013-1.329-3.345-7.043-3.053-10.277s1.749-3.548 1.546-6.098 3.437-5.749 4.492-7.256 2.183-6.789 1.168-5.268zm-9.045 33.033c-1.663-.217-9.108-3.75-12.271-4.306-2.931-.517-4.481-.948-4.239 1.314s8.389 4.239 15.014 7.26-2.123 2.529-2.354 6.721-1.678 4.068-5.09 5.415-3.174 3.288.826 6.711 2.821.431 6.54-2.811 1.478-2.347 2.233-7.658 2.501-3.965 3.434-9.778-2.426-2.65-4.093-2.868zm-22.705 1.961c-2.889 1.582 3.94 6.726 3.933 9.974s-1.436 3.687-1.012 6.209-2.924 6.023-3.843 7.619-1.586 6.953-.706 5.347 4.357-2.013 7.719-5.675-.701-5.329.146-8.663 2.098-5.054 2.601-7.412-5.265-9.358-8.838-7.399zm-5.765 14.627c2.586-1.674 2.497-1.503 2.437-4.146s-1.479-2.543-4.642-2.668c-3.01-.118-5.086 6.34-3.166 9.03s2.785-.542 5.371-2.216zm-10.458 26.47c-3.088-1.457-.869 10.547 3.391 12.004s3.869-.588 5.493-1.767.082-3.68-2.857-5.742-3.045-3.092-6.027-4.495zm-102.25-15.328c-.097 1.353.869 1.816.879 3.587s-1.139 4.064 1.404 3.416 7.11-4.296 5.749-5.283c-1.653-1.193-2.497-1.332-4.727-2.155s-3.209-.919-3.305.435zm17.382-13.102c.153-1.589-1.204-1.838-2.262-2.094-1.044-.253-.727 4.577 1.115 4.548s.994-.865 1.147-2.454zm74.616 35.881c.154-1.589-1.204-1.838-2.262-2.095-1.043-.253-.726 4.577 1.115 4.549s.994-.866 1.147-2.454zm39.726-66.039c-1.649-3.17-2.272-5.631-4.944-4.759s-8.948.389-4.178 5.173 11.455 4.067 9.122-.414zm3.369-16.045c4.317-.328 8.288-5.885 4.915-7.555-3.419-1.696-5.503-3.495-6.729.328s-2.504 7.555 1.814 7.227zm-4.151-17.192c7.27-.923 12.214-8.371 8.876-8.67-3.152-.285-7.117.538-11.441 2.404s-8.563 3.374-7.356 8.749-1.738 14.041 1.496 15.288 2.957.274 4.196-3.074-.003-3.27 2.113-8.983-5.155-4.791 2.116-5.714zm-.762-23.608c-3.391 2.259-2.6 2.088-9.343 4.118s-3.773-1.752-5.703-3.313-2.152-2.354-6.747-4.812-2.853 5.304-1.425 9.714 3.05 2.618 6.911 5.756 2.718 2.148 5.742 2.016 6.476-1.496 11.324-3.43 5.923-2.757 8.125-6.932c1.293-2.454-5.493-5.375-8.884-3.117zm-2.892-6.973c1.233-3.508-3.49-5.603-3.49-5.603-2.213.652-8.439 1.421-3.605 4.617s5.863 4.495 7.095.986zm-9.022-25.494c-4.064-1.456-12.62 8.004-16.553 12.14s.214 6.465 2.818 8.937 4.2-2.069 5.311-4.093 4.723-1.88 7.427-5.35 5.721 2.964 9.682.549c4.986-3.035-4.62-10.726-8.685-12.183zm-14.364 52.548c2.344 1.806 7.149 1.966 8.382 1.425s1.471-4.193 1.471-4.193c-5.935-1.325-12.197.962-9.853 2.768zm1.66 27.582c-2.828 2.205 2.006 2.963 7.025 2.465s2.272-1.903 4.228-6.059.264-4.987-.445-8.083-2.661-6.13-4.499-8c-1.568-1.589-10.515 3.594-9.137 6.458s1.82.741 6.65 2.333 1.618 2.654.802 4.976-1.795 3.705-4.624 5.91zm-13.102-5.524c.673-5.507.463-6.209 2.821-8.044s-1.157-4.791-1.157-4.791c-.852-1.553-4.471-2.546-6.761-.263s-2.315 3.772-2.13 6.066 1.471 4.171.94 5.749 5.614 6.789 6.287 1.283zm6.306 2.234c2.479 1.179 3.234-.495 3.234-.495s.096-3.109-1.542-4.324c0 0-4.171 3.64-1.692 4.819zm6.176 8.825c-1.675-1.56-3.317-1.182-8.004-1.086-1.008.021-1.586.092-1.963.174.114-.174.174-.431.028-.855-.68-1.966-3.106-2.244-4.63-3.348-4.627-3.345-9.027 5.247-2.433 6.935s3.252 1.272 6.739 2.369 2.853.634 7.224.702 3.007 1.528 6.889-.513-2.176-2.818-3.85-4.378zm10.223 11.377c2.615 1.286 3.127.73 7.01.63s-1.482-4.092-3.968-5.628c-2.693-1.663-5.657 3.712-3.042 4.998zm-12.256-62.592c-2.828-2.105-7.626-4.973-9.418-.791s2.419 2.387.256 6.982-3.953 4.474-5.172 7.021c-1.214 2.543-1.538 2.358-1.709 4.812s6.426 4.332 9.111 4.007c3.434-.413-3.149-4.89-1.318-8.695s8.214-3.494 8.735-4.331 2.343-6.9-.485-9.005zM276.15 169.62c-2.198-.716-5.607 6.08-3.031 8.638s3.608-.388 7.416-2.992-2.572-5.055-4.385-5.646zm54.246-68.333c2.334-.998-3.305-9.693-.313-11.484s4.983-2.102 7.078-.865 8.346 2.892 7.779 3.957.552 9.251 2.287 9.932 4.321-3.595 4.321-3.595c-.698-2.504-2.123-10.091-4.962-11.017s-11.324-3.484-12.624-4.431-6.301-.659-7.815 1.792-3.911 11.587-2.141 13.169 4.057 3.541 6.39 2.544zm11.495.303c2.091-1.179-1.464-3.491-3.658-4.93-1.713-1.122-1.681 5.467-.912 6.105s2.479.004 4.57-1.175zm-20.818 5.508c3.234 1.645 3.872-2.658 3.872-2.658-1.607-.007-7.107 1.012-3.872 2.658zm-26.621 28.52c-.017-2.971-1.845-10.084-3.914-13.358s-6.661-4.338-8.389-2.244-5.019 4.41-2.084 5.938 6.024.129 7.117 2.501 5.343 5.375 3.16 7.573-5.112 6.276-6.551 5.45c-1.054-.606-4.791-1.753-6.055-1.108-.912-.769-3.847-.819-6.907-1.04-4.428-.321-2.747-4.677-2.957-6.903s3.708-3.495 6.594-6.067 2.112-4.602.188-6.586c0 0-7.505-.83-11.598 3.758s-3.209 7.733-4.566 13.009 2.208 6.433 4.157 10.273 3.615.096 8.31-.007 4.673-2.562 6.626-4.898c1.738 3.134 3.106 9.126 5.966 6.632s10.918-10.55 10.903-12.923zm-12.363.119c1.678-.542-.338-5.707-.338-5.707-2.486-.384-5.482 1.65-5.482 1.65s4.143 4.598 5.82 4.057zm17.857-27.071c-4.798-.235-7.997.976-7.042 3.616s.891 2.376 4.691 3.088c3.224.602 7.149-6.469 2.351-6.704zm-.65-2.738c4.025.409 6.191 1.606 7.905 2.237s12.887-13.543 9.792-17.109c-2.444-2.818-5.069-5.45-8.079-4.716s-7.641 2.077-4.755 5.739 7.056 1.97 6.778 5.436-1.442 4.513-4.053 4.602-1.952 1.318-5.881-1.054-10.124-5.489-8.243-1.877 2.511 6.333 6.536 6.743zm-30.407 5.225c2.177 2.284 4.738.638 8.293.399s0 0 4.538-3.583 3.113-2.661 5.122-6.412-1.603-11.947-1.603-11.947c-3.883-2.786-4.802 12.667-7.452 13.151s-2.276-4.121-6.173-7.085-6.526 3.694-6.369 11.719 1.468 1.475 3.644 3.758zm274.504 11.559c1.732 2.255 7.605-1.289 10.623-3.22s-.535-3.85-4.115-5.026c-2.514-.826-8.239 5.992-6.508 8.246zm-15.052-16.775c.926-.427 6.853-4.018 6.629-6.18s-4.26-3.491-7.687-4.068c-2.732-.46.136 10.676 1.058 10.248zm-114.412 25.211c-2.732-.46.132 10.672 1.058 10.248s6.854-4.018 6.629-6.181-4.26-3.494-7.687-4.067zm127.222-19.09c1.746 1.005 2.255-2.116 2.305-3.989s-.883-2.465-2.305-2.754c-1.485-.303-1.745 5.739 0 6.743zm-164.486 10.067c1.931.175 7.146-4.773 5.051-5.525-1.506-.541-5.058 2.202-5.556 2.558s-1.425 2.793.505 2.967zm158.983-28.906c1.931.175 7.146-4.773 5.051-5.525-1.506-.541-5.058 2.201-5.557 2.557s-1.424 2.793.506 2.967zm-100.436 60.838c-3.569 1.332-3.173 9.81-1.214 10.095s3.612-4.096 4.951-6.422-1.991-4.325-3.737-3.673zm24.071 20.139c-.217-2.611-3.918-1.525-6.08-3.039s-2.843.428-3.737 1.717-4.331 3.933-6.062 3.156-1.097-6.187-.15-7.63 4.057-2.254 6.212-1.464 4.809 1.603 5.393 0-2.539-3.405-3.523-5.147-8.264 3.63-10.372 5.147c-4.008 2.889.473 12.047 2.44 13.023s3.615-1.599 4.851-3.17 2.54.67 5.771 1.208 5.475-1.19 5.257-3.801zm15.41-10.748c1.496-.706 2.639-1.471 3.822-2.455s-1.183-2.062-2.707-1.542-3.684-.174-5.258.638c-3.081 1.592 2.647 4.064 4.143 3.359zm-82.55-32.192c1.823-.848.135-1.546-1.7-2.754s-2.557-2.247-4.659-1.702c-3.882 1.004-2.212 5.086-.976 6.29s5.511-.986 7.335-1.834zm-4.445 11.815c2.593-1.365-3.416-5.297-5.835-3.961-6.5 3.601 3.242 5.325 5.835 3.961zm96.773 10.243c2.594-1.364-3.416-5.297-5.834-3.961-6.501 3.601 3.241 5.325 5.834 3.961zm10.015 39.675c1.478 3.031 5.909 1.325 5.026 0s-5.796-1.578-5.026 0zm-39.337-10.118c-1.172.245-4.317 3.601-2.717 4.488s7.875-.887 7.416-2.294-2.59-2.636-4.699-2.194zm-44.807-39.985c-2.465-.82-5.379-7.146-8.378-8.852-4.25-2.411-8.211 4.531-10.199 6.522s-3.312 7.021-3.661 10.875-4.157-.142-7.844 5.236 3.291 7.474 6.038 6.515 13.154-.235 16.873-.591-1.204-7.327-4.78-7.68-7.819 4.328-7.637 2.031 2.735-7.773 1.542-9.557 5.614-10.252 7.555-9.746 2.44 2.782 1.65 6.184 1.887 4.919 6.486 4 4.82-4.118 2.355-4.937zm5.551 19.037c2.39-1.315 7.762-.955 10.508-.709s2.508-2.397 1.232-3.687 1.874-5.396 2.366-8.656-2.188-3.099-4.791-3.501c-3.342-.52-1.792-3.152-4.538-3.031s-4.656 5.015-4.179 7.939 5.97-.416 8.36 0 .716 5.198-.598 6.391-5.853-1.193-9.913-2.568-5.137 3.761-4 6.03 3.163 3.106 5.553 1.792zm17.203 5.305c-1.682-1.371-5.486-2.635-9.999-1.56s-5.364.129-8.171.417-2.437 4.713-.485 6.28 3.655 4.941 5.546 3.07 2.501-5.585 4.574-5.311 3.555-1.068 5.496-.944 4.866 3.979 3.527 6.804 2.924 3.063 4.025 3.192 1.46-3.733 0-5.953-3.445-5.125-4.513-5.995zm-38.769 1.656c-.855 1.567 3.722 4.381 5.674 3.957s3.993-3.01 2.839-3.957c-2.166-1.781-7.658-1.567-8.513 0zm34.074 8.681c-2.094.217-2.867 3.972-1.984 4.563s1.984-1.143 2.536-1.952.891-2.76-.552-2.611zm96.754 60.566c-2.932.157-7.1 6.023-5.354 7.979s11.153-8.285 5.354-7.979zm-16.179 10.211c-2.351.535-3.099 4.168-1.497 4.275s3.954-.428 3.741-1.885-.706-2.739-2.244-2.39zm5.451 20.203c2.03.641 2.351-2.992 2.785-4.595s-1.353-3.171-2.785-2.782c-2.351.641-2.03 6.735 0 7.377zm-14.898 3.682c1.87-1.956 4.424-5.575 2.298-6.123-1.457-.378-4.424-.51-5.529.509s.595 3.402.424 4.509.937 3.06 2.807 1.105zm10.8-4.762c-1.246-.812-2.297.865-3.316 1.154s-1.532 1.143-1.022 2.077 6.294-1.956 4.338-3.231z"/><path d="M506.627 275.977c-.755-.238-1.77-2.483-3.997-2.917-1.189-.232-1.296.545-3.466 1.613s-1.863 3.082-1.15 5.81 1.895 4.032 4.616 5.575 2.38-1.899 2.533-3.915-3.356-2.134-4.659-2.896-.531-1.065-.809-2.077 3.242-1.595 4.072-1.478.413-.071.886 2.319 2.611.695 3.609 0-.88-1.795-1.635-2.034zm2.303 4.826c1.108.923 2.882.649 1.108-1.072-.63-.609-2.215.15-1.108 1.072zm7.729 22.15c1.236.275 5.763 1.92 6.461 0s-3.166-4.933-4.815-5.624c-1.632-.688-2.882 5.35-1.646 5.624zm14.953 1.647c-.549-3.566-3.031-5.315-4.246-3.43-2.679 4.156 4.794 6.995 4.246 3.43zm-11.93 1.623c-2.191 1.624 2.465 7.156 4.659 7.156s1.646-4.663 1.236-6.034-4.474-2.177-5.895-1.122zm54.594-148.926c-1.339.723-1.973.759-1.368 1.254s.31 3.103 1.297 3.683 2.397-.933 4.214-1.499 4.039.919 4.919.341-1.023-1.61-2.184-2.525-3.213.987-3.847 0 1.272-2.187 3.035-3.035.378-3.644-.919-3.288c-2.397.659-3.808 4.346-5.147 5.069zm11.354-2.203c1.692-.706-.196-1.881-.987-1.571-2.116.83-.705 2.276.987 1.571zm-5.078 9.404c.143 1.012.848 1.949 2.782 2.515s2.084 1.268 4.057.844 1.482-2.397 3.025-2.468 1.488.919 2.97.705 0-2.255-1.268-2.469-2.678-.491-3.369-1.257-.702-2.241-1.92-2.198c-2.045.071-1.058 3.317-3.253 3.245s-3.166.072-3.024 1.083zm-4.137 9.792c1.275.531 4.991 0 7.146-.941s.922-2.35-.862-3.223-3.456-1.635-5.742-1.144c-2.964.638-1.817 4.777-.542 5.308zm4.551 7.028c-.805.48-4.427 2.685-5.118 4.858s3.337 5.5 2.272 7.114 2.465 4.028 4.581 4.716 4.634-.178 6.048-1.211.122-6.237-3.804-6.394-5.578-3.121-4.406-4.225 4.876-1.546 5.61-3.651 5.838-6.258 7.858-3.836 3.74 3.875 8.916 3.836 1.873-9.147-6.391-9.593c-3.608-.195-6.283 1.749-9.257 2.547s-5.504 5.358-6.309 5.839zm18.581 5.828c-.517-1-1.956-1.588-4.293-.993-3.241.826-3.565 3.754-1.335 3.989s6.144-1.995 5.628-2.996zm3.669 3.725c1.392 1.236 2.201 2.672 2.187 4.431s-.449 2.141 0 3.424-.175 4.067-4.51 3.295-5.731-1.326-5.731-3.295-2.65-1.283-4.577 0-4.87 4.377-.998 5.617 6.814 0 9.294 2.169 2.974-2.985 6.522-3.042 7.259.072 6.796-3.17.463-13.45-5.574-14.074c-3.559-.367-4.802 3.409-3.409 4.645zm-20.754 9.43c-2.212-1.186-7.42-2.618-8.745-.915s.467 2.28 2.052 4.082 9.225-1.809 6.693-3.167zm-39.03-7.574c-2.037-.691-8.674-1.083-9.293 0s7.751 4.887 9.528 4.068 1.158-3.598-.235-4.068zm-16.411-12.752c-2.319-.645-5.066 0-4.549 1.343s3.769 3.843 5.318 3.059.506-4.05-.769-4.402zm78.381 29.519c-2.676 1.047-5.728.794-8.15.634s-5.917-1.087-7.345.014-3.491 3.954 0 6.177 7.231 5.076 7.345 2.536-2.693-5.393-1.212-5.71 7.513-.438 10.053 1.446 5.784 3.63 6.144 1.728-1.973-8.731-6.835-6.825zm-.001 9.31c-2.119 1.852 3.388 3.227 4.182 2.272s-3.334-3.013-4.182-2.272zm21.082-.692c2.084-.26.26-4.948-.78-6.643s-4.264-2.148-4.837 0c-.802 2.995 3.533 6.903 5.617 6.643zm-1.302 4.688c-.52 1.952 2.084 5.6 3.776 5.208s1.043-4.036 0-5.208-3.235-2.03-3.776 0zm-2.691 12.031c-2.583 1.635-.032 7.691 2.621 7.41s4.392-4.898 3.495-7.41-3.049-1.937-6.116 0zm-1.075 10.385c-4.154 1.037.007 6.423 2.689 7.416s2.707-2.856 1.877-4.349-2.739-3.523-4.566-3.067zm18.036 3.068c1.45-2.525-.413-4.727-2.28-6.034s-5.724-2.297-7.174 0c-1.784 2.836 8.004 8.56 9.454 6.034zm-1.659 6.257c-2.279-1.45-3.936-3.729-5.802-1.909 0 0-2.693 5.639 0 8.478s7.252.683 7.979-.766.103-4.353-2.177-5.803zm18.029 24.865c1.867.413 1.867-6.009 2.073-8.528s-5.528-5.222-8.082-2.721c-2.9 2.843 4.143 10.836 6.009 11.249zm-3.317 3.938c-1.243 3.523 4.973 3.936 6.633 3.099s-5.924-5.112-6.633-3.099zm12.227 1.093c3.109-1.093.755-8.898-3.317-8.139-2.166.403.207 9.233 3.317 8.139zm-5.543 5.732c-3.031 2.597 3.851 5.878 7.541 5.607s.274-3.42-.819-4.378-5.205-2.529-6.722-1.229z"/></g></svg>