<svg xmlns="http://www.w3.org/2000/svg" width="800" height="461" fill="none" xmlns:v="https://vecta.io/nano"><path d="M683.474 92.815c18.864 2.818 28.943 10.609 35.379 18.315-2.443-9.714-.041-21.693 9.713-27.359 3.574-1.864 7.224-2.726 11.158-2.726 6.248 0 12.094 2.107 17.491 4.38 4.317 1.93 8.41 4.155 12.583 6.837.877-1.93 1.625-3.931 2.004-5.456.987-3.949-2.755-7.077-6.911-8.417a7.24 7.24 0 0 1-4.932-5.894l-.6-4.38c-.619-4.42-9.132-11.906-46.12-22.327l-3.235-.921a7.21 7.21 0 0 1-4.343-3.477c-.342-.63-.571-1.039-5.05-14.713-.405.383-.719.777-.958 1.124-3.477 5.025-2.033 14.952-1.26 18.035.21.822.273 1.695.188 2.545-.118 1.087-.482 2.435-1.186 3.824.608-.033 1.053-.041 1.3-.041 3.22 0 6.086 2.129 6.985 5.216.891 3.094-.332 6.41-3.054 8.123-.133.088-14.639 9.5-18.514 23.369-.468 1.68-.63 2.98-.638 3.942zm-148.67 233.06c.195.03.501.048.954.048h12.708a7.2 7.2 0 0 1 .093-4.579h-.081a7.24 7.24 0 0 1-4.822-1.842l-7.324-6.38c-15.545-13.383-25.067-22.014-25.067-30.49 0-2.103.917-4.107 2.508-5.477.137-.118 12.857-11.328 15.966-25.083l-5.003.055c-3.897 0-8.244-.092-12.37-.261-4.417 13.132-8.627 27.58-8.627 31.275 0 5.297 8.178 13.953 14.746 20.908 6.435 6.819 12.517 13.254 15.354 19.933.456 1.064.78 1.628.965 1.893zm-250.091-53.03c1.15 2.626 6.311 9.29 10.145 14.237 8.907 11.497 19.995 25.808 23.845 38.852l16.676-.011c-.534-1.787-.387-3.757.494-5.441.066-.125.136-.258.21-.379-.98-.096-2.015-.14-3.106-.14-1.551 0-3.065-.501-4.306-1.422-7.437-5.515-21.454-32.439-27.138-43.762-.913-1.828-1.013-3.953-.276-5.865a7.21 7.21 0 0 1 4.166-4.129c1.592-.619 39.401-15.829 39.401-59.709 0-28.597 15.251-43.708 44.098-43.708a48.87 48.87 0 0 1 2.085.045c2.114.07 4.291.268 6.406.596 12.999 1.824 30.136 7.604 49.973 14.289 16.09 5.427 34.328 11.571 53.045 16.452 4.089 1.064 8.093 2.026 12.068 2.895-1.098-3.525-1.761-7.242-1.986-11.136-.132-2.261.685-4.505 2.24-6.155s3.746-2.597 6.001-2.597c2.107 0 4.114.799 5.654 2.262 5.286 5.013 24.125 21.461 46.043 24.135.538-.033 1.064-.048 1.595-.048a29.13 29.13 0 0 1 5.688.557c21.564 4.262 30.176 31.536 32.309 39.78l87.809 83.48h16.322c3.842-1.459 4.292-3.463 4.343-3.849-.025-.229-.037-.453-.037-.671-2.438.494-4.56.991-5.665 1.282a7.34 7.34 0 0 1-1.801.225c-1.846 0-3.647-.711-5.014-2.019l-74.577-71.666c-2.604-2.505-2.958-6.554-.828-9.475 1.897-2.6 5.975-5.628 11.22-5.628 1.967 0 3.909.401 5.813 1.208l-4.914-8.613c-27.915-48.96-59.558-104.447-92.104-129.15-2.6-1.971-3.558-5.444-2.331-8.469 1.112-2.752 3.779-4.516 6.693-4.516.291 0 .582.015.866.048 24.691 2.965 50.614 26.181 79.022 70.864 3.179-9.957 5.876-21.255 8.517-32.299 3.713-15.586 7.231-30.306 11.968-40.955.468-1.252 1.102-2.567 1.846-3.805 6.067-10.13 13.445-16.359 20.293-20.187a11.05 11.05 0 0 1-1.698-1.429c-2.954-3.035-4.523-7.997-5.168-12.919-2.066-.155-4.553-.258-7.478-.258-54.736 0-121.592 35.603-122.262 35.957a7.17 7.17 0 0 1-3.422.862c-.704 0-1.404-.099-2.089-.302-17.007-5.135-32.03-7.522-47.284-7.522-16.599 0-32.497 2.84-50.901 6.122-26.549 4.737-59.577 10.631-109.167 10.631-85.071 0-139.395 73.825-183.054 133.151-29.639 40.278-53.049 72.094-79.745 72.094-19.888 0-31.757-12.864-31.757-34.421 0-7.758 2.741-17.129 8.141-27.845.376-.755-.081-1.459-.243-1.547-3.746.011-15.512 2.181-15.512 30.125 0 32.398 21.848 37.239 34.877 37.239 34.266 0 72.937-50.209 107.049-94.517 30.394-39.459 56.633-73.541 80.175-73.541a7.23 7.23 0 0 1 6.76 4.671c4.675 12.344 11.36 26.091 17.825 39.39 11.928 24.533 23.193 47.707 23.193 63.975 0 15.117-5.216 24.172-8.668 30.173-.873 1.503-2.022 3.499-2.343 4.509zm-101.386 45.158c.239.14.604.332 1.149.578.696.321 1.65.829 2.818 1.481 3.559 1.978 9.795 5.437 17.476 6.27.033-.21.077-.424.129-.637-10.175-7.132-22.169-19.719-22.169-45.907a7.22 7.22 0 0 1 3.544-6.214c30.368-18.006 46.492-40.388 48.827-67.99-14.886 21.06-33.146 36.686-46.282 47.914-5.838 4.999-12.963 11.091-15.044 14.09 7.172 21.586 8.465 37.246 9.419 48.783l.133 1.632zm509.99 33.29a12.5 12.5 0 0 1-8.561-3.386l-4.494-4.177c-75.468-70.138-87.967-83.311-90.24-86.95-1.532-2.457-2.659-5.382-3.963-8.775l-1.599-4.074-1.952.306c-6.443 20.489-27.831 35.982-38.517 42.661 2.748 2.866 7.43 7.047 11.158 10.333 14.661 2.221 38.767 12.638 38.767 39.154 0 8.358-6.8 14.904-15.483 14.904h-9.478c-1.761 0-3.451-.424-4.936-1.227-1.786.759-3.879 1.227-6.299 1.227h-25.311c-9.994 0-16.665-4.63-19.822-13.755-2.542-7.338-9.456-14.705-16.145-21.826-9.239-9.835-17.962-19.126-17.962-30.446 0-10.778 4.932-26.791 8.288-36.439-6.229-1.473-11.025-3.429-17.343-6.001l-3.44-1.396c-15.453-6.214-36.808-14.189-55.65-21.229l-37.92-14.381.018 1.112c0 42.168-27.915 64.797-40.281 72.754 2.531 6.188 6.329 13.629 10.193 17.56 21.631 3.197 35.537 17.03 37.375 37.378.401 4.406-1.021 8.731-3.901 11.877-2.822 3.094-6.83 4.792-11.291 4.792h-6.413c-2.262 0-4.203-.597-5.82-1.591-2.023.965-4.399 1.591-7.136 1.591h-30.007c-9.478 0-18.404-7.047-20.769-16.392-3.113-12.304-13.98-24.63-22.71-34.535-8.926-10.13-15.372-17.446-15.372-25.127 0-5.802 3.002-9.574 5.408-12.598 1.322-1.665 2.718-3.422 3.901-5.839-14.131 13.461-34.623 27.142-57.352 35.338 1.661 9.806 8.377 13.552 16.58 18.139 8.558 4.77 19.204 10.716 19.204 25.042 0 8.745-7.246 15.593-16.503 15.593-3.246 0-5.891-.509-7.858-1.105-3.076 1.001-7.212 1.484-12.543 1.484-18.44 0-34.929-9.036-38.517-11.143-7.54-2.914-9.437-8.996-9.68-13.659-2.004-38.565-10.293-55.492-10.377-55.657-.453-.91-.726-1.938-.778-2.955-27.753 30.87-57.679 55.937-86.788 55.937C15.976 323.812 0 290.478 0 261.933c0-39.15 21.078-56.666 41.961-56.666l.744.004c8.649.143 16.448 4.91 20.791 12.753a26.9 26.9 0 0 1-.534 26.876c-2.973 4.929-4.479 9.644-4.479 14.017 0 9.072 2.984 9.754 7.533 9.754 15.571 0 35.444-27.893 58.453-60.195 43.773-61.448 103.733-145.599 204.604-145.599 50.013 0 80.709-6.207 105.372-11.195 17.921-3.625 33.389-6.752 51.402-6.752 14.742 0 29.835 2.096 47.295 6.575 13.103-6.004 74.901-32.818 132.385-32.818a172.61 172.61 0 0 1 10.723.328C682.325 9.033 691.877 0 711.993 0a7.22 7.22 0 0 1 6.834 4.866c1.197 3.477 4.273 12.097 6.42 17.126 10.801 3.385 20.206 7.191 28.678 11.589 16.256 8.834 25.244 18.4 26.887 28.552 8.285 4.866 14.289 10.815 18.297 18.105 1.61 2.936.995 6.605-1.499 8.852-.622.564-2.501 2.391-4.321 4.152l-2.184 2.107c-1.581 4.402-3.522 8.395-5.902 12.156-.965 1.514-2.737 4.295-5.886 6.03-2.045 1.242-4.52 1.945-7.11 1.945a15 15 0 0 1-1.901-.128c-2.188 1.595-5.017 3.127-8.605 4.162-.011.037-.014.081-.022.125-.965 4.568-2.722 8.152-4.604 10.875a7.28 7.28 0 0 1-1.816 5.021c-4.086 4.623-8.064 7.584-12.507 9.33-3.499 1.474-7.286 2.262-11.099 2.262-9.909 0-19.567-5.319-25.837-14.23-4.439-6.303-9.191-9.537-14.746-11.876-9.718 7.422-24.824 36.325-33.223 52.404l-5.839 11.059c14.064 25.34 26.828 51.918 37.169 73.453l14.219 29.094 10.723 10.48c3.779-.932 9.449-2.071 14.551-2.071 17.144 0 27.793 9.151 27.793 23.889 0 7.202-1.871 15.089-3.474 19.653-2.475 7.028-9.695 12.086-17.56 12.307h-4.14c-2.24 0-4.292-.545-6.012-1.577-2.369.947-5.297 1.577-8.911 1.577l-23.049.004z" fill="#fff"/><path d="M242.927 181.021l-.895-5.5-2.449 5.006c-14.868 30.417-39.994 51.907-56.615 66.13-11.593 9.913-18.588 15.899-18.588 20.99v.294l.099.284c7.504 21.708 8.797 37.412 9.74 48.883l.188 2.188c.354 4.203 3.256 6.078 6.34 7.482.386.176 1.035.232 1.528.718 16.072 15.836 40.05 7.43 40.05 7.43a3.19 3.19 0 0 0 2.681-1.459 3.17 3.17 0 0 0 .24-3.024c-1.323-2.962-4.649-4.723-8.863-6.955-9.707-5.139-24.324-12.882-24.644-42.69 40.778-24.504 58-58.074 51.188-99.777zm323.825 137.587c-5.577-3.89-11.795-6.097-17.586-6.263l-6.981-6.067c-8.815-7.588-20.732-17.847-21.837-22.931 3.57-3.282 19.074-18.606 19.074-37.135a24.68 24.68 0 0 0-.084-1.993l-.148-1.827-1.823.206c-2.995.346-7.368.527-12.639.527-5.533 0-12.005-.195-17.317-.53l-1.337-.085-.446 1.267c-.442 1.271-10.893 31.146-10.893 39.368 0 8.874 8.745 18.131 17.203 27.082 5.868 6.215 11.409 12.079 13.612 17.273 2.361 5.552 4.932 7.427 10.207 7.427h20.559c1.923 0 3.54-1.573 3.54-3.434 0-2.052-.409-3.783-.943-5.164 3.101 1.304 5.938 4.041 5.938 6.822v1.776h8.406c1.109 0 2.133-.509 2.815-1.382a3.52 3.52 0 0 0 .618-3.057c-.983-3.739-4.788-8.289-9.938-11.88zM768.73 70.191l-.453-3.304c-2.184-15.56-34.98-24.802-52.603-29.768l-2.321-.659c-1.002-2.866-4.365-13.11-6.505-19.675l-.45-1.378-1.436.166c-5.636.641-9.921 3.043-12.742 7.15-6.023 8.76-3.249 22.349-2.645 24.935-.243.844-1.411 3.267-6.738 3.267-.14 0-.361-.144-.596-.383-1.584-1.628-3.131-6.962-2.966-13.074l.037-1.54-1.514-.258c-2.796-.472-7.61-1.035-14.661-1.035-53.999 0-118.671 32.936-125.865 36.69-41.066-12.248-66.52-7.703-101.677-1.433C409.4 74.563 376.803 80.38 328.019 80.38c-39.854 0-76.628 15.092-112.43 46.135-30.796 26.703-55.808 60.696-77.877 90.685-27.024 36.723-50.356 68.432-72.499 68.432-19.8 0-22.754-15.924-22.754-25.417 0-7.891 3.901-17.299 7.176-23.797a10.44 10.44 0 0 0-.398-10.06c-1.706-2.807-4.616-4.502-7.787-4.531h-.232c-2.685 0-9.552.689-15.321 7.106-6.008 6.682-9.054 17.457-9.054 32.015 0 42.904 33.584 46.238 43.88 46.238 38.697 0 78.801-52.073 114.183-98.024 27.153-35.26 52.836-68.609 71.833-69.986 4.785 12.399 11.342 25.889 17.692 38.944 11.464 23.579 22.29 45.847 22.29 60.044 0 12.709-4.317 20.205-7.47 25.675-2.026 3.511-3.625 6.289-3.625 9.339 0 3.606 4.376 9.43 12.112 19.416 8.447 10.9 18.956 24.471 22.327 35.891 1.138 3.849 4.564 6.439 8.524 6.439h24.298c2.133 0 3.514-1.525 3.514-3.886 0-1.839-.597-3.5-1.344-4.859 3.654 1.127 6.91 3.691 7.625 7.316l.28 1.429h4.593a3.54 3.54 0 0 0 2.689-1.231c.675-.784.973-1.823.822-2.847-1.087-7.308-8.104-19.616-27.458-19.881-5.331-4.697-17.756-27.886-23.186-38.561 8.41-3.905 43.402-22.843 43.402-67.327 0-23.351 11.482-34.704 35.098-34.704.564 0 1.138.015 1.724.037a46.13 46.13 0 0 1 5.426.501c12.26 1.724 29.028 7.374 48.437 13.917 16.231 5.47 34.627 11.673 53.653 16.632 9.401 2.457 18.393 4.372 27.503 5.868l4.645.762-2.987-3.639c-4.351-5.305-6.926-11.541-7.666-18.555 7.375 6.693 27.2 22.717 50.4 25.27l.114.011.225-.003c1.916-.144 3.791-.034 5.577.316 19.122 3.78 25.731 34.763 25.793 35.073l.118.545 90.284 85.827c1.345 1.282 3.095 1.989 4.929 1.989h17.074c1.149 0 2.405-.221 3.352-.597 6.506-2.553 8.771-6.771 9.559-9.415.173.147.339.32.498.515 1.105 1.345 2.048 3.99 1.377 7.379l-.416 2.118h5.854c2.512 0 4.704-1.776 5.212-4.222.442-2.136.969-5.437.969-9.014 0-4.881-2.03-10.701-11.711-10.701-5.558 0-14.311 2-17.332 2.737l-72.524-69.699c.571-.387 1.337-.766 2.265-.87 1.713-.195 3.599.549 5.603 2.222 2.697 2.243 12.705 11.74 29.757 28.224l2.737-2.217c-9.191-14.665-18.739-31.411-28.851-49.145-26.736-46.889-56.843-99.688-88.722-127.187 22.044 6.642 46.047 32.177 73.103 77.708l1.739 2.925 1.404-3.102c5.919-13.081 10.071-30.468 14.086-47.288 3.621-15.169 7.036-29.502 11.475-39.478.427-1.101.836-1.971 1.304-2.748 8.693-14.506 20.319-19.41 27.436-21.063-5.555 4.693-13.762 13.195-16.908 24.441-2.719 9.736 1.186 14.024 1.352 14.201l.46.486.656.066c26.294 2.579 33.912 14.599 40.031 24.254 3.297 5.197 6.144 9.688 11.268 11.121 7.147 1.993 11.943-3.176 13.486-6.189l.689-1.344-1.219-.892c-6.546-4.803-10.709-8.97-13.954-17.206-2.501-6.565-1.643-15.59 4.807-19.347 6.163-3.209 13.593-.873 20.662 2.111 4.067 1.812 8.038 4.008 12.223 6.759.464.265.99.652 1.55 1.065 1.175.858 2.384 1.742 3.677 2.088 2.265.645 3.348-1.193 3.75-1.878.084-.14.158-.277.243-.387l.118-.166c2.169-3.459 4.402-8.59 5.304-12.204 1.967-7.857-2.866-15.457-11.81-18.794z" fill="#fcd405"/><path d="M699.292 47.018l3.26-6.148c3.235-6.1-3.481-14.289-3.481-14.289-4.637 9.268.221 20.437.221 20.437zm50.47 25.349c4.889 1.363 9.151-5.445 9.151-5.445s-.365-.247-1.139-.693c-2.46-1.433-8.914-4.844-18.908-7.85l-.774-.262.011.029a121.51 121.51 0 0 0-11.754-2.818l13.147 5.876c1.89 3.783 5.581 9.854 10.266 11.162zm-71.68 27.068s-3.411-3.625-.932-12.51c4.704-16.845 21.612-27.532 21.612-27.532s-21.513-.376-35.374 22.762c-.59.984-1.043 1.997-1.437 3.028-9.386 21.089-14.363 62.008-25.521 86.67-24.592-41.375-52.798-76.606-81.45-80.043 45.564 34.579 87.458 123.979 122.885 180.516l-29.853-28.309c-7.191-5.997-11.578-.004-11.578 0l74.573 71.663c.007 0 11.353-2.918 17.858-2.918s9.939 2.785 9.939 8.926c0 3.385-.494 6.524-.936 8.657-.339 1.639-1.794 2.807-3.47 2.807H730.7c1.201-6.086-2-10.646-4.966-10.646 0 0-.051 6.719-8.859 10.174-.726.284-1.765.472-2.7.472h-17.082c-1.366 0-2.689-.534-3.702-1.5l-89.886-85.443s-6.682-32.409-27.185-36.458c-1.898-.375-3.913-.504-6.053-.346h-.014c-24.306-2.674-44.827-20.463-50.825-26.139-.67-.638-1.749-.1-1.694.828.512 8.992 3.732 16.013 8.218 21.484-9.644-1.584-18.735-3.588-27.34-5.835-41.549-10.83-79.424-27.374-102.297-30.586a46.6 46.6 0 0 0-5.61-.519c-.6-.023-1.197-.041-1.786-.041-24.987 0-36.867 12.407-36.867 36.483 0 49.657-44.057 66.454-44.057 66.454s18.128 36.119 24.979 41.203c17.649 0 25.189 10.668 26.335 18.37.162 1.076-.667 2.045-1.753 2.045h-3.135c-1.175-5.968-6.517-9.386-12.186-9.386 0 0 2.394 3.179 2.394 7.271 0 1.4-.629 2.115-1.742 2.115h-14.116-10.178c-3.179 0-5.923-2.122-6.826-5.172-6.096-20.651-34.369-47.439-34.369-54.803 0-7.01 11.099-14.182 11.099-35.017 0-23.019-27.458-66.218-40.55-100.801-44.702 0-118.818 168.054-187.224 168.054-21.708 0-42.105-12.053-42.105-44.469 0-32.409 15.409-37.342 22.6-37.342h.214c5.776.059 9.32 6.66 6.62 12.016-3.382 6.716-7.364 16.374-7.364 24.596 0 14.278 6.214 27.193 24.53 27.193 59.145 0 117.469-205.252 262.799-205.252 113.149 0 137.071-30.748 209.444-8.922 0 0 68.488-36.822 125.681-36.822 6.822 0 11.493.527 14.359 1.013-.199 7.404 2.07 15.273 5.338 15.273 8.019 0 8.553-5.073 8.553-5.073s-7.213-27.904 13.77-30.291l6.844 20.585c13.917 4.004 52.346 13.744 54.515 29.215l.601 4.373c8.723 2.833 13.489 9.883 11.699 17.052-.854 3.411-2.995 8.355-5.087 11.692-.571.711-.873 2.022-2.126 1.661-1.561-.413-3.311-2.111-4.818-2.984-3.938-2.582-8.034-4.896-12.388-6.841-6.609-2.785-14.997-5.813-22.202-2.063-7.36 4.281-8.41 14.3-5.647 21.557 3.304 8.391 7.5 12.823 14.558 18.002 0 0-3.794 7.419-11.43 5.282-12.982-3.624-10.204-31.366-51.598-35.43zM518.489 282.629c0 6.944 18.109 20.853 29.985 31.481 12.426 0 24.773 10.262 26.501 16.827a1.77 1.77 0 0 1-1.717 2.214h-6.63c0-5.047-6.38-9.386-11.261-9.386 0 0 2.718 2.796 2.718 7.728 0 .869-.836 1.658-1.772 1.658h-20.555c-4.28 0-6.384-1.19-8.575-6.344-5.574-13.132-30.671-29.631-30.671-43.663 0-8.012 10.793-38.782 10.793-38.782 7.998.501 22.416.899 30.266 0a22.62 22.62 0 0 1 .073 1.846c0 19.921-19.155 36.421-19.155 36.421zm-328.527-2.837c0 41.799 33.558 43.195 33.558 51.16 0 1.167-.534 2.538-2.84 2.538 0 0-3.157-5.784-7.938-5.784 0 0 5.072 6.041-4.59 6.041-13.416 0-23.373-7.087-26.67-8.586s-5.054-3.017-5.308-6.012c-.984-11.574-1.949-28.155-10.02-51.506 0-11.154 50.669-36.516 75.022-86.335 4.959 30.376-.821 68.606-51.214 98.484zM690.441 113.02c7.949 2.844 14.959 6.723 21.288 15.715 5.463 7.765 16.374 14.462 28.386 9.404 3.839-1.506 6.977-4.284 9.733-7.393l-1.544-1.068c1.967-1.824 5.021-5.489 6.296-11.538 0 0-5.857 5.651-11.803 7.283-1.226-1.046-2.416-2.155-3.551-3.319 6.992-11.158-.026-23.045-3.536-27.819 1.219-.49 2.641-.685 4.277-.479 7.92.689 15.718 5.205 22.474 9.633-1.625 4.346-5.069 9.673-5.069 9.673 5.736-1.068 9.206-3.735 11.099-5.761 2.302 1.05 4.793 1.385 7.334-.144 1.455-.799 2.454-2.291 3.275-3.566 2.468-3.908 4.288-7.905 5.739-12.288l7.928-7.633c-4.332-7.879-11.203-13.228-18.949-17.181.836-12.049-14.102-21.586-23.226-26.541-9.802-5.091-20.05-8.904-30.545-12.042-2.66-5.087-8.057-20.736-8.057-20.736-17.928 0-25.642 7.714-31.69 19.362-65.714-6.178-146.465 32.571-146.465 32.571-77.512-20.629-90.446 10.948-204.762 10.948-153.828 0-210.693 205.798-263.057 205.798-9.471 0-14.764-4.863-14.764-16.986 0-6.575 2.468-12.694 5.526-17.752 7.393-12.233-.472-28.434-14.274-28.663-.181-.007-.357-.007-.545-.007-18.175 0-34.73 16.433-34.73 49.443 0 25.83 13.652 54.651 53.767 54.651 68.768 0 150.513-162.053 179.161-162.053-13.832 54.935-85.149 94.325-85.149 113.016 0 .007 9.022 17.483 11.154 58.559.229 4.48 2.365 6.388 5.581 7.482 0 0 16.794 10.477 35.401 10.477 10.804 0 12.252-2.163 12.252-2.163s2.814 1.776 8.144 1.776c4.609 0 9.276-3.106 9.276-8.362 0-22.309-36.181-15.464-36.181-48.231 31.742-10.038 61.366-32.833 73.103-50.714.261-.401.641-.666.939-1.005.67 1.996 1.05 3.938 1.05 5.838 0 24.619-12.197 25.26-12.197 34.027 0 11.202 31.521 32.818 37.861 57.893 1.518 5.986 7.585 10.941 13.759 10.941h30.007c5.935 0 8.443-5.062 8.443-5.062s.597 5.062 4.516 5.062h6.417c5.71 0 8.37-4.601 7.987-8.793-1.326-14.706-10.514-28.652-33.327-31.15-9.378-7.419-15.928-27.631-15.928-27.631s41.939-20.463 41.939-69.56c0-2.516-.324-7.106.674-11.835 7.183 4.118 68.602 25.859 102.808 39.625 10.971 4.413 16.205 6.929 27.827 8.557 0 0-10.8 27.197-10.8 41.984 0 15.806 27.148 30.976 33.709 49.906 2.188 6.307 6.049 8.897 12.985 8.897h25.311c6.004 0 7.688-5.062 7.688-5.062s-.1 5.062 3.551 5.062h9.474c4.561 0 8.256-3.253 8.256-7.681 0-28.877-34.649-32.262-34.649-32.262-11.689-10.281-17.527-15.766-17.527-20.061 0 0 37.356-19.531 42.156-46.249l12.141-1.897c3.493 7.187 5.106 13.449 7.346 17.037 4.475 7.161 81.446 78.407 93.533 89.665 1.042.972 2.394 1.484 3.786 1.448h22.895c8.826 0 11.117-5.062 11.117-5.062s-1.068 5.062 3.805 5.062h3.946c4.641-.137 9.393-3.098 10.933-7.486 1.411-4.004 3.072-11.095 3.072-17.254 0-13.129-11.047-16.654-20.57-16.654-7.286 0-16.658 2.906-16.658 2.906l-14.51-14.197c-12.797-24.924-31.576-67.441-53.763-106.875 10.498-18.606 31.786-65.076 46.702-71.486z" fill="#102a39"/><g fill="#142737"><path d="M179.634 396.511c1.65 1.458.968 4.858.968 4.858l-10.539 52.235c-.018.085-.718 3.412-2.928 4.848h21.071c-1.651-1.459-.973-4.859-.973-4.859l10.539-52.231c.019-.088.722-3.415 2.932-4.851h-21.07z"/><path d="M189.308 443.237l-2.461 10.362c-.018.092-.722 3.415-2.932 4.852h19.796a7.8 7.8 0 0 0 7.637-6.218l2.096-11.166s-1.691 2.17-6.451 2.17h-17.685zm288.19-46.488h-5.308c-3.474 0-6.867 2.818-7.567 6.295l-5.765 28.564c-.88 4.369-2.563 7.588-5.039 9.647-2.483 2.067-5.463 3.098-8.94 3.098-3.485 0-6.045-1.061-7.677-3.182-1.628-2.185-1.986-5.519-1.079-10.002l5.673-28.128c.699-3.474-1.548-6.292-5.025-6.292h-5.301-5.839-1.948c1.624 1.436.987 4.763.972 4.851l-6.037 29.923c-.98 4.84-1.179 9.058-.612 12.657.648 3.533 1.967 6.483 3.968 8.848 2.014 2.299 4.681 4.005 7.989 5.132 3.319 1.116 7.184 1.68 11.611 1.68 4.421 0 8.521-.564 12.282-1.68 3.824-1.127 7.205-2.833 10.149-5.132 3.017-2.365 5.558-5.345 7.647-8.94 2.151-3.658 3.735-7.99 4.745-13.003l5.952-29.481.004.004s.696-3.4 2.936-4.859h-1.963-5.828zm-224.64 44.506c-2.483 2.066-5.463 3.098-8.941 3.098-3.485 0-6.045-1.061-7.677-3.183-1.628-2.181-1.981-5.518-1.079-10.001l1.407-6.974c.884-4.369 2.564-7.581 5.043-9.644 2.487-2.066 5.463-3.101 8.944-3.101s6.042 1.061 7.677 3.186c1.628 2.181 1.978 5.515 1.079 9.998l-1.414 6.977c-.877 4.365-2.564 7.581-5.039 9.644zm24.563-29.628c-.649-3.537-1.964-6.487-3.968-8.852-2.011-2.299-4.682-4.005-7.986-5.132-3.319-1.112-7.183-1.676-11.607-1.676s-8.521.564-12.286 1.676c-3.823 1.127-7.209 2.833-10.148 5.132-3.021 2.365-5.563 5.345-7.651 8.94-2.152 3.658-3.732 7.99-4.745 13.003l-1.374 6.804c-.976 4.841-1.175 9.058-.608 12.657.649 3.537 1.964 6.487 3.964 8.845 2.015 2.302 4.682 4.012 7.994 5.135 3.315 1.116 7.183 1.68 11.607 1.68s8.52-.564 12.285-1.68c3.824-1.123 7.205-2.833 10.145-5.135 3.021-2.358 5.562-5.341 7.647-8.937 1.945-3.3 3.419-7.153 4.432-11.559h.026l1.661-8.244c.98-4.844 1.179-9.062.612-12.657zm283.34-14.873h-1.948-.004-5.835-3.142-5.644c-2.184 0-4.439 1.135-5.96 2.992l-17.166 20.989-8.701-20.989c-.77-1.857-2.567-2.992-4.756-2.992h-.534l.008-.003h-8.226-5.839-1.952c1.263 1.112 1.164 3.352 1.05 4.343l-9.799 48.544h-.004l-.847 4.203c-.018.088-.718 3.411-2.928 4.851h1.948 10.606c3.477 0 6.866-2.818 7.566-6.292l5.872-29.101 10.848 24.069h.358l20.684-24.242-5.909 29.274c-.704 3.474 1.551 6.292 5.025 6.292h10.782 1.949c-1.537-1.359-1.061-4.365-.988-4.77l10.576-52.394c.092-.408.825-3.414 2.91-4.774zm59.802 57.079l-.003.007-11.759-53.244c-.515-2.332-2.493-3.846-5.024-3.846h-8.974-3.772-2.081c.969 1.779-.962 4.859-.962 4.859l.012-.007-32.62 52.231-.081.129-.022.04c-.438.693-2.254 3.426-4.682 4.69h1.75 13.788c2.575 0 5.209-1.566 6.645-3.957l4.277-7.109 18.308-31.29 3.47 18.669h-1.731c-5.725 0-11.567 3.54-14.676 8.893l-2.634 4.535s3.934-1.621 12.742-1.621c7.788 0 9.942 7.861 9.942 7.861.454 2.42 2.461 4.019 5.066 4.019h14.086 1.754c-2.203-1.459-2.819-4.859-2.819-4.859zm37.255-57.865c-3.702 0-7.12.486-10.251 1.451s-5.92 2.328-8.359 4.093c-2.442 1.757-4.446 3.842-6.019 6.243s-2.645 5.043-3.227 7.917l-.033.173c-.641 3.168-.578 5.82.195 7.96a11.93 11.93 0 0 0 3.853 5.367c1.794 1.437 4.016 2.612 6.649 3.522s5.522 1.743 8.661 2.501c2.019.472 3.647.929 4.877 1.371 1.234.434 2.199.895 2.895 1.359.704.471 1.146.95 1.341 1.451.188.501.225 1.072.092 1.717l-.033.173c-.272 1.352-1.086 2.391-2.438 3.124s-3.176 1.101-5.467 1.101c-5.603 0-10.594-1.517-14.985-4.531-2.45-1.679-2.483-4.188-2.483-4.188l-7.548 7.592c-3.028 2.918-3.293 7.401-.431 9.368 2.037 1.392 4.284 2.549 6.741 3.462 4.616 1.713 9.688 2.568 15.214 2.568 3.757 0 7.253-.453 10.491-1.359s6.119-2.229 8.646-3.957c2.519-1.731 4.634-3.827 6.336-6.291s2.869-5.275 3.507-8.443l.033-.177c.582-2.87.556-5.353-.081-7.43-.641-2.085-1.809-3.857-3.507-5.323s-3.875-2.711-6.517-3.743c-2.645-1.02-5.65-1.919-9.021-2.682-2.019-.467-3.676-.921-4.969-1.363s-2.288-.88-2.992-1.315c-.707-.442-1.164-.928-1.381-1.455s-.258-1.145-.114-1.845l.037-.177c.224-1.116.924-2.052 2.11-2.818 1.179-.763 2.8-1.142 4.856-1.142 2.759 0 5.521.516 8.281 1.54 1.171.438 2.335.928 3.418 1.573 2.464 1.466 3.139 4.144 3.139 4.144l11.065-13.74s-8.141-7.791-22.581-7.791zm-346.472.429c-3.702 0-7.12.487-10.252 1.452s-5.919 2.328-8.358 4.092c-2.442 1.757-4.446 3.842-6.019 6.244a22.47 22.47 0 0 0-3.227 7.916l-.037.174c-.637 3.168-.575 5.82.199 7.96s2.059 3.934 3.853 5.367 4.015 2.612 6.649 3.522 5.522 1.742 8.661 2.501c2.018.472 3.643.928 4.877 1.37 1.234.435 2.199.896 2.895 1.36.704.471 1.146.95 1.341 1.451.188.501.225 1.072.092 1.717l-.033.173c-.273 1.352-1.087 2.39-2.439 3.124s-3.175 1.101-5.466 1.101c-5.603 0-10.594-1.518-14.985-4.531-2.45-1.68-2.483-4.188-2.483-4.188l-7.548 7.592c-3.028 2.917-3.293 7.4-.431 9.367 2.037 1.393 4.284 2.55 6.741 3.463 4.616 1.713 9.688 2.568 15.214 2.568 3.757 0 7.253-.453 10.491-1.36s6.119-2.228 8.646-3.956c2.519-1.731 4.634-3.827 6.336-6.292s2.869-5.275 3.506-8.443l.034-.177c.582-2.869.552-5.352-.081-7.43-.641-2.085-1.809-3.856-3.507-5.323s-3.876-2.711-6.517-3.742c-2.645-1.021-5.651-1.919-9.021-2.682-2.019-.468-3.677-.921-4.97-1.363s-2.287-.88-2.991-1.315c-.707-.442-1.164-.928-1.381-1.455s-.258-1.146-.114-1.846l.037-.176c.224-1.117.924-2.052 2.11-2.818 1.179-.763 2.8-1.142 4.855-1.142 2.76 0 5.522.515 8.281 1.539 1.172.439 2.336.929 3.419 1.573 2.464 1.466 3.138 4.145 3.138 4.145l11.066-13.741s-8.141-7.791-22.581-7.791zm82.087.114h-21.965-5.832-1.956c1.628 1.436.987 4.763.976 4.851l-10.546 52.242c-.018.085-.722 3.412-2.932 4.848h1.952 5.839 5.503 5.828 1.952c-1.65-1.459-.976-4.859-.976-4.859l8.524-42.219h10.631c7.703 0 9.261 3.283 8.336 7.843-1.123 5.592-5.879 8.233-11.577 8.233h-.627l.015-.004c-7.688 0-9.787-2.681-9.787-2.681l-1.603 7.916c-1.087 5.393 6.528 9.858 13.28 9.858 12.657 0 23.634-5.773 27.208-24.703 2.987-15.829-7.379-21.325-22.243-21.325zm295.44 51.459h-2.195v2.804h2.195c1.094 0 1.754-.538 1.754-1.404 0-.91-.66-1.4-1.754-1.4zm1.422 3.993l2.383 3.338h-2.007l-2.148-3.058h-1.845v3.058h-1.684v-8.845h3.949c2.056 0 3.411 1.046 3.411 2.822 0 1.448-.84 2.335-2.059 2.685zm-1.911 6.542c-4.1 0-7.316-3.234-7.316-7.36 0-4.152 3.234-7.401 7.364-7.401 4.096 0 7.312 3.227 7.312 7.353 0 4.155-3.235 7.408-7.36 7.408zm.048-16.065a8.71 8.71 0 0 0-8.705 8.705c0 4.778 3.883 8.664 8.657 8.664 4.8 0 8.708-3.908 8.708-8.712 0-4.77-3.883-8.657-8.66-8.657z"/></g></svg>