<svg xmlns="http://www.w3.org/2000/svg" xmlns:xlink="http://www.w3.org/1999/xlink" width="800" height="226" fill="none" xmlns:v="https://vecta.io/nano"><g clip-path="url(#f)"><g fill="#002169"><path d="M282.284 55.899h47.378c19.676 0 28.135 7.22 21.535 28.848l-6.29 20.668c-8.645 28.352-19.491 35.417-43.908 35.417h-9.172l-7.374 24.2c-1.735 5.671-6.972 9.575-12.921 9.575h-17.229l33.093-108.638c2.2-7.251-5.112-10.07-5.112-10.07zm24.076 63.614c3.935 0 6.724-2.138 8.707-8.676l8.676-28.538c1.209-3.935.062-5.082-4.679-5.082h-7.87l-12.89 42.296h8.025.031zm268.619-63.614h39.166c19.677 0 28.136 7.22 21.536 28.848l-6.29 20.668c-8.646 28.352-19.491 35.417-43.908 35.417h-9.172l-7.374 24.2a13.53 13.53 0 0 1-12.922 9.575h-17.228L574.948 55.93l.031-.031zm15.865 63.614c3.935 0 6.724-2.138 8.707-8.676l8.676-28.538c1.208-3.935.062-5.082-4.679-5.082h-7.87l-12.891 42.296h8.026.031zM377.876 55.899h28.538c8.273 0 14.594 7.375 13.355 15.555l-14.13 91.688c-1.022 6.569-6.693 11.434-13.355 11.434h-16.143l5.236-28.538h-17.693l-8.645 20.295c-2.107 4.989-7.003 8.212-12.425 8.212h-18.778l54.009-118.677.031.031zm17.29 16.392h-.341l-22.682 53.451h13.107l9.885-53.451h.031zm72.632 1.983h-.341l-27.64 90.758c-1.735 5.671-6.971 9.575-12.921 9.575h-14.253l36.16-118.677h26.927c8.305 0 14.657 7.437 13.324 15.648l-12.642 77.775h.341l41.738-93.454h24.572c9.079 0 15.555 8.769 12.921 17.445l-27.918 91.688c-1.735 5.671-6.972 9.575-12.921 9.575h-14.75l31.451-99.992h-.341l-44.341 92.339c-2.231 4.679-6.972 7.654-12.177 7.654h-22.651l15.493-100.333h-.031zM662.39 55.899h28.539c8.273 0 14.594 7.375 13.355 15.555l-14.13 91.688c-1.023 6.569-6.693 11.434-13.355 11.434h-16.144l5.237-28.538h-17.693l-8.645 20.295c-2.107 4.989-7.003 8.212-12.426 8.212h-18.777l54.008-118.677.031.031zm17.291 16.392h-.341l-22.682 53.451h13.107l9.885-53.451h.031zm47.811 71.826c-2.51 8.211-3.501 11.464 4.524 11.464 6.073 0 8.645-1.983 10.164-7.033l3.904-12.798c2.51-8.211.836-8.676-12.364-12.115-19.583-5.082-22.155-10.164-15.71-31.296l2.2-7.22c8.429-27.702 17.817-30.49 43.722-30.49 23.611 0 29.468 6.569 24.448 23.116l-2.913 9.575c-.836 2.789-3.408 4.679-6.321 4.679H759.78l1.735-5.732c3.192-10.504 2.634-11.31-4.245-11.31s-8.614 2.944-10.287 8.521l-2.386 7.87c-2.293 7.53-.744 8.862 6.693 10.814 26.71 7.53 29.343 9.668 20.048 40.158-8.677 28.539-20.73 33.62-43.846 33.62-29.499 0-32.814-6.879-25.625-30.49l3.005-9.823h16.33c4.431 0 7.592 4.277 6.321 8.522l-.031-.031z"/></g><path d="M310.512 109.443l8.366-27.485h-4.183l-10.008 32.815h1.642c1.084 0 2.541 0 4.183-5.33z" fill="url(#A)"/><path d="M382.895 112.604l-3.563 8.397h2.014l1.549-8.397z" fill="url(#B)"/><path d="M359.718 66.186c-1.022-1.363-2.231-2.541-3.625-3.594 2.82 5.733 2.696 13.479-.372 23.549l-6.29 20.668c-.062.186-.093.31-.155.496l13.975-30.707c-.279-4.09-1.426-7.561-3.533-10.38v-.031z" fill="url(#C)"/><path d="M359.408 168.255c-2.882 6.755-9.451 11.093-16.794 11.093h-18.003a4.77 4.77 0 0 0 .464 4.09c.868 1.363 2.386 2.169 3.998 2.169h18.777a18.28 18.28 0 0 0 16.795-11.093l7.405-17.414h2.51l1.147-6.26h-8.862l-7.406 17.415h-.031z" fill="url(#D)"/><path d="M338.958 129.987c-8.181 11.372-19.553 15.586-37.958 15.586h-5.671l-6.352 20.854c-2.355 7.715-9.358 12.921-17.445 12.921h-16.485l-.031.124c-.434 1.425-.155 3.005.713 4.214.898 1.208 2.293 1.921 3.811 1.921h17.228c8.088 0 15.091-5.206 17.446-12.921l6.352-20.854h5.67c10.288 0 18.282-1.363 24.851-4.524l7.871-17.321z" fill="url(#E)"/><path d="M486.73 115.33l9.792-21.907 2.417-14.842c.867-5.299-.651-10.659-4.122-14.749-.867-1.023-1.828-1.921-2.85-2.696 1.735 3.409 2.386 7.344 1.766 11.186l-7.003 43.008z" fill="url(#F)"/><path d="M447.626 173.863l5.701-36.935-8.986 29.468c-2.355 7.715-9.358 12.921-17.445 12.921h-13.541v.124c-.465 1.425-.217 3.005.682 4.214s2.293 1.921 3.811 1.921h14.254c6.693 0 12.642-3.625 15.803-9.265-.31-.775-.434-1.611-.31-2.479l.031.031z" fill="url(#G)"/><path d="M495.809 173.181l12.209-38.794-16.609 34.611c-3.005 6.291-9.481 10.35-16.453 10.35h-22.001l-.123.805c-.217 1.364.185 2.758 1.084 3.812a4.69 4.69 0 0 0 3.594 1.642h22.651c6.538 0 12.55-3.594 15.772-9.203-.403-1.022-.465-2.138-.155-3.223h.031z" fill="url(#H)"/><path d="M667.411 112.604l-3.564 8.397h2.014l1.55-8.397z" fill="url(#I)"/><path d="M704.841 130.855h1.24l8.087-52.398c.806-5.268-.712-10.597-4.183-14.656-.836-.992-1.797-1.89-2.82-2.665 1.705 3.377 2.386 7.22 1.798 11.031l-10.474 68.076 1.828-6.042c.62-1.983 2.448-3.346 4.524-3.346z" fill="url(#J)"/><path d="M737.749 134.449l3.501.929.31-1.022c.558-1.797.713-2.696.775-3.161-1.394-.805-5.671-1.921-9.792-3.005-6.6-1.705-11.836-3.533-15.617-6.322.155.341.279.744.465 1.085 3.409 6.042 10.287 8.893 20.327 11.496h.031z" fill="url(#K)"/><path d="M644.233 66.186c-1.023-1.363-2.231-2.541-3.625-3.594 2.819 5.733 2.695 13.479-.372 23.549l-6.291 20.668c-.062.186-.093.31-.154.496l13.974-30.707c-.279-4.09-1.425-7.561-3.532-10.38v-.031z" fill="url(#L)"/><path d="M730.56 150.779l1.457.062c4.214 0 4.771-.868 5.577-3.533-.186-2.014-.867-3.935-2.107-5.608-.991-1.333-2.262-2.386-3.656-3.161.774 2.231.867 4.617.155 6.941l-1.457 5.299h.031z" fill="url(#M)"/><path d="M754.543 98.164l1.147-3.78c-.651-1.147-.868-2.479-.465-3.78l1.735-5.732 1.425-5.175h-1.146c-4.09 0-4.307.372-5.763 5.175l-2.386 7.871c-.62 2.045-.744 3.037-.775 3.47.496.279 1.642.713 4.152 1.363l2.076.589z" fill="url(#N)"/><path d="M595.027 109.443l8.366-27.485h-4.183l-10.009 32.815h1.642c1.085 0 2.541 0 4.184-5.33z" fill="url(#O)"/><path d="M796.963 64.575c-.96-1.301-2.2-2.448-3.594-3.439 2.603 5.918 1.084 12.921-.465 17.941l-2.913 9.575c-1.456 4.803-5.825 8.025-10.845 8.025h-18.654v.124c-.34 1.023-.278 2.107.093 3.099 3.099.961 5.857 1.953 8.243 3.037h15.524c5.02 0 9.389-3.223 10.845-8.025l2.913-9.575c1.766-5.856 3.594-14.347-1.147-20.761z" fill="url(#P)"/><path d="M694.306 165.9c-2.138 7.901-9.172 13.448-17.538 13.448h-15.462l-.124.65c-.248 1.395.124 2.82 1.023 3.905s2.231 1.704 3.656 1.704h16.144c7.622 0 14.098-4.648 16.794-11.434-.65-.62-1.301-1.27-1.859-1.983-1.363-1.859-2.2-3.966-2.634-6.29z" fill="url(#Q)"/><path d="M779.425 112.325c3.037 6.693 1.302 15.338-3.594 31.358-9.513 31.234-23.766 36.966-48.369 36.966-11.806 0-21.071-1.022-26.927-5.144.433 1.023.96 2.015 1.642 2.913 5.206 7.034 15.958 8.49 30.521 8.49 24.603 0 38.857-5.732 48.37-36.966 5.143-16.888 6.817-25.564 3.067-32.412-1.115-2.076-2.727-3.718-4.71-5.205z" fill="url(#R)"/><path d="M643.923 168.255c-2.882 6.755-9.451 11.093-16.795 11.093h-18.003c-.465 1.363-.31 2.85.465 4.09.868 1.363 2.386 2.169 3.997 2.169h18.778c7.313 0 13.913-4.369 16.794-11.093l7.406-17.414h2.51l1.146-6.26h-8.862l-7.405 17.415h-.031z" fill="url(#S)"/><path d="M623.472 129.987c-8.18 11.372-19.552 15.586-37.958 15.586h-5.67l-6.353 20.854c-2.355 7.715-9.357 12.921-17.445 12.921h-16.484v.124a4.66 4.66 0 0 0 .681 4.214c.899 1.208 2.293 1.921 3.812 1.921h17.228c8.087 0 15.09-5.206 17.445-12.921l6.352-20.854h5.671c10.287 0 18.281-1.363 24.851-4.524l7.901-17.321h-.031z" fill="url(#T)"/><path d="M408.087 173.213l14.037-46.108 7.499-48.679c.805-5.268-.713-10.597-4.183-14.657-.837-.992-1.798-1.89-2.82-2.665 1.704 3.378 2.386 7.22 1.797 11.031l-14.13 91.688c-1.394 8.955-8.955 15.462-18.034 15.462h-15.462l-.124.651c-.247 1.394.124 2.819 1.023 3.904s2.231 1.704 3.656 1.704h16.144a18.12 18.12 0 0 0 13.913-6.445c-1.023-.279-1.921-.868-2.572-1.735-.899-1.209-1.177-2.758-.713-4.214l-.031.062z" fill="url(#U)"/><path d="M534.294 173.213l31.358-102.936a18.1 18.1 0 0 0-2.758-5.454c-1.053-1.425-2.293-2.634-3.625-3.656a18.06 18.06 0 0 1 1.208 13.572l-27.918 91.688c-2.355 7.715-9.358 12.921-17.445 12.921h-14.037v.093c-.496 1.425-.217 3.005.681 4.214s2.324 1.952 3.812 1.952h14.749c6.166 0 11.682-3.037 14.997-7.87-.092-.093-.185-.186-.278-.31-.899-1.209-1.178-2.758-.713-4.214h-.031z" fill="url(#V)"/><path d="M226.88 66.837c-3.036-5.206-3.005-17.879-3.005-17.879-1.611-6.011-6.879-10.163-13.386-14.595-1.147-.775-2.231-1.518-3.192-2.231l-.743-.558c0-7.654 5.546-16.485 5.546-16.485s-2.603-4.648-8.924-4.648c-3.191 0-7.715.496-11.899 1.797a7.67 7.67 0 0 0-.712-2.262c-1.24-2.541-3.781-4.121-6.6-4.183h-.775c-6.941 0-11.124 2.324-15.369 2.324-6.848 0-9.978-8.149-9.978-8.149-3.687 0-6.755 2.634-7.281 6.29-.217 1.425-.434 3.966.062 7.065h-.465c-4.648 0-8.738.403-12.705.837-3.284.341-6.383.651-9.357.651-11.775 0-17.879-3.099-24.108-7.468-1.549.341-2.974 1.208-4.028 2.479-1.394 1.673-1.983 3.873-1.58 6.073.186.93.403 1.828.713 2.696-15.152 0-21.225 10.38-33.248 10.38-13.014 0-15.4-6.352-15.4-6.352s-3.254 3.253-3.254 9.079c0 3.873 3.285 8.955 9.73 11.279-.992.093-3.378.403-4.338.403-12.456 0-14.378-12.147-14.378-26.896 0 0-16.175 4.772-13.479 31.172C20.389 49.702 0 61.384 0 100.457c0 33.527 24.169 66.341 53.916 89.674 28.259 22.186 63.707 34.89 97.265 34.89 3.037 0 6.105-.093 9.11-.31 29.902-1.952 65.691-17.073 68.263-53.141 1.084-15.059-2.789-30.831-11.527-46.913-1.302-2.386-3.749-3.842-6.445-3.842a7.41 7.41 0 0 0-2.975.62c.682-2.045 1.271-4.183 1.271-6.476v-.279c1.673 1.239 3.563 2.262 5.701 2.85 1.642.434 3.316.682 4.989.682 3.749 0 16.608-1.332 21.876-11.372 5.732-10.938-.062-24.696-.062-24.696s-10.597-8.614-14.471-15.276l-.031-.031z" fill="#fff"/><path d="M230.351 79.232c-2.851-1.611-6.228-4.493-9.017-7.963-1.673-2.107-2.882-5.051-4.09-8.955-1.178-3.904-1.147-8.769-.403-12.364-.527-3.78-8.955-8.583-13.727-12.115-2.293-1.673-3.78-3.192-3.78-3.192 0-11.341 4.958-17.135 3.904-17.135-6.91 0-13.913 2.386-14.966 4.338 0 0 2.51 1.023 3.067 1.332 3.626 2.045 10.009-5.206 7.034.155-2.355 4.214-1.332 8.366-1.332 8.366-1.394-3.966-5.98-7.87-14.254-11.062-.805-.31-1.611-.589-2.386-.837 1.581-3.16 3.13-5.392 3.843-6.352.186-.248 0-.558-.279-.558-1.921 0-9.916 0-14.409 2.262l-1.549.837c-4.493-1.704-8.087-4.059-9.854-8.707-.062.248-.433.279-.495 0-.341 2.293-.62 8.366 4.307 13.758-.279-.062-.434.248-.248.465-23.302-4.493-35.789 7.499-55.899-7.189-.186-.124-.434 0-.403.248.279 1.518 1.177 5.206 5.67 8.614 4.462 3.408 16.113 6.6 27.175 7.592-13.913 0-18.158-2.882-27.577-4.307-2.975-.527-6.26-.837-9.792-.837-16.794 0-22.806 8.707-32.907 8.707-8.118 0-12.456-2.975-13.975-4.307-.186-.155-.496 0-.403.279.837 2.448 4.059 8.986 14.749 8.986.868 0 1.673 0 2.448-.062.31 0 .62 0 .899-.031.341 0 .651-.062.992-.062 3.222-.248 5.794-.775 8.211-1.27 7.468-1.766 12.58-4.586 21.442-4.586 11.186 0 15.71 3.749 15.71 3.749-9.42-2.541-17.941-1.549-24.293 0-17.042 4.834-27.361 13.386-41.212 13.386-18.994 0-19.211-13.479-19.211-25.532 0 0-10.102 24.107 7.809 36.657-9.234 4.989-17.693 11.837-23.364 21.256-1.209 1.797-1.425 5.485-1.487 6.786 0 .155.186.248.31.124 7.375-8.428 27.33-27.206 59.277-30.862-3.501 2.975-6.042 5.515-7.53 7.065-.217.217.093.558.341.372 7.685-5.299 24.2-20.575 71.919-26.245l18.53-2.417c.403 1.611.806 2.572.806 2.572 2.54-2.169.712-2.882 3.408-9.699 3.966-9.978 8.614-11.403 10.071-12.054 1.611-.713 3.346-.991 4.09-1.084.155 0 .248.124.186.248-.775 1.394-3.936 7.53-3.936 12.147s2.231 4.741 2.231 4.741 3.285-.403 7.53 0c7.468.651 10.318 5.794 11.217 9.513 0 0 3.254-1.394 3.47-5.33 3.905 3.316 14.161 9.916 15.958 11.248-.495 2.169-.867 4.586-.434 6.631-3.501-5.887-7.87-9.234-11.805-10.876-1.55-.651-2.603-.558-3.161-.434-.186.062-.248.341-.093.434 16.485 8.986 10.814 18.592 23.209 30.119 2.634 2.448 3.78 3.594 7.467 6.073 4.803 3.223 6.074 11.279 6.074 11.279-3.347 4.214-2.944 9.606-3.316 11.992-.619 0-1.115.465-1.208 1.053l-5.454.124c-3.563-.805-8.769-8.924-11.898-10.814-5.361-3.285-9.854-.93-9.854-.93s-4.927-2.634-11.186-7.437c-2.2.155-4.338-.527-6.135-1.828-8.583.465-17.167-2.913-17.167-15.989 0-7.096 3.099-12.302 5.113-14.595.186-.186-.031-.496-.279-.403-4.059 1.704-6.228 3.099-9.977 9.544-18.437 3.749-18.84 12.301-20.296 12.301s.093-4.958.093-4.958c-11.744 7.623-8.831 27.33-8.831 27.33-3.285-4.059-6.6-7.158-9.854-9.513.527-4.09 3.533-20.761 18.561-26.586-.279-.031-.341-.434-.062-.496-4.679.062-20.513 1.859-27.175 22.279-8.676-3.377-15.772-2.107-18.53-1.363.279 0 .341.372.062.496 5.609.775 11.062 6.042 11.93 8.149-.186-.093-.403.093-.31.31-5.082-1.89-9.637-1.983-11.744-1.89-.279 0-.341.403-.062.496 26.401 9.667 24.541 31.141 22.961 34.704-1.301 2.913-3.594 5.732-4.834 6.197-.155.062-2.262-8.769-9.667-12.115 0 17.724-15.215 24.851-15.215 37.307 0 10.132 14.564 11.496 14.564 11.496-4.369-2.913-7.282-12.333-5.392-15.648 0 0 4.493-1.147 6.941-8.181 2.386-6.847 4.307-8.149 10.071-8.862 23.859-2.881 33.217-.991 39.879 1.519 6.662 2.541 12.518 7.777 14.935 12.363 0 .062.062.155.062.217s.031.155.031.217c0 1.27-.744 1.673-2.696 1.673-3.78 0-5.174 3.502-5.174 3.502-3.626 0-6.477-2.758-6.477-7.623 0-3.098 1.085-4.648 1.736-5.298.155-.155.062-.434-.186-.434-1.364 0-4.741.279-7.437 3.346-2.851 3.223-1.952 6.91-1.952 6.91-21.566 0-37.803 15.679-43.783 16.423 18.777-.279 34.363-13.665 44.31-13.665.712 2.293 2.974 4.214 2.974 4.214s-4.338 10.132-10.69 10.132c-4.741 0-6.879-4.09-6.879-4.09s-5.36 2.541-9.915 7.809c-7.22 8.366-3.874 18.034-3.874 18.034.341-.744 1.612-8.15 6.786-12.085 5.051-3.842 7.003-1.146 8.8.837 2.479 2.819 5.733-.217 5.733-.217s-1.642-1.89-1.642-3.254c0-2.417 2.541-4.741 9.574-4.741 6.26 0 4.679-13.757 7.034-13.757s2.2 5.794 2.2 9.698-2.819 10.783-4.989 10.783c-12.332 0-28.91 13.139-28.91 13.139 5.64-2.355 26.741-9.854 31.575-9.854s4.524-8.552 6.569-16.733c2.758-11 13.076-6.445 13.076-13.571 0-6.57-17.197-16.361-17.197-16.361v.031c-1.549-.837-2.943-1.271-3.563-1.488-6.476-2.262-12.859-1.952-12.859-1.952s2.881-2.479 12.952-.588c1.394.248 4.555 1.487 7.158 2.881 7.126-4.183 11.743-8.862 11.743-8.862 2.634 1.581 6.012 1.983 10.195.744 2.974 3.068-1.271 13.603-1.271 21.504 0 6.105 2.603 7.468 2.603 13.2 0 0-2.355 1.736-11.558 1.674-1.828 2.262-2.912 5.918-2.912 10.938 0 13.665 8.459 15.772 8.459 15.772s-3.966-4.493-4.586-11.403 4.834-10.938 7.684-10.938c0 0 .248 1.642 1.705 3.625 1.58 2.169 5.918 4.245 8.242.124 2.448-4.369 1.735-14.594 1.735-14.594 5.299 22.186-8.645 31.698-8.645 31.698 12.147-4.988 11.713-15.648 11.713-22.805s1.859-10.226 1.859-12.116c0-7.158-3.47-11.837-3.47-18.127 0-9.884 3.749-14.842 3.749-18.808 0-8.584-42.513-14.874-42.513-14.874.279 4.648-1.178 12.209-4.431 17.259-.155.248-.558.062-.465-.216 1.116-3.254 2.975-10.288 1.271-17.508-3.316-15.028-10.815-19.118-10.815-19.118 0-2.169 8.429-7.344 12.426-7.344 2.758 0 4.834.527 6.445 1.301 0 7.282 4.741 17.073 23.425 15.989.589.341 1.271.496 1.984.465 4.926 2.882 11.495 6.011 14.315 7.437 2.944 1.487 6.879 10.597 13.107 12.301s11.155-2.323 11.155-2.323l4.338.092c1.271 0 2.324-.991 2.448-2.262.651-7.405 4.09-12.177 4.09-12.177s-.96-10.814-8.087-14.78l-.031.031zM55.558 56.457c-10.721 0-13.851-4.989-13.851-4.989s2.727 3.222 13.634 3.222c16.175 0 23.642-13.727 41.583-13.727 3.408 0 4.71 1.115 4.71 1.115-19.646 0-26.339 14.377-46.077 14.377zm73.344 66.217c-.154.186-.433.093-.433-.155 0-2.2-.155-9.544-2.293-16.98-2.076-7.127-7.561-13.324-9.637-15.524-.186-.186 0-.527.279-.403 2.944 1.27 10.907 5.763 14.099 17.631 2.385 8.924-.744 13.882-1.984 15.4l-.031.031zm90.077-14.718c-3.346-1.116-6.29-6.383-10.814-10.164 3.161-.279 8.118 5.795 10.225 7.84 1.922 1.828 3.533 2.2 5.423 2.107-.775.465-2.758.898-4.834.217z" fill="url(#W)"/><path d="M193.106 63.8c2.633 1.023 4.988-1.301 4.988-1.301l2.014.434c-.154-.341-1.952-4.493-5.918-7.53-3.997-3.037-7.777-.837-7.777-.837l3.997 2.541s-1.116 5.206 2.727 6.693h-.031z" fill="url(#X)"/><path d="M226.168 87.753c1.177-.217.837-.589.062-.775-1.518-.341-6.197-.527-6.197 4.059 0 6.507 5.918 10.381 7.467 10.381 1.891 0 .062-3.161 1.891-7.778-.341 0-.496-.279-.372-.589-1.89-.093-5.795.744-5.795-1.859 0-2.107 1.766-3.223 2.975-3.439h-.031z" fill="url(#Y)"/><path d="M165.249 47.874c.155-.186 0-.465-.248-.403-11.899 3.471-30.211-.093-55.403 5.02-21.412 4.369-29.251 14.687-31.265 17.972-.155.248.155.496.372.341 3.47-2.541 15.896-11.279 22.341-11.217-5.95 1.828-6.817 5.113-6.879 6.476 0 .248.279.341.434.186 4.307-4.338 13.789-3.625 20.451-4.121 6.879-.496 14.006-5.608 8.893-5.33-5.081.248-13.231-1.271-13.231-1.271 14.75-3.563 39.074-3.068 44.589-3.78 6.724-.868 9.141-2.882 9.947-3.904v.031z" fill="url(#Z)"/><path d="M210.334 128.252l2.634 8.366c4.741 17.104 6.259 38.795-6.445 52.676-4.834 5.237-11.062 8.924-17.693 11.589-13.758 5.361-28.817 6.445-43.474 5.33C86.978 201.41 27.764 158.866 13.479 100.55c-.899-4.307-1.425-8.676-1.456-13.045l.248-5.763c.868-8.707 3.997-16.98 10.442-23.735C9.327 67.891 5.764 85.708 7.592 101.449c9.761 69.192 84.251 120.877 152.266 116.167 27.794-1.828 59.4-15.029 61.631-46.572 1.085-15.06-3.563-29.902-10.69-43.009-.155-.279-.558-.093-.465.186v.031z" fill="url(#a)"/><path d="M172.779 23.271c-3.749 2.479-7.406 10.256-5.609 12.456 1.116 1.363 3.936-.217 5.02-.899.155-.093 0-.248-.031-.434-.96-3.501-.774-6.259 1.085-10.845.124-.279-.186-.403-.434-.248l-.031-.031z" fill="url(#b)"/><path d="M64.823 105.291c-2.975 10.194-19.831 64.854 7.313 64.854 8.366 0 18.282-2.293 19.707-2.665 0-.124.062-.217.155-.248-.341-2.355-6.445-4.834-22.465-4.834-12.797 0-4.803-47.47-4.245-57.014 0-.31-.403-.372-.496-.093h.031z" fill="url(#c)"/><path d="M34.643 93.95c0 10.597 12.085 21.535 12.859 33.899.093-.248.465-.217.496.062 5.454-14.099-4.958-21.443-4.958-33.992 0-8.583 14.78-20.947 19.366-24.541-.248.124-.465-.217-.248-.434-6.073 2.417-27.485 11.899-27.485 24.975l-.031.031z" fill="url(#d)"/><path d="M202.742 66.372c3.006 1.394 4.307 6.042 5.423 8.614 1.115 2.603 3.563 4.989 6.228 7.437 2.386 2.2 3.44 5.299 3.873 7.22.248 1.085.403.992.465-.062.062-1.456.062-3.409-.403-4.617-1.611-4.307-3.191-7.003-5.763-9.792-2.603-2.789-5.887-8.955-9.575-10.039-1.208-.372-1.859-.155-2.231.155-.31.279-.155.558.279.589.403 0 .992.155 1.735.496h-.031z" fill="url(#e)"/></g><defs><linearGradient id="A" x1="790.673" y1="-60.454" x2="143.961" y2="153.629" xlink:href="#g"><stop stop-color="#9a6206"/><stop offset=".2" stop-color="#9a6206"/><stop offset=".34" stop-color="#ffd667"/><stop offset=".5" stop-color="#dc9d01"/><stop offset=".7" stop-color="#dc9d01"/><stop offset=".82" stop-color="#9a6206"/></linearGradient><linearGradient id="B" x1="803.223" y1="-22.589" x2="156.48" y2="191.495" xlink:href="#g"><stop stop-color="#9a6206"/><stop offset=".2" stop-color="#9a6206"/><stop offset=".34" stop-color="#ffd667"/><stop offset=".5" stop-color="#dc9d01"/><stop offset=".7" stop-color="#dc9d01"/><stop offset=".82" stop-color="#9a6206"/></linearGradient><linearGradient id="C" x1="790.797" y1="-60.082" x2="144.086" y2="154.001" xlink:href="#g"><stop stop-color="#9a6206"/><stop offset=".2" stop-color="#9a6206"/><stop offset=".34" stop-color="#ffd667"/><stop offset=".5" stop-color="#dc9d01"/><stop offset=".7" stop-color="#dc9d01"/><stop offset=".82" stop-color="#9a6206"/></linearGradient><linearGradient id="D" x1="816.237" y1="16.795" x2="169.525" y2="230.878" xlink:href="#g"><stop stop-color="#9a6206"/><stop offset=".2" stop-color="#9a6206"/><stop offset=".34" stop-color="#ffd667"/><stop offset=".5" stop-color="#dc9d01"/><stop offset=".7" stop-color="#dc9d01"/><stop offset=".82" stop-color="#9a6206"/></linearGradient><linearGradient id="E" x1="808.273" y1="-7.344" x2="161.531" y2="206.739" xlink:href="#g"><stop stop-color="#9a6206"/><stop offset=".2" stop-color="#9a6206"/><stop offset=".34" stop-color="#ffd667"/><stop offset=".5" stop-color="#dc9d01"/><stop offset=".7" stop-color="#dc9d01"/><stop offset=".82" stop-color="#9a6206"/></linearGradient><linearGradient id="F" x1="805.299" y1="-16.33" x2="158.556" y2="197.754" xlink:href="#g"><stop stop-color="#9a6206"/><stop offset=".2" stop-color="#9a6206"/><stop offset=".34" stop-color="#ffd667"/><stop offset=".5" stop-color="#dc9d01"/><stop offset=".7" stop-color="#dc9d01"/><stop offset=".82" stop-color="#9a6206"/></linearGradient><linearGradient id="G" x1="822.62" y1="36.006" x2="175.877" y2="250.089" xlink:href="#g"><stop stop-color="#9a6206"/><stop offset=".2" stop-color="#9a6206"/><stop offset=".34" stop-color="#ffd667"/><stop offset=".5" stop-color="#dc9d01"/><stop offset=".7" stop-color="#dc9d01"/><stop offset=".82" stop-color="#9a6206"/></linearGradient><linearGradient id="H" x1="827.299" y1="50.167" x2="180.587" y2="264.25" xlink:href="#g"><stop stop-color="#9a6206"/><stop offset=".2" stop-color="#9a6206"/><stop offset=".34" stop-color="#ffd667"/><stop offset=".5" stop-color="#dc9d01"/><stop offset=".7" stop-color="#dc9d01"/><stop offset=".82" stop-color="#9a6206"/></linearGradient><linearGradient id="I" x1="831.326" y1="62.282" x2="184.587" y2="276.363" xlink:href="#g"><stop stop-color="#9a6206"/><stop offset=".2" stop-color="#9a6206"/><stop offset=".34" stop-color="#ffd667"/><stop offset=".5" stop-color="#dc9d01"/><stop offset=".7" stop-color="#dc9d01"/><stop offset=".82" stop-color="#9a6206"/></linearGradient><linearGradient id="J" x1="830.087" y1="58.564" x2="183.345" y2="272.647" xlink:href="#g"><stop stop-color="#9a6206"/><stop offset=".2" stop-color="#9a6206"/><stop offset=".34" stop-color="#ffd667"/><stop offset=".5" stop-color="#dc9d01"/><stop offset=".7" stop-color="#dc9d01"/><stop offset=".82" stop-color="#9a6206"/></linearGradient><linearGradient id="K" x1="841.026" y1="91.595" x2="194.283" y2="305.679" xlink:href="#g"><stop stop-color="#9a6206"/><stop offset=".2" stop-color="#9a6206"/><stop offset=".34" stop-color="#ffd667"/><stop offset=".5" stop-color="#dc9d01"/><stop offset=".7" stop-color="#dc9d01"/><stop offset=".82" stop-color="#9a6206"/></linearGradient><linearGradient id="L" x1="818.902" y1="24.82" x2="172.189" y2="238.904" xlink:href="#g"><stop stop-color="#9a6206"/><stop offset=".2" stop-color="#9a6206"/><stop offset=".34" stop-color="#ffd667"/><stop offset=".5" stop-color="#dc9d01"/><stop offset=".7" stop-color="#dc9d01"/><stop offset=".82" stop-color="#9a6206"/></linearGradient><linearGradient id="M" x1="846.2" y1="107.243" x2="199.458" y2="321.326" xlink:href="#g"><stop stop-color="#9a6206"/><stop offset=".2" stop-color="#9a6206"/><stop offset=".34" stop-color="#ffd667"/><stop offset=".5" stop-color="#dc9d01"/><stop offset=".7" stop-color="#dc9d01"/><stop offset=".82" stop-color="#9a6206"/></linearGradient><linearGradient id="N" x1="831.699" y1="63.46" x2="184.987" y2="277.543" xlink:href="#g"><stop stop-color="#9a6206"/><stop offset=".2" stop-color="#9a6206"/><stop offset=".34" stop-color="#ffd667"/><stop offset=".5" stop-color="#dc9d01"/><stop offset=".7" stop-color="#dc9d01"/><stop offset=".82" stop-color="#9a6206"/></linearGradient><linearGradient id="O" x1="818.778" y1="24.417" x2="172.035" y2="238.5" xlink:href="#g"><stop stop-color="#9a6206"/><stop offset=".2" stop-color="#9a6206"/><stop offset=".34" stop-color="#ffd667"/><stop offset=".5" stop-color="#dc9d01"/><stop offset=".7" stop-color="#dc9d01"/><stop offset=".82" stop-color="#9a6206"/></linearGradient><linearGradient id="P" x1="833.124" y1="67.736" x2="186.381" y2="281.819" xlink:href="#g"><stop stop-color="#9a6206"/><stop offset=".2" stop-color="#9a6206"/><stop offset=".34" stop-color="#ffd667"/><stop offset=".5" stop-color="#dc9d01"/><stop offset=".7" stop-color="#dc9d01"/><stop offset=".82" stop-color="#9a6206"/></linearGradient><linearGradient id="Q" x1="851.158" y1="122.271" x2="204.446" y2="336.354" xlink:href="#g"><stop stop-color="#9a6206"/><stop offset=".2" stop-color="#9a6206"/><stop offset=".34" stop-color="#ffd667"/><stop offset=".5" stop-color="#dc9d01"/><stop offset=".7" stop-color="#dc9d01"/><stop offset=".82" stop-color="#9a6206"/></linearGradient><linearGradient id="R" x1="850.601" y1="120.536" x2="203.858" y2="334.619" xlink:href="#g"><stop stop-color="#9a6206"/><stop offset=".2" stop-color="#9a6206"/><stop offset=".34" stop-color="#ffd667"/><stop offset=".5" stop-color="#dc9d01"/><stop offset=".7" stop-color="#dc9d01"/><stop offset=".82" stop-color="#9a6206"/></linearGradient><linearGradient id="S" x1="844.341" y1="101.665" x2="197.629" y2="315.749" xlink:href="#g"><stop stop-color="#9a6206"/><stop offset=".2" stop-color="#9a6206"/><stop offset=".34" stop-color="#ffd667"/><stop offset=".5" stop-color="#dc9d01"/><stop offset=".7" stop-color="#dc9d01"/><stop offset=".82" stop-color="#9a6206"/></linearGradient><linearGradient id="T" x1="836.347" y1="77.527" x2="189.635" y2="291.61" xlink:href="#g"><stop stop-color="#9a6206"/><stop offset=".2" stop-color="#9a6206"/><stop offset=".34" stop-color="#ffd667"/><stop offset=".5" stop-color="#dc9d01"/><stop offset=".7" stop-color="#dc9d01"/><stop offset=".82" stop-color="#9a6206"/></linearGradient><linearGradient id="U" x1="808.087" y1="-7.901" x2="161.345" y2="206.182" xlink:href="#g"><stop stop-color="#9a6206"/><stop offset=".2" stop-color="#9a6206"/><stop offset=".34" stop-color="#ffd667"/><stop offset=".5" stop-color="#dc9d01"/><stop offset=".7" stop-color="#dc9d01"/><stop offset=".82" stop-color="#9a6206"/></linearGradient><linearGradient id="V" x1="820.885" y1="30.8" x2="174.173" y2="244.884" xlink:href="#g"><stop stop-color="#9a6206"/><stop offset=".2" stop-color="#9a6206"/><stop offset=".34" stop-color="#ffd667"/><stop offset=".5" stop-color="#dc9d01"/><stop offset=".7" stop-color="#dc9d01"/><stop offset=".82" stop-color="#9a6206"/></linearGradient><linearGradient id="W" x1="303.447" y1="-61.291" x2="-27.516" y2="226.973" xlink:href="#g"><stop stop-color="#9a6206"/><stop offset=".2" stop-color="#9a6206"/><stop offset=".34" stop-color="#ffd667"/><stop offset=".5" stop-color="#dc9d01"/><stop offset=".7" stop-color="#dc9d01"/><stop offset=".82" stop-color="#9a6206"/></linearGradient><linearGradient id="X" x1="315.377" y1="-47.626" x2="-15.586" y2="240.669" xlink:href="#g"><stop stop-color="#9a6206"/><stop offset=".2" stop-color="#9a6206"/><stop offset=".34" stop-color="#ffd667"/><stop offset=".5" stop-color="#dc9d01"/><stop offset=".7" stop-color="#dc9d01"/><stop offset=".82" stop-color="#9a6206"/></linearGradient><linearGradient id="Y" x1="346.673" y1="-11.682" x2="15.71" y2="276.582" xlink:href="#g"><stop stop-color="#9a6206"/><stop offset=".2" stop-color="#9a6206"/><stop offset=".34" stop-color="#ffd667"/><stop offset=".5" stop-color="#dc9d01"/><stop offset=".7" stop-color="#dc9d01"/><stop offset=".82" stop-color="#9a6206"/></linearGradient><linearGradient id="Z" x1="284.391" y1="-83.167" x2="-46.541" y2="205.097" xlink:href="#g"><stop stop-color="#9a6206"/><stop offset=".2" stop-color="#9a6206"/><stop offset=".34" stop-color="#ffd667"/><stop offset=".5" stop-color="#dc9d01"/><stop offset=".7" stop-color="#dc9d01"/><stop offset=".82" stop-color="#9a6206"/></linearGradient><linearGradient id="a" x1="316.369" y1="-46.448" x2="-14.563" y2="241.816" xlink:href="#g"><stop stop-color="#9a6206"/><stop offset=".2" stop-color="#9a6206"/><stop offset=".34" stop-color="#ffd667"/><stop offset=".5" stop-color="#dc9d01"/><stop offset=".7" stop-color="#dc9d01"/><stop offset=".82" stop-color="#9a6206"/></linearGradient><linearGradient id="b" x1="291.673" y1="-74.831" x2="-39.29" y2="213.463" xlink:href="#g"><stop stop-color="#9a6206"/><stop offset=".2" stop-color="#9a6206"/><stop offset=".34" stop-color="#ffd667"/><stop offset=".5" stop-color="#dc9d01"/><stop offset=".7" stop-color="#dc9d01"/><stop offset=".82" stop-color="#9a6206"/></linearGradient><linearGradient id="c" x1="304.222" y1="-60.392" x2="-26.71" y2="227.872" xlink:href="#g"><stop stop-color="#9a6206"/><stop offset=".2" stop-color="#9a6206"/><stop offset=".34" stop-color="#ffd667"/><stop offset=".5" stop-color="#dc9d01"/><stop offset=".7" stop-color="#dc9d01"/><stop offset=".82" stop-color="#9a6206"/></linearGradient><linearGradient id="d" x1="273.979" y1="-95.127" x2="-56.983" y2="193.136" xlink:href="#g"><stop stop-color="#9a6206"/><stop offset=".2" stop-color="#9a6206"/><stop offset=".34" stop-color="#ffd667"/><stop offset=".5" stop-color="#dc9d01"/><stop offset=".7" stop-color="#dc9d01"/><stop offset=".82" stop-color="#9a6206"/></linearGradient><linearGradient id="e" x1="331.893" y1="-28.631" x2=".961" y2="259.633" xlink:href="#g"><stop stop-color="#9a6206"/><stop offset=".2" stop-color="#9a6206"/><stop offset=".34" stop-color="#ffd667"/><stop offset=".5" stop-color="#dc9d01"/><stop offset=".7" stop-color="#dc9d01"/><stop offset=".82" stop-color="#9a6206"/></linearGradient><clipPath id="f"><path fill="#fff" d="M0 0h800v225.021H0z"/></clipPath><linearGradient id="g" gradientUnits="userSpaceOnUse"/></defs></svg>