<svg xmlns="http://www.w3.org/2000/svg" width="475" height="273" fill="none" xmlns:v="https://vecta.io/nano"><g clip-path="url(#A)"><g fill="#002e4b"><path d="M440.795 265.83h-1.313v1.657h1.313c.657 0 1.037-.311 1.037-.829s-.38-.828-1.037-.828zm.829 2.382l1.417 2.002h-1.209l-1.279-1.83h-1.105v1.83h-1.002v-5.247h2.349c1.21 0 2.039.621 2.039 1.691 0 .863-.484 1.381-1.21 1.588m-1.14 3.867c-2.453 0-4.353-1.933-4.353-4.385s1.935-4.419 4.388-4.419 4.353 1.934 4.353 4.385-1.935 4.419-4.388 4.419zm0-9.563c-2.867 0-5.182 2.313-5.182 5.178s2.315 5.144 5.148 5.144 5.182-2.313 5.182-5.178-2.315-5.144-5.148-5.144zm-169.09-27.619c-2.211 0-4.215.276-6.081.863s-3.524 1.381-4.975 2.417a13.89 13.89 0 0 0-3.559 3.694c-.933 1.415-1.555 3.003-1.9 4.695v.104c-.415 1.864-.346 3.452.103 4.729s1.21 2.313 2.281 3.177 2.384 1.553 3.938 2.071c1.555.552 3.283 1.036 5.148 1.484l2.903.794c.725.277 1.313.518 1.727.794s.691.553.795.864a1.92 1.92 0 0 1 .069 1.001v.103c-.173.794-.656 1.416-1.451 1.865s-1.866.656-3.248.656c-3.317 0-6.288-.898-8.879-2.693-1.451-1.001-1.486-2.486-1.486-2.486l-4.492 4.488c-1.796 1.726-1.969 4.385-.241 5.558a16.81 16.81 0 0 0 4.007 2.037c2.73 1.001 5.736 1.519 9.018 1.519 2.246 0 4.319-.276 6.219-.794 1.935-.552 3.628-1.312 5.114-2.347s2.764-2.279 3.766-3.729 1.693-3.142 2.073-5.006v-.103c.38-1.692.345-3.177 0-4.419-.38-1.243-1.071-2.279-2.073-3.142s-2.315-1.623-3.87-2.209c-1.555-.622-3.351-1.14-5.355-1.589l-2.937-.794c-.76-.276-1.348-.517-1.762-.794s-.691-.552-.829-.863-.139-.69-.07-1.104v-.104c.139-.656.588-1.208 1.279-1.657s1.658-.691 2.868-.691c1.623 0 3.282.311 4.906.898a11.98 11.98 0 0 1 2.038.932c1.451.863 1.866 2.451 1.866 2.451l6.564-8.147s-4.837-4.626-13.405-4.626m163.562.552h-6.288c-2.073 0-4.077 1.657-4.492 3.729l-3.489 17.261-8.396-19.195c-.449-1.105-1.52-1.76-2.833-1.76h-8.672-1.175c.76.655.691 2.002.622 2.589l-5.805 28.758-.518 2.485s-.415 2.037-1.728 2.866h1.175 6.288c2.073 0 4.077-1.657 4.492-3.729l3.49-17.261 8.395 19.195c.449 1.104 1.521 1.76 2.833 1.76h.311 9.502c-.76-.656-.691-2.002-.622-2.589l6.323-31.278s.414-2.037 1.727-2.866h-1.14v.035zm-73.696 0h-8.189c-1.52 0-3.075.932-3.938 2.348l-2.522 4.211-10.849 18.539-4.215-22.716c-.277-1.45-1.452-2.382-3.006-2.382h-8.362-1.036c1.313.863 1.658 2.865 1.658 2.865l6.98 31.555c.31 1.381 1.485 2.278 2.971 2.278h5.321 2.245 1.244c-.587-1.07.588-2.865.588-2.865l19.348-30.968.034-.069c.242-.448 1.348-2.036 2.764-2.796h-1.036z"/><path d="M320.87 235.38h-30.508c.968.863.587 2.831.587 2.865l-.518 2.521-5.182 25.098-.173.863-.104.518-.207 1.105c-.415 2.071.933 3.728 2.971 3.728h22.113c2.073 0 4.077-1.657 4.491-3.728l.518-2.486.519-2.451h-19.625l1.209-5.835h13.82c2.073 0 4.077-1.657 4.492-3.728l.449-2.244.415-2.037h-17.552l1.14-5.558h15.652c2.073 0 4.077-1.657 4.491-3.729l.519-2.485.518-2.452-.035.035zm73.178 0H363.54c.968.863.588 2.831.588 2.865l-.519 2.521-5.182 25.098-.173.863-.104.518-.207 1.105c-.414 2.071.933 3.728 2.972 3.728h22.112c2.073 0 4.077-1.657 4.491-3.728l.519-2.486.518-2.451H368.93l1.209-5.835h13.821c2.073 0 4.077-1.657 4.491-3.728l.449-2.244.415-2.037h-17.552l1.141-5.558h15.651c2.073 0 4.077-1.657 4.491-3.729l.519-2.485.518-2.452-.035.035z"/></g><path d="M405.795 55.065c11.195 1.657 17.172 6.283 21.007 10.875-1.451-5.765 0-12.877 5.77-16.226 2.108-1.105 4.284-1.623 6.634-1.623 3.697 0 7.186 1.243 10.4 2.589 2.556 1.139 4.975 2.451 7.462 4.039.519-1.139.968-2.313 1.175-3.245.588-2.348-1.624-4.212-4.111-5.006a4.36 4.36 0 0 1-2.937-3.487l-.346-2.589c-.38-2.624-5.424-7.077-27.398-13.257l-1.935-.552a4.31 4.31 0 0 1-2.591-2.071c-.208-.38-.346-.621-3.006-8.734-.242.242-.415.449-.553.656-2.073 2.969-1.209 8.872-.76 10.702a3.74 3.74 0 0 1 .104 1.519c-.07.656-.277 1.45-.691 2.279h.76c1.9 0 3.627 1.277 4.146 3.107a4.36 4.36 0 0 1-1.797 4.833c-.069.069-8.707 5.627-10.987 13.878-.276 1.001-.38 1.761-.38 2.348m-88.277 138.266h.553 7.532c-.276-.863-.276-1.83.069-2.727h-.034c-1.071 0-2.073-.38-2.868-1.105l-4.353-3.798c-9.225-7.94-14.891-13.049-14.891-18.09 0-1.243.552-2.451 1.485-3.245.069-.069 7.636-6.732 9.467-14.879l-2.971.034c-2.315 0-4.906-.069-7.36-.173-2.625 7.803-5.113 16.364-5.113 18.539 0 3.142 4.837 8.286 8.741 12.394 3.835 4.04 7.429 7.872 9.122 11.807.276.622.449.967.587 1.14m-148.498-31.451c.691 1.553 3.731 5.524 6.012 8.458 5.286 6.836 11.885 15.294 14.165 23.062h9.916c-.311-1.071-.241-2.244.311-3.246.035-.069.07-.138.139-.207-.588-.069-1.21-.069-1.832-.069-.932 0-1.831-.31-2.556-.828-4.423-3.28-12.749-19.23-16.101-25.962-.553-1.07-.587-2.347-.173-3.487.45-1.139 1.348-2.037 2.488-2.451.933-.38 23.391-9.39 23.391-35.421 0-16.951 9.052-25.927 26.189-25.927h1.244c1.244.035 2.557.173 3.8.345 7.705 1.07 17.897 4.523 29.679 8.459 9.571 3.21 20.385 6.87 31.51 9.77l7.152 1.726c-.656-2.106-1.036-4.281-1.175-6.594-.069-1.346.415-2.658 1.313-3.66.933-.966 2.212-1.553 3.559-1.553a4.85 4.85 0 0 1 3.351 1.346c3.145 2.969 14.339 12.739 27.33 14.328h.933c1.14 0 2.28.103 3.386.345 12.818 2.52 17.931 18.711 19.175 23.614l52.137 49.541h9.674c2.28-.863 2.557-2.072 2.591-2.279v-.414l-3.351.759c-.346.104-.726.138-1.071.138-1.106 0-2.177-.414-2.971-1.208l-44.294-42.533c-1.555-1.484-1.762-3.901-.484-5.627 1.14-1.553 3.559-3.349 6.668-3.349 1.175 0 2.315.242 3.455.725l-2.902-5.109c-16.584-29.034-35.345-61.969-54.693-76.607a4.26 4.26 0 0 1-1.382-5.006c.656-1.622 2.246-2.693 3.973-2.693h.518c14.65 1.761 30.059 15.535 46.92 42.049 1.9-5.904 3.489-12.601 5.044-19.16 2.211-9.252 4.284-17.987 7.118-24.304.276-.725.656-1.519 1.105-2.244 3.593-6.007 7.981-9.701 12.058-11.98a5.81 5.81 0 0 1-1.002-.863c-1.762-1.795-2.695-4.73-3.075-7.664-1.209-.104-2.695-.138-4.422-.138-32.512 0-72.176 21.128-72.591 21.335a4.16 4.16 0 0 1-2.038.518c-.415 0-.829-.069-1.244-.173-10.089-3.038-19.003-4.454-28.089-4.454-9.847 0-19.28 1.692-30.232 3.625-15.755 2.796-35.38 6.318-64.817 6.318-50.513 0-82.748 43.81-108.696 78.99-17.586 23.89-31.51 42.774-47.334 42.774-11.816 0-18.865-7.63-18.865-20.438 0-4.591 1.624-10.15 4.837-16.536.207-.449-.035-.863-.138-.932-2.211 0-9.225 1.277-9.225 17.883 0 19.229 12.991 22.095 20.696 22.095 20.35 0 43.292-29.794 63.573-56.066 18.036-23.407 33.618-43.638 47.611-43.638a4.27 4.27 0 0 1 4.008 2.762c2.764 7.319 6.737 15.466 10.572 23.372 7.083 14.569 13.786 28.309 13.786 37.941 0 8.977-3.11 14.328-5.148 17.918-.519.898-1.21 2.071-1.382 2.658m-60.187 26.79s.345.208.691.346c.414.207.967.483 1.658.897 2.108 1.174 5.805 3.211 10.365 3.729 0-.138.035-.242.069-.38-6.046-4.246-13.163-11.703-13.163-27.239a4.3 4.3 0 0 1 2.107-3.694c18.036-10.668 27.606-23.959 28.988-40.323-8.845 12.497-19.694 21.75-27.468 28.413-3.455 2.969-7.704 6.594-8.948 8.354 4.25 12.808 5.01 22.095 5.597 28.931l.069.966h.035zm302.8 19.748c-1.9 0-3.697-.725-5.079-2.003l-2.66-2.485c-44.812-41.601-52.241-49.438-53.588-51.578-.898-1.45-1.589-3.211-2.349-5.213l-.968-2.417c-.38.069-.76.104-1.175.173-3.835 12.152-16.515 21.335-22.872 25.305 1.624 1.692 4.422 4.178 6.634 6.146 8.706 1.312 23.01 7.491 23.01 23.234 0 4.971-4.042 8.838-9.19 8.838H337.8c-1.036 0-2.038-.242-2.937-.725-1.071.449-2.315.725-3.731.725h-15.03c-5.942 0-9.881-2.762-11.781-8.148-1.52-4.35-5.632-8.734-9.571-12.946-5.493-5.834-10.676-11.358-10.676-18.056s2.937-15.88 4.906-21.611c-3.697-.863-6.53-2.037-10.296-3.556l-2.038-.829c-9.191-3.694-21.871-8.423-33.03-12.601l-22.527-8.527v.656c0 25.029-16.55 38.459-23.909 43.154 1.485 3.66 3.766 8.079 6.046 10.426 12.853 1.899 21.11 10.115 22.181 22.164.242 2.624-.621 5.179-2.314 7.043-1.693 1.83-4.043 2.831-6.703 2.831h-3.801c-1.347 0-2.487-.345-3.455-.932-1.209.587-2.626.932-4.25.932h-17.828c-5.631 0-10.918-4.178-12.334-9.736-1.831-7.284-8.292-14.603-13.475-20.507-5.286-6.007-9.121-10.357-9.121-14.914 0-3.452 1.797-5.662 3.213-7.457.795-1.001 1.624-2.037 2.315-3.452-8.396 7.975-20.558 16.088-34.067 20.956 1.002 5.799 4.975 8.044 9.847 10.771 5.079 2.831 11.402 6.352 11.402 14.845 0 5.178-4.285 9.252-9.778 9.252-1.935 0-3.49-.311-4.664-.656-1.832.587-4.285.898-7.429.898-10.952 0-20.73-5.351-22.872-6.594-4.492-1.726-5.597-5.351-5.736-8.113-1.175-22.889-6.115-32.935-6.15-33.004-.276-.553-.449-1.14-.449-1.761-16.481 18.332-34.24 33.177-51.515 33.177-26.742 0-36.209-19.782-36.209-36.699 0-23.234 12.507-33.625 24.911-33.625h.449c5.148.103 9.778 2.934 12.334 7.56 2.764 4.972 2.626 11.082-.311 15.95-1.762 2.935-2.66 5.731-2.66 8.32 0 5.386 1.762 5.8 4.457 5.8 9.26 0 21.041-16.536 34.723-35.697C99.92 87.241 135.542 37.32 195.418 37.32c29.679 0 47.921-3.694 62.571-6.628 10.641-2.14 19.832-4.005 30.508-4.005 8.741 0 17.724 1.243 28.089 3.901 7.774-3.556 44.467-19.471 78.603-19.471a95.39 95.39 0 0 1 6.357.207C405.139 5.42 410.84.035 422.76.035a4.23 4.23 0 0 1 4.042 2.9c.726 2.071 2.522 7.181 3.801 10.15 6.426 2.002 11.989 4.281 17.033 6.87 9.64 5.248 14.995 10.909 15.962 16.951 4.907 2.9 8.5 6.421 10.849 10.737.968 1.726.588 3.901-.898 5.247-.38.345-1.486 1.416-2.557 2.451l-1.278 1.243c-.933 2.624-2.073 4.971-3.49 7.215-.587.898-1.624 2.555-3.489 3.59-1.21.725-2.695 1.139-4.215 1.139-.38 0-.761 0-1.141-.069-1.312.932-2.971 1.864-5.113 2.486v.069c-.587 2.727-1.624 4.833-2.73 6.456 0 1.105-.345 2.14-1.071 2.969-2.418 2.727-4.802 4.488-7.428 5.524-2.073.863-4.319 1.346-6.599 1.346-5.874 0-11.609-3.142-15.341-8.458-2.625-3.728-5.459-5.662-8.741-7.043-5.77 4.419-14.753 21.543-19.728 31.106l-3.455 6.559c8.361 15.018 15.928 30.795 22.078 43.569l8.43 17.262 6.357 6.214c2.246-.553 5.597-1.243 8.638-1.243 10.192 0 16.515 5.42 16.515 14.189 0 4.281-1.106 8.942-2.073 11.669-1.486 4.177-5.77 7.181-10.434 7.319h-2.453c-1.313 0-2.557-.311-3.559-.932-1.417.552-3.144.932-5.286.932h-13.682l-.035-.069z" fill="#fff"/><g fill="#ffce00"><path d="M144.248 107.402l-.518-3.245-1.451 2.969c-8.845 18.056-23.736 30.795-33.618 39.218-6.875 5.869-11.021 9.425-11.021 12.463v.173l.069.173c4.457 12.877 5.217 22.198 5.77 28.999l.103 1.312c.208 2.486 1.935 3.59 3.766 4.419.242.104.622.138.899.414 9.536 9.391 23.77 4.419 23.77 4.419.657 0 1.244-.31 1.59-.863s.414-1.208.138-1.795c-.795-1.761-2.764-2.796-5.252-4.143-5.77-3.038-14.442-7.63-14.649-25.34 24.22-14.534 34.447-34.454 30.404-59.207m192.239 81.647c-3.317-2.313-7.014-3.625-10.434-3.728l-4.146-3.591c-5.217-4.488-12.3-10.598-12.957-13.602 2.108-1.933 11.333-11.047 11.333-22.026 0-.414 0-.794-.035-1.174l-.103-1.07-1.071.138c-1.797.207-4.388.311-7.498.311-3.282 0-7.117-.104-10.296-.311h-.795l-.276.691c-.276.759-6.461 18.47-6.461 23.337 0 5.283 5.183 10.772 10.227 16.054 3.49 3.694 6.772 7.181 8.085 10.253 1.416 3.28 2.937 4.419 6.046 4.419h12.196c1.141 0 2.108-.932 2.108-2.037 0-1.208-.242-2.244-.553-3.072 1.831.759 3.524 2.416 3.524 4.039v1.036h4.976c.656 0 1.278-.311 1.658-.829.415-.518.518-1.174.38-1.795-.587-2.21-2.833-4.902-5.908-7.043z"/><path d="M456.412 41.635l-.276-1.968c-1.279-9.218-20.765-14.707-31.234-17.676l-1.382-.38-3.87-11.669-.276-.829-.864.104c-3.351.38-5.873 1.795-7.566 4.246-3.594 5.213-1.935 13.257-1.555 14.811-.138.483-.829 1.933-4.008 1.933-.069 0-.207-.069-.346-.207-.932-.967-1.865-4.143-1.762-7.768v-.898l-.863-.138c-1.659-.276-4.527-.621-8.707-.621-32.063 0-70.449 19.54-74.733 21.75-24.392-7.25-39.491-4.557-60.36-.863-15.547 2.762-34.895 6.214-63.883 6.214-23.667 0-45.503 8.942-66.752 27.377-18.277 15.846-33.134 36.008-46.228 53.787-16.031 21.784-29.886 40.599-43.05 40.599-11.747 0-13.509-9.459-13.509-15.086 0-4.695 2.315-10.254 4.25-14.12a6.13 6.13 0 0 0-.242-5.973c-1.002-1.657-2.729-2.658-4.63-2.693h-.138c-1.589 0-5.666.415-9.087 4.212-3.559 3.97-5.39 10.357-5.39 18.988 0 25.444 19.936 27.446 26.051 27.446 22.976 0 46.781-30.898 67.788-58.137 16.135-20.921 31.372-40.703 42.67-41.532 2.833 7.354 6.737 15.363 10.503 23.096 6.806 13.982 13.233 27.205 13.233 35.628 0 7.526-2.557 11.98-4.423 15.225-1.209 2.072-2.142 3.729-2.142 5.524 0 2.14 2.591 5.593 7.187 11.531 5.01 6.456 11.263 14.5 13.267 21.301.691 2.278 2.695 3.832 5.079 3.832h14.408c1.278 0 2.073-.898 2.073-2.313 0-1.105-.346-2.072-.795-2.866 2.177.656 4.111 2.175 4.526 4.35l.173.863h2.729c.622 0 1.21-.276 1.59-.725.414-.449.587-1.07.483-1.691-.656-4.35-4.802-11.635-16.308-11.807-3.178-2.797-10.537-16.537-13.751-22.889 4.976-2.313 25.775-13.568 25.775-39.944 0-13.844 6.807-20.576 20.834-20.576h1.037a25.31 25.31 0 0 1 3.213.311c7.29 1.036 17.24 4.384 28.746 8.251 9.639 3.245 20.557 6.939 31.855 9.874 5.597 1.45 10.918 2.589 16.343 3.487l2.764.448-1.762-2.175c-2.592-3.141-4.112-6.835-4.561-11.013 4.388 3.971 16.135 13.465 29.921 14.984h.069.138a15.1 15.1 0 0 1 3.317.172c11.367 2.244 15.271 20.611 15.306 20.818l.069.31 53.588 50.922c.794.76 1.831 1.174 2.936 1.174h10.124a6.26 6.26 0 0 0 2.004-.345c3.869-1.519 5.217-4.005 5.666-5.593.104.104.207.173.311.311.656.794 1.209 2.382.829 4.384l-.242 1.243h3.49c1.485 0 2.798-1.036 3.109-2.52a25.86 25.86 0 0 0 .588-5.351c0-2.9-1.21-6.352-6.945-6.352-3.317 0-8.499 1.173-10.296 1.622l-43.05-41.359a2.99 2.99 0 0 1 1.348-.518c1.002-.103 2.142.346 3.316 1.312 1.59 1.347 7.532 6.974 17.656 16.744l1.624-1.312c-5.459-8.7-11.126-18.642-17.137-29.172-15.859-27.826-33.756-59.139-52.69-75.468 13.095 3.936 27.329 19.091 43.395 46.089l1.037 1.726.829-1.83c3.524-7.768 5.977-18.09 8.361-28.067 2.143-9.011 4.181-17.503 6.807-23.407.242-.656.484-1.174.76-1.623 5.148-8.596 12.058-11.531 16.273-12.498-3.282 2.796-8.154 7.837-10.054 14.5-1.624 5.765.691 8.32.795 8.424l.276.276h.38c15.617 1.554 20.143 8.7 23.771 14.431 1.969 3.072 3.662 5.731 6.703 6.594 4.249 1.174 7.083-1.899 8.015-3.659l.415-.794-.726-.518c-3.869-2.865-6.357-5.317-8.292-10.219-1.485-3.901-.967-9.252 2.868-11.462 3.662-1.899 8.085-.518 12.265 1.243 2.419 1.07 4.768 2.382 7.256 4.005.276.138.587.38.933.621.691.518 1.416 1.036 2.177 1.243 1.347.38 2.003-.69 2.211-1.105.034-.069.103-.173.138-.242l.069-.104c1.278-2.071 2.626-5.109 3.144-7.25 1.175-4.661-1.693-9.183-7.014-11.151"/></g><g fill="#002e4b"><path d="M415.193 27.895l1.935-3.659c1.935-3.625-2.073-8.493-2.073-8.493-2.764 5.489.138 12.118.138 12.118m29.955 15.086c2.903.794 5.425-3.245 5.425-3.245l-.691-.414c-1.451-.863-5.286-2.865-11.229-4.661-.138-.069-.311-.104-.449-.138-2.073-.621-4.388-1.174-6.979-1.657l7.808 3.487c1.106 2.244 3.317 5.834 6.081 6.629M402.617 59s-2.039-2.14-.553-7.423c2.798-9.977 12.818-16.33 12.818-16.33s-12.784-.207-21.007 13.499a12.29 12.29 0 0 0-.863 1.795c-5.563 12.498-8.534 36.802-15.168 51.405-14.615-24.546-31.337-45.432-48.371-47.504 27.053 20.507 51.93 73.569 72.971 107.092l-17.724-16.779c-4.285-3.556-6.876 0-6.876 0l44.294 42.498s6.737-1.726 10.607-1.726 5.908 1.657 5.908 5.282c0 2.003-.311 3.867-.553 5.144a2.11 2.11 0 0 1-2.073 1.657h-2.211c.725-3.624-1.175-6.317-2.937-6.317 0 0 0 3.97-5.252 6.041-.449.173-1.036.276-1.589.276h-10.123c-.83 0-1.59-.31-2.212-.897l-53.38-50.68s-3.973-19.23-16.135-21.646c-1.14-.208-2.315-.311-3.593-.208-14.442-1.588-26.604-12.152-30.163-15.501-.415-.379-1.036-.069-1.002.484.311 5.351 2.211 9.494 4.872 12.739-5.736-.932-11.126-2.141-16.239-3.452-24.669-6.422-47.161-16.226-60.74-18.16-1.071-.172-2.176-.276-3.317-.311h-1.071c-14.822 0-21.905 7.353-21.905 21.647 0 29.448-26.154 39.425-26.154 39.425s10.779 21.439 14.822 24.443c10.469 0 14.96 6.318 15.651 10.909.104.622-.414 1.208-1.036 1.208h-1.866c-.691-3.555-3.87-5.558-7.221-5.558 0 0 1.416 1.899 1.416 4.316 0 .828-.38 1.242-1.036 1.242h-14.408c-1.9 0-3.524-1.242-4.042-3.072-3.628-12.256-20.419-28.137-20.419-32.521s6.599-8.424 6.599-20.783c0-13.671-16.308-39.288-24.082-59.795-26.535 0-70.552 99.704-111.149 99.704-12.887 0-25.015-7.146-25.015-26.376s9.156-22.164 13.406-22.164h.138c3.421.035 5.528 3.936 3.939 7.112-2.004 3.97-4.388 9.701-4.388 14.603 0 8.458 3.697 16.123 14.58 16.123 35.103 0 69.757-121.764 156.03-121.764 67.166 0 81.4-18.228 124.347-5.282 0 0 40.666-21.853 74.629-21.853 4.042 0 6.806.311 8.534.587-.104 4.384 1.244 9.08 3.178 9.08 4.768 0 5.079-3.003 5.079-3.003s-4.284-16.537 8.189-17.952l4.077 12.221c8.257 2.382 31.095 8.148 32.373 17.331l.346 2.589c5.183 1.692 8.016 5.869 6.945 10.115a27.64 27.64 0 0 1-3.006 6.939c-.346.414-.518 1.208-1.244 1.001-.933-.242-1.969-1.243-2.868-1.761-2.349-1.519-4.768-2.9-7.359-4.074-3.939-1.657-8.914-3.452-13.198-1.208-4.354 2.555-5.01 8.493-3.352 12.774 1.97 4.971 4.457 7.595 8.638 10.668 0 0-2.246 4.385-6.806 3.142-7.705-2.14-6.047-18.608-30.647-21.025m-94.772 108.679c0 4.109 10.745 12.36 17.794 18.677 7.394 0 14.718 6.076 15.72 9.978.173.656-.345 1.311-1.036 1.311h-3.939c0-3.003-3.801-5.558-6.703-5.558 0 0 1.624 1.657 1.624 4.592 0 .518-.484.966-1.036.966h-12.197c-2.557 0-3.8-.69-5.079-3.763-3.317-7.802-18.208-17.572-18.208-25.892 0-4.764 6.392-22.993 6.392-22.993 4.733.311 13.302.518 17.966 0 0 .346.035.725.035 1.105 0 11.807-11.367 21.612-11.367 21.612m-195.072-1.692c0 24.788 19.935 25.616 19.935 30.346 0 .691-.311 1.519-1.693 1.519 0 0-1.865-3.418-4.699-3.418 0 0 3.006 3.591-2.729 3.591-7.981 0-13.889-4.212-15.824-5.11-1.97-.897-3.006-1.795-3.144-3.556-.588-6.87-1.14-16.709-5.943-30.553 0-6.628 30.094-21.68 44.536-51.232 2.936 18.021-.484 40.703-30.405 58.413m297.169-98.944c4.733 1.692 8.879 4.005 12.645 9.321 3.248 4.592 9.709 8.596 16.861 5.593 2.28-.898 4.146-2.555 5.77-4.385l-.898-.621c1.174-1.07 2.971-3.245 3.731-6.836 0 0-3.489 3.349-7.014 4.315-.725-.621-1.451-1.277-2.107-1.968 4.146-6.628 0-13.671-2.108-16.502.726-.276 1.555-.414 2.522-.276 4.699.414 9.329 3.073 13.337 5.731-.968 2.589-3.006 5.731-3.006 5.731 3.42-.622 5.459-2.21 6.599-3.418 1.382.622 2.833.829 4.353-.069.864-.483 1.452-1.346 1.935-2.106a33.4 33.4 0 0 0 3.421-7.284l4.699-4.523c-2.592-4.661-6.669-7.837-11.264-10.184.484-7.146-8.361-12.808-13.785-15.743-5.805-3.038-11.92-5.282-18.139-7.146-1.59-3.004-4.768-12.29-4.768-12.29-10.642 0-15.237 4.592-18.83 11.496-39.008-3.659-86.964 19.333-86.964 19.333-46.021-12.256-53.691 6.49-121.583 6.49-91.317 0-125.107 122.109-156.203 122.109-5.632 0-8.776-2.9-8.776-10.081 0-3.901 1.451-7.526 3.282-10.529 4.388-7.25-.276-16.882-8.465-17.02h-.311c-10.78 0-20.627 9.735-20.627 29.345 0 15.328 8.119 32.417 31.925 32.417 40.839 0 89.347-96.147 106.381-96.147-8.223 32.591-50.548 55.962-50.548 67.045 0 0 5.355 10.391 6.634 34.73.138 2.659 1.417 3.798 3.317 4.454 0 0 9.985 6.214 21.007 6.214 6.426 0 7.29-1.277 7.29-1.277s1.658 1.035 4.837 1.035c2.729 0 5.493-1.829 5.493-4.971 0-13.222-21.49-9.183-21.49-28.62 18.865-5.972 36.451-19.471 43.395-30.07.173-.241.38-.414.553-.587.415 1.174.622 2.348.622 3.453 0 14.603-7.256 14.983-7.256 20.196 0 6.663 18.727 19.471 22.493 34.351.898 3.555 4.491 6.49 8.154 6.49h17.828c3.524 0 5.01-3.004 5.01-3.004s.345 3.004 2.695 3.004h3.8c3.386 0 4.975-2.727 4.734-5.213-.795-8.734-6.254-16.986-19.798-18.47-5.563-4.385-9.467-16.399-9.467-16.399s24.911-12.152 24.911-41.255c0-1.484-.207-4.212.415-7.008 4.249 2.451 40.735 15.328 61.051 23.51 6.495 2.624 9.605 4.108 16.515 5.075 0 0-6.427 16.122-6.427 24.891 0 9.391 16.135 18.367 20.005 29.621 1.313 3.729 3.593 5.282 7.705 5.282h15.029c3.559 0 4.561-3.003 4.561-3.003s-.069 3.003 2.107 3.003h5.632c2.695 0 4.906-1.933 4.906-4.557 0-17.123-20.557-19.126-20.557-19.126-6.945-6.11-10.4-9.355-10.4-11.91 0 0 22.181-11.6 25.015-27.446l7.221-1.139c2.073 4.246 3.04 7.975 4.353 10.115 2.66 4.246 48.371 46.503 55.523 53.2.622.587 1.416.898 2.245.863h13.579c5.251 0 6.599-3.003 6.599-3.003s-.622 3.003 2.246 3.003h2.349c2.764-.069 5.563-1.829 6.496-4.453.829-2.382 1.831-6.594 1.831-10.219 0-7.802-6.565-9.874-12.231-9.874-4.319 0-9.882 1.727-9.882 1.727l-8.603-8.424c-7.601-14.776-18.76-40.013-31.924-63.419 6.219-11.048 18.864-38.597 27.744-42.395M117.195 235.38h-3.144c-2.073 0-4.077 1.657-4.491 3.729l-3.421 16.95c-.518 2.59-1.52 4.488-3.006 5.731-1.486 1.209-3.248 1.83-5.321 1.83s-3.593-.621-4.561-1.899-1.175-3.279-.656-5.938l3.351-16.674c.415-2.072-.933-3.729-2.971-3.729h-7.774c.967.863.587 2.831.587 2.865l-3.593 17.745c-.587 2.866-.691 5.386-.38 7.492.38 2.106 1.175 3.832 2.349 5.248 1.209 1.38 2.764 2.382 4.733 3.038s4.25 1.001 6.91 1.001 5.045-.345 7.291-1.001a17.63 17.63 0 0 0 6.011-3.038c1.797-1.416 3.317-3.177 4.526-5.317 1.279-2.175 2.212-4.73 2.834-7.699l3.524-17.503s.414-2.002 1.727-2.866h-4.629l.103.035zm49.442 0h-9.847c-1.279 0-2.626.656-3.524 1.761l-10.193 12.463-5.182-12.463c-.449-1.105-1.52-1.761-2.833-1.761h-.311-4.872-4.63c.76.656.691 2.002.622 2.589l-5.804 28.793-.519 2.485s-.414 2.037-1.727 2.866h7.463c2.073 0 4.077-1.657 4.491-3.729l3.49-17.261 6.426 14.292h.208l12.265-14.396-3.524 17.365c-.415 2.072.933 3.729 2.971 3.729h7.567c-.898-.794-.622-2.589-.588-2.831l6.289-31.071c.069-.242.483-2.037 1.727-2.831m35.519 33.867l-6.98-31.588c-.311-1.381-1.485-2.279-2.971-2.279h-8.81c.587 1.07-.588 2.865-.588 2.865l-19.383 30.968-.034.069c-.242.449-1.348 2.071-2.764 2.796h9.225c1.52 0 3.075-.932 3.939-2.347l2.556-4.212 10.884-18.574 2.073 11.082h-1.037c-3.386 0-6.875 2.106-8.707 5.282l-1.554 2.693s2.349-.966 7.566-.966c4.63 0 5.908 4.66 5.908 4.66.277 1.45 1.452 2.382 3.006 2.382h9.398c-1.313-.863-1.658-2.865-1.658-2.865m22.043-34.282c-2.211 0-4.215.276-6.081.863s-3.524 1.381-4.975 2.417a13.89 13.89 0 0 0-3.559 3.694 13.38 13.38 0 0 0-1.935 4.695v.104c-.414 1.864-.345 3.452.104 4.729a6.78 6.78 0 0 0 2.28 3.176c1.071.864 2.384 1.554 3.939 2.106s3.282 1.036 5.148 1.485c1.209.276 2.177.552 2.902.828.726.242 1.313.518 1.728.795s.691.552.794.863.138.621.069 1.035v.104c-.172.794-.656 1.415-1.485 1.864-.795.449-1.901.656-3.248.656-3.317 0-6.288-.898-8.914-2.693-1.451-1.001-1.486-2.485-1.486-2.485l-4.491 4.488c-1.797 1.726-1.97 4.384-.242 5.558 1.209.828 2.557 1.519 4.008 2.071 2.729 1.001 5.77 1.519 9.017 1.519 2.246 0 4.319-.276 6.219-.794 1.935-.552 3.628-1.312 5.149-2.347 1.485-1.036 2.764-2.279 3.766-3.729s1.692-3.141 2.073-5.006v-.103c.38-1.692.345-3.176 0-4.419-.381-1.243-1.072-2.279-2.073-3.142s-2.315-1.623-3.87-2.209c-1.555-.622-3.352-1.14-5.355-1.588-1.21-.277-2.177-.553-2.937-.829-.76-.242-1.348-.518-1.762-.794s-.691-.552-.83-.863-.138-.691-.069-1.105v-.103c.139-.656.588-1.209 1.279-1.658s1.658-.69 2.867-.69c1.624 0 3.283.311 4.907.932a11.98 11.98 0 0 1 2.038.932c1.451.863 1.866 2.451 1.866 2.451l6.564-8.147s-4.837-4.626-13.405-4.626m-156.963.276H49.615c.967.863.587 2.831.587 2.865l-6.254 31.002s-.415 2.037-1.727 2.866h12.507c-.967-.863-.587-2.9-.587-2.9l5.079-25.03h6.323c4.561 0 5.493 1.934 4.941 4.661-.657 3.314-3.49 4.868-6.876 4.868h-.38c-4.561 0-5.805-1.588-5.805-1.588l-.967 4.695c-.657 3.211 3.87 5.834 7.877 5.834 7.532 0 14.028-3.417 16.17-14.672 1.762-9.39-4.388-12.636-13.198-12.636"/></g></g><defs><clipPath id="A"><path fill="#fff" d="M0 0h475v272.872H0z"/></clipPath></defs></svg>