<svg xmlns="http://www.w3.org/2000/svg" width="475" height="273" fill="none" xmlns:v="https://vecta.io/nano"><g clip-path="url(#A)"><g fill="#002e4b"><path d="M372.8 265.647h-1.313v1.656h1.313c.656 0 1.036-.31 1.036-.828s-.38-.828-1.036-.828zm.829 2.381l1.416 2.001h-1.209l-1.278-1.829h-1.106v1.829h-1.002v-5.244h2.35c1.209 0 2.038.621 2.038 1.69 0 .863-.484 1.38-1.209 1.587m-1.106 3.864c-2.453 0-4.353-1.932-4.353-4.381s1.935-4.416 4.388-4.416 4.353 1.932 4.353 4.381-1.935 4.416-4.388 4.416zm0-9.556c-2.867 0-5.182 2.311-5.182 5.175s2.315 5.14 5.148 5.14 5.182-2.311 5.182-5.175-2.314-5.14-5.148-5.14z"/></g><path d="M405.795 55.027c11.195 1.656 17.172 6.279 21.007 10.867-1.451-5.761 0-12.868 5.77-16.215a13.97 13.97 0 0 1 6.634-1.621c3.697 0 7.186 1.242 10.4 2.587 2.556 1.138 4.975 2.449 7.462 4.036.519-1.139.968-2.312 1.175-3.243.588-2.346-1.624-4.209-4.111-5.002-1.555-.518-2.695-1.863-2.937-3.485l-.346-2.587c-.38-2.622-5.424-7.073-27.398-13.248l-1.935-.552a4.31 4.31 0 0 1-2.591-2.07c-.208-.38-.346-.621-3.006-8.728-.242.242-.415.449-.553.656-2.073 2.967-1.209 8.866-.76 10.695.138.483.173 1 .104 1.518-.07.656-.277 1.449-.691 2.277h.76c1.9 0 3.627 1.277 4.146 3.105s-.208 3.795-1.797 4.83c-.069.069-8.707 5.623-10.987 13.869-.276 1-.38 1.759-.38 2.346m-88.277 138.171h.553 7.532a4.11 4.11 0 0 1 .069-2.725h-.034c-1.071 0-2.073-.379-2.868-1.104l-4.353-3.795c-9.225-7.935-14.891-13.041-14.891-18.078 0-1.242.552-2.449 1.485-3.243.069-.069 7.636-6.727 9.467-14.869l-2.971.034c-2.315 0-4.906-.069-7.36-.172-2.625 7.797-5.113 16.353-5.113 18.526 0 3.14 4.837 8.28 8.741 12.386 3.835 4.036 7.429 7.866 9.122 11.799.276.621.449.965.587 1.138M168.952 161.7c.691 1.552 3.731 5.52 6.012 8.452 5.286 6.831 11.885 15.284 14.165 23.046h9.916c-.311-1.069-.241-2.242.311-3.243.035-.069.07-.138.139-.207-.588-.069-1.21-.069-1.832-.069-.932 0-1.831-.31-2.556-.828-4.423-3.277-12.749-19.216-16.101-25.944-.553-1.069-.587-2.346-.173-3.484.45-1.139 1.348-2.036 2.488-2.45.933-.379 23.391-9.384 23.391-35.396 0-16.94 9.052-25.909 26.189-25.909h1.244c1.244.034 2.557.172 3.8.345 7.705 1.069 17.897 4.519 29.679 8.453 9.571 3.208 20.385 6.865 31.51 9.763l7.152 1.725c-.656-2.104-1.036-4.278-1.175-6.589-.069-1.346.415-2.657 1.313-3.657.933-.966 2.212-1.553 3.559-1.553a4.85 4.85 0 0 1 3.351 1.346c3.145 2.967 14.339 12.73 27.33 14.317h.933c1.14 0 2.28.104 3.386.345 12.818 2.519 17.931 18.699 19.175 23.598l52.137 49.507h9.674c2.28-.862 2.557-2.07 2.591-2.277v-.414l-3.351.759c-.346.104-.726.138-1.071.138-1.106 0-2.177-.414-2.971-1.207l-44.294-42.504a4.27 4.27 0 0 1-.484-5.623c1.14-1.553 3.559-3.347 6.668-3.347 1.175 0 2.315.242 3.455.725l-2.902-5.106c-16.584-29.015-35.345-61.927-54.693-76.555-1.555-1.173-2.108-3.243-1.382-5.002.656-1.621 2.246-2.691 3.973-2.691h.518c14.65 1.759 30.059 15.525 46.92 42.021 1.9-5.899 3.489-12.592 5.044-19.147 2.211-9.246 4.284-17.974 7.118-24.288.276-.724.656-1.518 1.105-2.242 3.593-6.003 7.981-9.694 12.058-11.971-.345-.242-.691-.518-1.002-.863-1.762-1.794-2.695-4.726-3.075-7.659-1.209-.104-2.695-.138-4.422-.138-32.512 0-72.176 21.114-72.591 21.321-.622.345-1.313.517-2.038.517-.415 0-.829-.069-1.244-.172-10.089-3.036-19.003-4.45-28.089-4.45-9.847 0-19.28 1.691-30.232 3.622-15.755 2.794-35.38 6.313-64.817 6.313-50.513 0-82.748 43.78-108.696 78.935-17.586 23.874-31.51 42.745-47.334 42.745-11.816 0-18.865-7.624-18.865-20.424 0-4.588 1.624-10.143 4.837-16.525.207-.448-.035-.862-.138-.931-2.211 0-9.225 1.276-9.225 17.87 0 19.217 12.991 22.08 20.696 22.08 20.35 0 43.292-29.773 63.573-56.027 18.036-23.391 33.618-43.608 47.611-43.608a4.27 4.27 0 0 1 4.008 2.76c2.764 7.314 6.737 15.456 10.572 23.356 7.083 14.559 13.786 28.29 13.786 37.916 0 8.969-3.11 14.317-5.148 17.905-.519.897-1.21 2.07-1.382 2.656m-60.187 26.772s.345.207.691.345c.414.207.967.483 1.658.897 2.108 1.173 5.805 3.208 10.365 3.726 0-.138.035-.242.069-.38-6.046-4.243-13.163-11.695-13.163-27.22 0-1.518.794-2.898 2.107-3.691 18.036-10.661 27.606-23.943 28.988-40.296-8.845 12.489-19.694 21.735-27.468 28.393-3.455 2.967-7.704 6.59-8.948 8.349 4.25 12.8 5.01 22.08 5.597 28.911l.069.966h.035zm302.8 19.734c-1.9 0-3.697-.725-5.079-2.001l-2.66-2.484c-44.812-41.572-52.241-49.404-53.588-51.543-.898-1.449-1.589-3.208-2.349-5.209l-.968-2.415c-.38.069-.76.103-1.175.172-3.835 12.144-16.515 21.321-22.872 25.289 1.624 1.69 4.422 4.174 6.634 6.141 8.706 1.311 23.01 7.486 23.01 23.218 0 4.968-4.042 8.832-9.19 8.832H337.8c-1.036 0-2.038-.242-2.937-.725-1.071.449-2.315.725-3.731.725h-15.03c-5.942 0-9.881-2.76-11.781-8.142-1.52-4.347-5.632-8.728-9.571-12.937-5.493-5.831-10.676-11.351-10.676-18.044s2.937-15.87 4.906-21.597c-3.697-.862-6.53-2.035-10.296-3.553l-2.038-.828c-9.191-3.691-21.871-8.418-33.03-12.592l-22.527-8.522v.656c0 25.012-16.55 38.432-23.909 43.124 1.485 3.657 3.766 8.073 6.046 10.419 12.853 1.898 21.11 10.109 22.181 22.149.242 2.622-.621 5.175-2.314 7.038-1.693 1.828-4.043 2.829-6.703 2.829h-3.801c-1.347 0-2.487-.345-3.455-.932-1.209.587-2.626.932-4.25.932h-17.828c-5.631 0-10.918-4.175-12.334-9.729-1.831-7.279-8.292-14.593-13.475-20.493-5.286-6.003-9.121-10.35-9.121-14.904 0-3.45 1.797-5.658 3.213-7.452.795-1 1.624-2.035 2.315-3.45-8.396 7.97-20.558 16.077-34.067 20.942 1.002 5.796 4.975 8.038 9.847 10.764 5.079 2.829 11.402 6.348 11.402 14.834 0 5.175-4.285 9.246-9.778 9.246a16.4 16.4 0 0 1-4.664-.655c-1.832.586-4.285.897-7.429.897-10.952 0-20.73-5.348-22.872-6.59-4.492-1.725-5.597-5.347-5.736-8.107-1.175-22.873-6.115-32.913-6.15-32.982-.276-.552-.449-1.138-.449-1.759-16.481 18.319-34.24 33.154-51.515 33.154-26.742 0-36.209-19.768-36.209-36.673 0-23.218 12.507-33.603 24.911-33.603h.449c5.148.104 9.778 2.933 12.334 7.556 2.764 4.968 2.626 11.074-.311 15.938-1.762 2.933-2.66 5.727-2.66 8.315 0 5.382 1.762 5.796 4.457 5.796 9.26 0 21.041-16.525 34.723-35.673 25.982-36.431 61.604-86.318 121.48-86.318 29.679 0 47.921-3.691 62.571-6.624 10.641-2.139 19.832-4.002 30.508-4.002 8.741 0 17.724 1.242 28.089 3.899 7.774-3.553 44.467-19.458 78.603-19.458a95.46 95.46 0 0 1 6.357.207C405.139 5.416 410.84.034 422.76.034a4.23 4.23 0 0 1 4.042 2.898c.726 2.07 2.522 7.176 3.801 10.143 6.426 2.001 11.989 4.278 17.033 6.865 9.64 5.244 14.995 10.902 15.962 16.939 4.907 2.898 8.5 6.417 10.849 10.729.968 1.725.588 3.899-.898 5.244-.38.345-1.486 1.414-2.557 2.45l-1.278 1.242c-.933 2.622-2.073 4.968-3.49 7.21-.587.897-1.624 2.553-3.489 3.588-1.21.725-2.695 1.139-4.215 1.139-.38 0-.761 0-1.141-.069-1.312.931-2.971 1.863-5.113 2.484v.069c-.587 2.725-1.624 4.83-2.73 6.451 0 1.104-.345 2.139-1.071 2.967-2.418 2.725-4.802 4.485-7.428 5.52-2.073.862-4.319 1.346-6.599 1.346-5.874 0-11.609-3.139-15.341-8.452-2.625-3.726-5.459-5.658-8.741-7.038-5.77 4.416-14.753 21.528-19.728 31.084l-3.455 6.555c8.361 15.008 15.928 30.774 22.078 43.539l8.43 17.25 6.357 6.21c2.246-.552 5.597-1.242 8.638-1.242 10.192 0 16.515 5.416 16.515 14.179 0 4.278-1.106 8.935-2.073 11.661-1.486 4.174-5.77 7.176-10.434 7.314h-2.453c-1.313 0-2.557-.311-3.559-.932-1.417.552-3.144.932-5.286.932h-13.682l-.035-.069z" fill="#fff"/><g fill="#ffce00"><path d="M144.248 107.328l-.518-3.243-1.451 2.967c-8.845 18.044-23.736 30.774-33.618 39.192-6.875 5.865-11.021 9.418-11.021 12.454v.173l.069.172c4.457 12.869 5.217 22.184 5.77 28.98l.103 1.311c.208 2.484 1.935 3.588 3.766 4.416.242.103.622.138.899.414 9.536 9.384 23.77 4.416 23.77 4.416a1.84 1.84 0 0 0 1.59-.863c.345-.552.414-1.207.138-1.794-.795-1.759-2.764-2.794-5.252-4.139-5.77-3.036-14.442-7.625-14.649-25.323 24.22-14.525 34.447-34.431 30.404-59.167m192.239 81.592c-3.317-2.312-7.014-3.623-10.434-3.726l-4.146-3.588c-5.217-4.485-12.3-10.592-12.957-13.593 2.108-1.932 11.333-11.04 11.333-22.011 0-.414 0-.793-.035-1.173l-.103-1.069-1.071.138c-1.797.207-4.388.31-7.498.31-3.282 0-7.117-.103-10.296-.31h-.795l-.276.69c-.276.759-6.461 18.457-6.461 23.321 0 5.279 5.183 10.764 10.227 16.043 3.49 3.691 6.772 7.176 8.085 10.246 1.416 3.277 2.937 4.416 6.046 4.416h12.196c1.141 0 2.108-.932 2.108-2.036a8.71 8.71 0 0 0-.553-3.07c1.831.759 3.524 2.415 3.524 4.036v1.035h4.976c.656 0 1.278-.31 1.658-.828.415-.517.518-1.173.38-1.794-.587-2.207-2.833-4.898-5.908-7.037z"/><path d="M456.412 41.607l-.276-1.967c-1.279-9.211-20.765-14.697-31.234-17.664l-1.382-.379-3.87-11.661-.276-.828-.864.104c-3.351.379-5.873 1.794-7.566 4.243-3.594 5.209-1.935 13.248-1.555 14.8-.138.483-.829 1.932-4.008 1.932-.069 0-.207-.069-.346-.207-.932-.966-1.865-4.14-1.762-7.762v-.897l-.863-.138c-1.659-.276-4.526-.621-8.707-.621-32.063 0-70.449 19.527-74.733 21.735-24.392-7.245-39.491-4.554-60.359-.862-15.548 2.76-34.896 6.21-63.884 6.21-23.667 0-45.503 8.935-66.752 27.358-18.277 15.835-33.134 35.983-46.228 53.751-16.031 21.769-29.886 40.571-43.05 40.571-11.747 0-13.509-9.453-13.509-15.076 0-4.692 2.315-10.246 4.25-14.11a6.12 6.12 0 0 0-.242-5.969c-1.002-1.656-2.729-2.656-4.63-2.691h-.138c-1.589 0-5.666.414-9.087 4.209-3.559 3.968-5.39 10.35-5.39 18.975 0 25.426 19.936 27.427 26.051 27.427 22.976 0 46.781-30.877 67.788-58.097 16.135-20.907 31.372-40.675 42.67-41.503 2.833 7.348 6.737 15.352 10.503 23.08 6.806 13.972 13.233 27.186 13.233 35.604 0 7.52-2.557 11.971-4.423 15.214-1.209 2.07-2.142 3.726-2.142 5.52 0 2.139 2.592 5.589 7.187 11.523 5.01 6.451 11.263 14.49 13.267 21.286.691 2.277 2.695 3.829 5.079 3.829h14.408c1.278 0 2.073-.897 2.073-2.311 0-1.104-.346-2.07-.795-2.863 2.177.655 4.111 2.173 4.526 4.346l.173.863h2.729c.622 0 1.21-.276 1.59-.725.414-.448.587-1.069.483-1.69-.656-4.347-4.802-11.626-16.307-11.799-3.179-2.794-10.538-16.525-13.752-22.873 4.976-2.312 25.775-13.559 25.775-39.916 0-13.835 6.807-20.562 20.834-20.562h1.037a25.31 25.31 0 0 1 3.213.31c7.29 1.035 17.24 4.382 28.746 8.246 9.639 3.243 20.557 6.934 31.855 9.867 5.597 1.449 10.918 2.587 16.343 3.484l2.764.449-1.762-2.174c-2.592-3.139-4.112-6.831-4.561-11.005 4.388 3.967 16.135 13.455 29.921 14.973h.069.138a15.1 15.1 0 0 1 3.317.172c11.367 2.243 15.271 20.596 15.306 20.803l.069.311 53.588 50.887c.794.759 1.831 1.173 2.936 1.173h10.124a6.26 6.26 0 0 0 2.004-.345c3.869-1.518 5.217-4.002 5.666-5.589.104.104.207.173.311.311.656.793 1.209 2.38.829 4.381l-.242 1.242h3.49c1.485 0 2.798-1.035 3.109-2.519.277-1.276.588-3.208.588-5.347 0-2.898-1.21-6.348-6.945-6.348-3.317 0-8.499 1.173-10.296 1.622l-43.05-41.331a2.99 2.99 0 0 1 1.348-.517c1.002-.104 2.142.345 3.316 1.31 1.59 1.346 7.532 6.969 17.656 16.733l1.624-1.311c-5.459-8.694-11.126-18.63-17.137-29.152-15.859-27.807-33.756-59.098-52.69-75.417 13.095 3.933 27.33 19.078 43.395 46.057l1.037 1.725.829-1.828c3.524-7.763 5.977-18.078 8.361-28.048 2.143-9.004 4.181-17.491 6.807-23.391.242-.656.484-1.173.76-1.622 5.148-8.59 12.058-11.523 16.273-12.489-3.282 2.795-8.154 7.831-10.054 14.49-1.624 5.761.691 8.314.795 8.418l.276.276h.38c15.617 1.552 20.143 8.694 23.771 14.421 1.969 3.07 3.662 5.727 6.703 6.59 4.249 1.173 7.083-1.898 8.015-3.657l.415-.794-.726-.517c-3.869-2.863-6.357-5.313-8.292-10.212-1.485-3.898-.967-9.246 2.868-11.454 3.662-1.897 8.085-.518 12.265 1.242 2.419 1.069 4.768 2.38 7.256 4.002.276.138.587.38.933.621.691.518 1.416 1.035 2.177 1.242 1.347.38 2.003-.69 2.211-1.104.034-.069.103-.172.138-.242l.069-.103c1.279-2.07 2.626-5.106 3.144-7.245 1.175-4.657-1.693-9.177-7.014-11.143"/></g><g fill="#002e4b"><path d="M415.193 27.876l1.935-3.657c1.935-3.622-2.073-8.487-2.073-8.487-2.764 5.486.138 12.109.138 12.109m29.955 15.077c2.903.794 5.425-3.243 5.425-3.243l-.691-.414c-1.451-.862-5.286-2.863-11.229-4.657-.138-.069-.311-.103-.449-.138-2.073-.621-4.388-1.173-6.979-1.656l7.808 3.484c1.106 2.242 3.317 5.83 6.081 6.624M402.617 58.96s-2.039-2.139-.553-7.417c2.798-9.97 12.818-16.318 12.818-16.318s-12.784-.207-21.007 13.489c-.345.586-.621 1.173-.863 1.794-5.563 12.489-8.534 36.777-15.168 51.369-14.615-24.529-31.337-45.401-48.371-47.471 27.053 20.493 51.93 73.519 72.971 107.018l-17.724-16.767c-4.285-3.553-6.876 0-6.876 0l44.294 42.469s6.737-1.725 10.607-1.725 5.908 1.656 5.908 5.279c0 2.001-.311 3.863-.553 5.14a2.11 2.11 0 0 1-2.073 1.656h-2.211c.725-3.623-1.175-6.313-2.937-6.313 0 0 0 3.967-5.252 6.037a4.66 4.66 0 0 1-1.589.276h-10.123c-.83 0-1.59-.311-2.212-.897l-53.38-50.646s-3.973-19.216-16.135-21.631c-1.14-.207-2.315-.31-3.593-.207-14.442-1.587-26.604-12.144-30.163-15.49-.415-.38-1.036-.069-1.002.483.311 5.347 2.211 9.487 4.872 12.73-5.736-.931-11.126-2.139-16.239-3.45-24.669-6.417-47.161-16.215-60.74-18.147a25.82 25.82 0 0 0-3.317-.31h-1.071c-14.822 0-21.905 7.348-21.905 21.631 0 29.428-26.154 39.399-26.154 39.399s10.779 21.424 14.822 24.426c10.469 0 14.96 6.313 15.651 10.901.104.621-.414 1.208-1.036 1.208h-1.866c-.691-3.554-3.87-5.554-7.221-5.554 0 0 1.416 1.897 1.416 4.312 0 .828-.38 1.242-1.036 1.242h-14.408c-1.9 0-3.524-1.242-4.042-3.071-3.628-12.247-20.419-28.117-20.419-32.498s6.599-8.418 6.599-20.769c0-13.662-16.308-39.261-24.082-59.753-26.535 0-70.552 99.635-111.149 99.635-12.887 0-25.015-7.142-25.015-26.358s9.156-22.149 13.406-22.149h.138c3.421.035 5.528 3.933 3.939 7.107-2.004 3.968-4.388 9.694-4.388 14.593 0 8.453 3.697 16.112 14.58 16.112 35.103 0 69.757-121.68 156.03-121.68 67.166 0 81.4-18.216 124.347-5.278 0 0 40.666-21.838 74.629-21.838 4.042 0 6.806.311 8.534.587-.104 4.381 1.244 9.073 3.178 9.073 4.768 0 5.079-3.001 5.079-3.001s-4.284-16.525 8.189-17.94l4.077 12.213c8.257 2.381 31.095 8.142 32.373 17.319l.346 2.587c5.183 1.691 8.016 5.865 6.945 10.108-.519 2.035-1.762 4.968-3.006 6.934-.346.414-.518 1.208-1.244 1.001-.933-.242-1.969-1.242-2.868-1.76-2.349-1.518-4.768-2.898-7.359-4.071-3.939-1.656-8.914-3.45-13.198-1.207-4.354 2.553-5.01 8.487-3.352 12.765 1.97 4.968 4.457 7.59 8.638 10.66 0 0-2.246 4.382-6.806 3.139-7.705-2.139-6.047-18.595-30.647-21.01M307.879 167.53c0 4.106 10.745 12.351 17.794 18.665 7.394 0 14.718 6.072 15.72 9.97.173.655-.345 1.311-1.036 1.311h-3.939c0-3.002-3.801-5.554-6.703-5.554 0 0 1.624 1.655 1.624 4.588 0 .517-.484.966-1.036.966h-12.197c-2.557 0-3.8-.69-5.079-3.76-3.317-7.797-18.208-17.561-18.208-25.875 0-4.761 6.392-22.977 6.392-22.977 4.733.311 13.302.518 17.966 0 0 .345.035.725.035 1.104 0 11.799-11.367 21.597-11.367 21.597m-195.072-1.691c0 24.771 19.935 25.599 19.935 30.325 0 .69-.311 1.518-1.693 1.518 0 0-1.865-3.415-4.699-3.415 0 0 3.006 3.588-2.729 3.588-7.981 0-13.889-4.209-15.824-5.106-1.97-.897-3.006-1.794-3.144-3.553-.588-6.866-1.14-16.698-5.943-30.533 0-6.624 30.094-21.665 44.536-51.197 2.936 18.009-.484 40.675-30.405 58.373m297.169-98.876c4.733 1.691 8.879 4.002 12.645 9.315 3.248 4.589 9.709 8.59 16.861 5.589 2.28-.897 4.146-2.553 5.77-4.381l-.898-.621c1.174-1.069 2.971-3.243 3.731-6.831 0 0-3.489 3.346-7.014 4.312-.725-.621-1.451-1.276-2.107-1.966 4.146-6.624 0-13.662-2.108-16.491.726-.276 1.555-.414 2.522-.276 4.699.414 9.329 3.071 13.337 5.727-.968 2.588-3.006 5.727-3.006 5.727 3.42-.621 5.459-2.208 6.599-3.415 1.382.621 2.833.828 4.353-.069.864-.483 1.452-1.346 1.935-2.105 1.451-2.312 2.557-4.692 3.421-7.279l4.699-4.52c-2.592-4.657-6.669-7.831-11.264-10.177.484-7.141-8.361-12.799-13.785-15.732-5.805-3.036-11.92-5.279-18.139-7.142-1.59-3.001-4.768-12.282-4.768-12.282-10.642 0-15.237 4.588-18.83 11.488-39.008-3.657-86.964 19.32-86.964 19.32-46.021-12.247-53.691 6.486-121.583 6.486C104.066 41.675 70.276 163.7 39.18 163.7c-5.632 0-8.776-2.898-8.776-10.074 0-3.899 1.451-7.521 3.282-10.522 4.388-7.245-.276-16.871-8.465-17.009h-.311c-10.78 0-20.627 9.729-20.627 29.325 0 15.318 8.119 32.395 31.925 32.395 40.839 0 89.347-96.081 106.381-96.081-8.223 32.567-50.548 55.923-50.548 66.998 0 0 5.355 10.384 6.634 34.706.138 2.657 1.417 3.795 3.317 4.451 0 0 9.985 6.21 21.007 6.21 6.426 0 7.29-1.277 7.29-1.277s1.658 1.035 4.837 1.035c2.729 0 5.493-1.828 5.493-4.968 0-13.213-21.49-9.176-21.49-28.6 18.865-5.968 36.451-19.458 43.395-30.049.173-.241.38-.414.553-.586.415 1.173.622 2.346.622 3.45 0 14.593-7.256 14.972-7.256 20.182 0 6.658 18.727 19.458 22.493 34.327.898 3.553 4.491 6.486 8.154 6.486h17.828c3.524 0 5.01-3.002 5.01-3.002s.345 3.002 2.695 3.002h3.8c3.386 0 4.975-2.726 4.734-5.21-.795-8.728-6.254-16.973-19.798-18.457-5.563-4.381-9.467-16.387-9.467-16.387s24.911-12.144 24.911-41.227c0-1.484-.207-4.209.415-7.004 4.249 2.45 40.735 15.318 61.051 23.495 6.495 2.622 9.605 4.105 16.515 5.071 0 0-6.427 16.111-6.427 24.874 0 9.384 16.135 18.354 20.005 29.601 1.313 3.726 3.593 5.278 7.705 5.278h15.029c3.559 0 4.561-3.001 4.561-3.001s-.069 3.001 2.107 3.001h5.632c2.695 0 4.906-1.932 4.906-4.554 0-17.111-20.557-19.112-20.557-19.112-6.945-6.107-10.4-9.35-10.4-11.903 0 0 22.181-11.592 25.015-27.427l7.221-1.138c2.073 4.243 3.04 7.969 4.353 10.108 2.66 4.243 48.371 46.471 55.523 53.164.622.586 1.416.897 2.245.862h13.579c5.251 0 6.599-3.001 6.599-3.001s-.622 3.001 2.246 3.001h2.349c2.764-.069 5.563-1.828 6.496-4.45.829-2.381 1.831-6.59 1.831-10.212 0-7.797-6.565-9.867-12.231-9.867-4.319 0-9.882 1.725-9.882 1.725l-8.603-8.418c-7.601-14.766-18.76-39.985-31.924-63.376 6.219-11.04 18.864-38.57 27.744-42.365M203.675 235.219h-3.144c-2.073 0-4.077 1.656-4.492 3.726l-3.42 16.939c-.518 2.587-1.52 4.485-3.006 5.727s-3.248 1.828-5.321 1.828-3.593-.621-4.56-1.897c-.968-1.311-1.175-3.278-.657-5.934l3.351-16.663c.415-2.07-.932-3.726-2.971-3.726h-3.144-3.455-1.14c.967.862.587 2.829.587 2.863l-3.593 17.733c-.587 2.863-.691 5.382-.346 7.486.38 2.105 1.175 3.83 2.35 5.244 1.209 1.38 2.764 2.381 4.733 3.036s4.25 1.001 6.91 1.001 5.045-.345 7.29-1.001c2.281-.655 4.285-1.69 6.012-3.036 1.797-1.414 3.317-3.174 4.526-5.313 1.279-2.173 2.212-4.726 2.834-7.693l3.524-17.491s.414-2.001 1.727-2.864h-1.175-3.455l.035.035zm49.442 0h-1.14-3.455-1.866-3.352c-1.312 0-2.625.69-3.524 1.759l-10.192 12.454-5.183-12.454c-.449-1.104-1.52-1.759-2.833-1.759h-.311-4.871-3.455-1.175c.76.655.691 2.001.622 2.587l-5.805 28.773-.518 2.484s-.415 2.035-1.727 2.863h1.14 6.288c2.073 0 4.077-1.656 4.491-3.726l3.49-17.25 6.426 14.283h.208l12.265-14.386-3.524 17.353c-.415 2.07.933 3.726 2.971 3.726h6.392 1.14c-.898-.793-.622-2.587-.587-2.829l6.288-31.049c.069-.242.484-2.036 1.728-2.829m79.12 33.844l-6.979-31.567c-.311-1.38-1.486-2.277-2.971-2.277h-5.321-2.246-1.244c.588 1.069-.587 2.898-.587 2.898l-19.383 30.946-.034.069c-.277.448-1.348 2.07-2.764 2.794h1.036 8.189c1.52 0 3.075-.931 3.938-2.346l2.557-4.209 10.884-18.561 2.073 11.075h-1.037c-3.386 0-6.876 2.104-8.707 5.278l-1.554 2.691s2.349-.966 7.566-.966c4.63 0 5.908 4.658 5.908 4.658.277 1.449 1.451 2.38 3.006 2.38h8.361 1.037c-1.313-.862-1.659-2.898-1.659-2.898m22.043-34.258c-2.211 0-4.215.276-6.08.863s-3.525 1.38-4.976 2.415-2.626 2.277-3.558 3.691-1.555 3.001-1.901 4.692v.103c-.414 1.863-.345 3.45.104 4.727a6.78 6.78 0 0 0 2.28 3.174c1.071.862 2.384 1.552 3.939 2.104s3.282 1.035 5.148 1.484c1.209.276 2.177.552 2.902.828s1.313.517 1.728.793.691.552.794.863.139.621.07 1.035v.103c-.173.794-.657 1.415-1.452 1.863s-1.9.656-3.247.656c-3.317 0-6.288-.897-8.914-2.691-1.451-1.001-1.486-2.484-1.486-2.484l-4.492 4.485c-1.796 1.725-1.969 4.381-.241 5.554 1.209.828 2.556 1.518 4.007 2.07 2.73 1.001 5.736 1.518 9.018 1.518 2.246 0 4.319-.276 6.219-.793 1.935-.552 3.628-1.311 5.148-2.346 1.486-1.035 2.764-2.277 3.766-3.726s1.693-3.14 2.073-5.003v-.103c.38-1.691.346-3.174 0-4.416-.38-1.242-1.071-2.277-2.073-3.14s-2.315-1.621-3.869-2.208c-1.555-.621-3.352-1.138-5.356-1.587l-2.937-.793c-.76-.276-1.347-.518-1.762-.794s-.691-.552-.829-.862-.138-.69-.069-1.104v-.104c.138-.655.587-1.207 1.278-1.656s1.659-.69 2.868-.69c1.624 0 3.282.311 4.906.897l2.039.932c1.451.862 1.865 2.449 1.865 2.449l6.565-8.141s-4.837-4.623-13.406-4.623m-200.565.276h-13.026-3.455-1.174c.967.862.587 2.829.587 2.863l-6.254 30.981s-.414 2.035-1.727 2.863h1.175 3.455 3.282 3.455 1.175c-.968-.862-.588-2.898-.588-2.898l5.045-25.047h6.322c4.561 0 5.494 1.932 4.941 4.658-.656 3.312-3.489 4.864-6.875 4.864h-.38c-4.561 0-5.805-1.587-5.805-1.587l-.967 4.692c-.657 3.209 3.869 5.831 7.877 5.831 7.532 0 14.028-3.416 16.17-14.663 1.762-9.383-4.388-12.626-13.198-12.626m108.661.207c-2.073 0-4.077 1.656-4.492 3.726l-6.081 30.325c-.138.517-.622 1.966-1.693 2.656h12.266c-.76-.655-.691-2.001-.622-2.587l6.323-31.257s.414-2.035 1.727-2.863h-7.463.035zm42.359 0h-28.297c-2.073 0-4.077 1.656-4.491 3.726l-1.037 4.933h10.953l-5.217 25.392c-.139.517-.622 1.966-1.693 2.656h12.438c-.968-.862-.588-2.863-.588-2.863l5.183-25.185h7.256c2.073 0 4.077-1.656 4.491-3.726l1.002-4.933z"/></g></g><defs><clipPath id="A"><path fill="#fff" d="M0 0h475v272.685H0z"/></clipPath></defs></svg>